<?xml version="1.0" standalone="no"?>
<!DOCTYPE svg PUBLIC "-//W3C//DTD SVG 1.1//EN" "http://www.w3.org/Graphics/SVG/1.1/DTD/svg11.dtd" >
<svg>
<metadata>
Created by FontForge 20120731 at Wed Jul 17 14:42:47 2019
 By www-data
(c) 2010-2017 Copyright by Lineto GmbH. All rights reserved.
</metadata>
<defs>
<font id="XfinityBrownTT-Light" horiz-adv-x="590" >
  <font-face 
    font-family="Xfinity Brown TT Light"
    font-weight="300"
    font-stretch="normal"
    units-per-em="1000"
    panose-1="2 1 4 4 1 1 1 1 1 3"
    ascent="750"
    descent="-250"
    x-height="456"
    cap-height="700"
    bbox="-519 -250 1383 1057"
    underline-thickness="80"
    underline-position="-60"
    unicode-range="U+0020-FEFF"
  />
<missing-glyph horiz-adv-x="656" 
d="M100 0v700h456v-700h-456zM506 650h-356v-600h356v600z" />
    <glyph glyph-name="f_t" unicode="ft" horiz-adv-x="722" 
d="M320 649q-23 17 -56 17t-54 -23q-10 -11 -15 -27.5t-5 -47.5v-112h138v-54h-138v-402h-57v402h-110v54h110v112q0 45 11.5 73t31.5 46q36 33 89 33q25 0 47.5 -9t35.5 -21zM696 23q-20 -15 -43.5 -24t-52.5 -9q-21 0 -41.5 7t-34.5 19q-21 17 -32 45.5t-11 73.5v267h-110
v54h110v151h57v-151h138v-54h-138v-271q0 -29 5 -43.5t13 -23.5q18 -20 49 -20q19 0 35.5 7t29.5 15z" />
    <glyph glyph-name="f_l" unicode="fl" horiz-adv-x="582" 
d="M320 649q-23 17 -56 17t-54 -23q-10 -11 -15 -27.5t-5 -47.5v-112h138v-54h-138v-402h-57v402h-110v54h110v112q0 45 11.5 73t31.5 46q36 33 89 33q25 0 47.5 -9t35.5 -21zM437 710h57v-710h-57v710z" />
    <glyph glyph-name="f_j" unicode="fj" 
d="M320 649q-23 17 -56 17t-54 -23q-10 -11 -15 -27.5t-5 -47.5v-112h138v-54h-138v-402h-57v402h-110v54h110v112q0 45 11.5 73t31.5 46q36 33 89 33q25 0 47.5 -9t35.5 -21zM423 614q0 21 14.5 36t35.5 15t36 -15t15 -36t-15 -35.5t-36 -14.5t-35.5 14.5t-14.5 35.5z
M315 -179q23 -17 56 -17t54 23q10 11 15 27.5t5 47.5v554h57v-554q0 -45 -11.5 -73t-31.5 -46q-36 -33 -89 -33q-25 0 -47.5 9t-35.5 21z" />
    <glyph glyph-name="f_i" unicode="fi" horiz-adv-x="582" 
d="M320 649q-23 17 -56 17t-54 -23q-10 -11 -15 -27.5t-5 -47.5v-112h138v-54h-138v-402h-57v402h-110v54h110v112q0 45 11.5 73t31.5 46q36 33 89 33q25 0 47.5 -9t35.5 -21zM437 456h57v-456h-57v456zM415 614q0 21 14.5 36t35.5 15t36 -15t15 -36t-15 -35.5t-36 -14.5
t-35.5 14.5t-14.5 35.5z" />
    <glyph glyph-name="f_f_t" unicode="fft" horiz-adv-x="1071" 
d="M320 649q-23 17 -56 17t-54 -23q-10 -11 -15 -27.5t-5 -47.5v-112h138v-54h-138v-402h-57v402h-110v54h110v112q0 45 11.5 73t31.5 46q36 33 89 33q25 0 47.5 -9t35.5 -21zM669 649q-23 17 -56 17t-54 -23q-10 -11 -15 -27.5t-5 -47.5v-112h138v-54h-138v-402h-57v402
h-110v54h110v112q0 45 11.5 73t31.5 46q36 33 89 33q25 0 47.5 -9t35.5 -21zM1045 23q-20 -15 -43.5 -24t-52.5 -9q-21 0 -41.5 7t-34.5 19q-21 17 -32 45.5t-11 73.5v267h-110v54h110v151h57v-151h138v-54h-138v-271q0 -29 5 -43.5t13 -23.5q18 -20 49 -20q19 0 35.5 7
t29.5 15z" />
    <glyph glyph-name="f_f_l" unicode="ffl" horiz-adv-x="931" 
d="M320 649q-23 17 -56 17t-54 -23q-10 -11 -15 -27.5t-5 -47.5v-112h138v-54h-138v-402h-57v402h-110v54h110v112q0 45 11.5 73t31.5 46q36 33 89 33q25 0 47.5 -9t35.5 -21zM669 649q-23 17 -56 17t-54 -23q-10 -11 -15 -27.5t-5 -47.5v-112h138v-54h-138v-402h-57v402
h-110v54h110v112q0 45 11.5 73t31.5 46q36 33 89 33q25 0 47.5 -9t35.5 -21zM786 710h57v-710h-57v710z" />
    <glyph glyph-name="f_f_j" unicode="ffj" horiz-adv-x="939" 
d="M320 649q-23 17 -56 17t-54 -23q-10 -11 -15 -27.5t-5 -47.5v-112h138v-54h-138v-402h-57v402h-110v54h110v112q0 45 11.5 73t31.5 46q36 33 89 33q25 0 47.5 -9t35.5 -21zM669 649q-23 17 -56 17t-54 -23q-10 -11 -15 -27.5t-5 -47.5v-112h138v-54h-138v-402h-57v402
h-110v54h110v112q0 45 11.5 73t31.5 46q36 33 89 33q25 0 47.5 -9t35.5 -21zM772 614q0 21 14.5 36t35.5 15t36 -15t15 -36t-15 -35.5t-36 -14.5t-35.5 14.5t-14.5 35.5zM664 -179q23 -17 56 -17t54 23q10 11 15 27.5t5 47.5v554h57v-554q0 -45 -11.5 -73t-31.5 -46
q-36 -33 -89 -33q-25 0 -47.5 9t-35.5 21z" />
    <glyph glyph-name="f_f_i" unicode="ffi" horiz-adv-x="931" 
d="M320 649q-23 17 -56 17t-54 -23q-10 -11 -15 -27.5t-5 -47.5v-112h138v-54h-138v-402h-57v402h-110v54h110v112q0 45 11.5 73t31.5 46q36 33 89 33q25 0 47.5 -9t35.5 -21zM669 649q-23 17 -56 17t-54 -23q-10 -11 -15 -27.5t-5 -47.5v-112h138v-54h-138v-402h-57v402
h-110v54h110v112q0 45 11.5 73t31.5 46q36 33 89 33q25 0 47.5 -9t35.5 -21zM786 456h57v-456h-57v456zM764 614q0 21 14.5 36t35.5 15t36 -15t15 -36t-15 -35.5t-36 -14.5t-35.5 14.5t-14.5 35.5z" />
    <glyph glyph-name="f_f" unicode="ff" horiz-adv-x="698" 
d="M320 649q-23 17 -56 17t-54 -23q-10 -11 -15 -27.5t-5 -47.5v-112h138v-54h-138v-402h-57v402h-110v54h110v112q0 45 11.5 73t31.5 46q36 33 89 33q25 0 47.5 -9t35.5 -21zM669 649q-23 17 -56 17t-54 -23q-10 -11 -15 -27.5t-5 -47.5v-112h138v-54h-138v-402h-57v402
h-110v54h110v112q0 45 11.5 73t31.5 46q36 33 89 33q25 0 47.5 -9t35.5 -21z" />
    <glyph glyph-name=".notdef" horiz-adv-x="656" 
d="M100 0v700h456v-700h-456zM506 650h-356v-600h356v600z" />
    <glyph glyph-name=".null" horiz-adv-x="0" 
 />
    <glyph glyph-name="nonmarkingreturn" horiz-adv-x="264" 
 />
    <glyph glyph-name="space" unicode=" " horiz-adv-x="264" 
 />
    <glyph glyph-name="exclam" unicode="!" horiz-adv-x="309" 
d="M126 456v244h57v-244l-10 -246h-37zM102 42q0 22 15 37t37 15t37 -15t15 -37t-15 -37t-37 -15t-37 15t-15 37z" />
    <glyph glyph-name="quotedbl" unicode="&#x22;" horiz-adv-x="392" 
d="M71 700h57l-10 -254h-37zM264 700h57l-10 -254h-37z" />
    <glyph glyph-name="numbersign" unicode="#" horiz-adv-x="624" 
d="M488 480h99v-54h-113l-40 -152h99v-54h-114l-59 -220h-57l60 220h-170l-60 -220h-57l60 220h-99v54h113l40 152h-99v54h114l59 220h57l-59 -220h170l59 220h57zM207 274h170l40 152h-170z" />
    <glyph glyph-name="dollar" unicode="$" horiz-adv-x="521" 
d="M76 164q40 -42 89 -64.5t112 -22.5q25 0 50.5 7.5t45.5 22t32.5 37t12.5 52.5q0 34 -16 57t-41.5 40t-58 29.5t-66.5 24.5q-32 12 -62 26t-53.5 33.5t-38 46t-14.5 64.5q0 33 13.5 61.5t37.5 50t56.5 34.5t70.5 16v91h57v-92q57 -6 94 -25.5t60 -36.5l-36 -43
q-33 24 -66 37t-81 13q-30 0 -56 -7.5t-46 -21.5t-31.5 -34.5t-11.5 -45.5q0 -24 12 -42t31.5 -32t45.5 -25t55 -21q36 -14 72.5 -29t66.5 -37t48.5 -53t18.5 -77q0 -38 -14 -68.5t-38 -53.5t-56 -37t-68 -18v-91h-57v91q-58 5 -114 31.5t-98 74.5z" />
    <glyph glyph-name="percent" unicode="%" horiz-adv-x="808" 
d="M424 170q0 37 13 70t36.5 57.5t55.5 38.5t70 14t70 -14t55.5 -38.5t36.5 -57.5t13 -70q0 -38 -13 -70.5t-36.5 -57t-55.5 -38.5t-70 -14t-70 14t-55.5 38.5t-36.5 57t-13 70.5zM721 170q0 27 -9.5 50.5t-26 41t-39 28t-47.5 10.5q-26 0 -48 -10.5t-38.5 -28t-26 -41
t-9.5 -50.5t9.5 -50.5t26 -41t38.5 -28t48 -10.5q25 0 47.5 10.5t39 28t26 41t9.5 50.5zM384 530q0 -38 -13 -70.5t-36.5 -57t-55.5 -38.5t-70 -14t-70 14t-55.5 38.5t-36.5 57t-13 70.5q0 37 13 70t36.5 57.5t55.5 38.5t70 14t70 -14t55.5 -38.5t36.5 -57.5t13 -70z
M634 700l-408 -700h-52l408 700h52zM87 530q0 -27 9.5 -50.5t26 -41t38.5 -28t48 -10.5q25 0 47.5 10.5t39 28t26 41t9.5 50.5t-9.5 50.5t-26 41t-39 28t-47.5 10.5q-26 0 -48 -10.5t-38.5 -28t-26 -41t-9.5 -50.5z" />
    <glyph glyph-name="ampersand" unicode="&#x26;" horiz-adv-x="687" 
d="M695 0h-79l-93 89q-38 -45 -93.5 -72t-130.5 -27q-51 0 -96.5 16t-79.5 44t-54 66.5t-20 84.5q0 37 11.5 68t30 56.5t43.5 46.5t52 38q-37 36 -60 75.5t-23 82.5q0 28 10 54t29 45.5t46 31t61 11.5t61 -11.5t46 -31t29 -45.5t10 -54q0 -29 -10 -53t-27 -44.5t-38.5 -37.5
t-44.5 -31l237 -227q26 57 26 118q0 38 -5.5 69.5t-9.5 48.5l54 12q7 -24 12.5 -58.5t5.5 -71.5q0 -42 -10.5 -82.5t-30.5 -76.5zM106 201q0 -32 14.5 -60t40 -50t61 -34.5t77.5 -12.5q64 0 109 23t74 60l-254 244q-58 -37 -90 -77t-32 -93zM338 568q0 39 -25.5 63.5
t-63.5 24.5t-63.5 -24.5t-25.5 -63.5q0 -33 20 -63.5t44 -53.5l11 -11q19 13 37.5 26.5t33 29.5t23.5 33.5t9 38.5z" />
    <glyph glyph-name="quotesingle" unicode="'" horiz-adv-x="199" 
d="M71 700h57l-10 -254h-37z" />
    <glyph glyph-name="parenleft" unicode="(" horiz-adv-x="287" 
d="M110 230q0 -135 43.5 -246t109.5 -201l-45 -33q-35 48 -65.5 102t-52.5 114t-34.5 126t-12.5 138t12.5 138t34.5 126t52.5 114t65.5 102l45 -33q-66 -90 -109.5 -201t-43.5 -246z" />
    <glyph glyph-name="parenright" unicode=")" horiz-adv-x="288" 
d="M178 230q0 135 -43.5 246t-109.5 201l45 33q35 -48 65.5 -102t52.5 -114t34.5 -126t12.5 -138t-12.5 -138t-34.5 -126t-52.5 -114t-65.5 -102l-45 33q66 90 109.5 201t43.5 246z" />
    <glyph glyph-name="asterisk" unicode="*" horiz-adv-x="495" 
d="M286 479l103 -142l-40 -29l-102 141l-103 -141l-40 29l102 140l-165 55l15 47l166 -54v175h50v-175l166 54l16 -47z" />
    <glyph glyph-name="plus" unicode="+" horiz-adv-x="540" 
d="M297 229v-183h-54v183h-183v54h183v183h54v-183h183v-54h-183z" />
    <glyph glyph-name="comma" unicode="," horiz-adv-x="291" 
d="M117 100h75l-96 -240h-50z" />
    <glyph glyph-name="hyphen" unicode="-" horiz-adv-x="404" 
d="M332 274v-49h-260v49h260z" />
    <glyph glyph-name="period" unicode="." horiz-adv-x="290" 
d="M93 42q0 22 15 37t37 15t37 -15t15 -37t-15 -37t-37 -15t-37 15t-15 37z" />
    <glyph glyph-name="slash" unicode="/" horiz-adv-x="446" 
d="M30 0l327 700h58l-327 -700h-58z" />
    <glyph glyph-name="zero" unicode="0" horiz-adv-x="620" 
d="M310 47q43 0 78 21t60 60.5t38.5 95.5t13.5 126t-13.5 126t-38.5 95.5t-60 60.5t-78 21t-78 -21t-60 -60.5t-38.5 -95.5t-13.5 -126t13.5 -126t38.5 -95.5t60 -60.5t78 -21zM560 350q0 -84 -18 -151t-51 -113.5t-79 -71t-102 -24.5t-102 24.5t-79 71t-51 113.5t-18 151
t18 151t51 113.5t79 71t102 24.5t102 -24.5t79 -71t51 -113.5t18 -151z" />
    <glyph glyph-name="one" unicode="1" horiz-adv-x="329" 
d="M31 606l155 94h40v-700h-60v621l-135 -75v60z" />
    <glyph glyph-name="two" unicode="2" horiz-adv-x="559" 
d="M279 710q43 0 81.5 -16t68 -45t46.5 -68.5t17 -85.5q0 -39 -11 -72.5t-32 -66t-50 -64.5t-65 -67l-171 -168h344v-57h-445v37l232 227q33 33 59 61.5t43.5 55.5t26.5 54.5t9 59.5q0 31 -11.5 59.5t-31.5 50.5t-48.5 35t-61.5 13q-70 0 -116 -44t-62 -129l-54 12
q6 45 24.5 84.5t47.5 69.5t69.5 47t90.5 17z" />
    <glyph glyph-name="three" unicode="3" horiz-adv-x="549" 
d="M83 139q29 -45 72 -68.5t100 -23.5q40 0 73 15t56 40t35.5 58t12.5 69q0 37 -13.5 69t-36.5 55t-55 36.5t-69 13.5q-23 0 -46.5 -2t-41.5 -8v37l203 213h-301v57h395v-37l-196 -206q47 0 87.5 -18t70 -49t46.5 -72.5t17 -88.5q0 -51 -18.5 -94.5t-50.5 -76t-75 -50.5
t-93 -18q-73 0 -129.5 32.5t-88.5 86.5z" />
    <glyph glyph-name="four" unicode="4" 
d="M380 180h-355v37l375 483h40v-463h115v-57h-115v-180h-60v180zM380 237v343l-266 -343h266z" />
    <glyph glyph-name="five" unicode="5" horiz-adv-x="541" 
d="M144 430q24 14 56 21.5t64 7.5q48 0 89.5 -17.5t72 -49t48 -74.5t17.5 -93q0 -45 -17 -87t-48.5 -75t-76 -53t-99.5 -20q-66 0 -119.5 29.5t-84.5 75.5l44 34q29 -38 66.5 -60t94.5 -22q39 0 72 14.5t57 38.5t37.5 56.5t13.5 68.5q0 37 -13 69.5t-35.5 56.5t-54 38
t-67.5 14q-43 0 -79.5 -13t-65.5 -36l-40 6l43 340h342v-57h-292z" />
    <glyph glyph-name="six" unicode="6" horiz-adv-x="555" 
d="M211 435q17 8 38 12.5t43 4.5q49 0 90.5 -18t71.5 -49.5t46.5 -73.5t16.5 -90q0 -50 -17.5 -92t-49 -73t-74 -48.5t-92.5 -17.5t-92.5 18t-73.5 49t-48.5 72t-17.5 88q0 48 15.5 85.5t33.5 65.5l215 332h68zM288 395q-32 0 -62.5 -8.5t-62.5 -28.5q-7 -12 -16 -25.5
t-16.5 -30t-13 -37t-5.5 -44.5q0 -36 13 -68t36 -55.5t55 -37t70 -13.5q36 0 67.5 13.5t54.5 37t36 55t13 68.5t-12.5 68.5t-35 55t-53.5 37t-68 13.5z" />
    <glyph glyph-name="seven" unicode="7" horiz-adv-x="504" 
d="M28 700h450v-37l-317 -663h-63l308 643h-378v57z" />
    <glyph glyph-name="eight" unicode="8" horiz-adv-x="570" 
d="M285 -10q-50 0 -92 16t-72.5 44.5t-48 67.5t-17.5 85q0 62 32.5 112.5t88.5 77.5q-35 23 -55.5 59.5t-20.5 81.5q0 36 14 68t38.5 56t58.5 38t74 14t74 -14t58.5 -38t38.5 -56t14 -68q0 -45 -20.5 -81.5t-55.5 -59.5q56 -27 88.5 -77.5t32.5 -112.5q0 -46 -17.5 -85
t-48 -67.5t-73 -44.5t-91.5 -16zM285 653q-27 0 -50 -9.5t-39.5 -25.5t-26 -37.5t-9.5 -46.5q0 -24 9 -45.5t25.5 -37t39.5 -25t51 -10.5q28 1 51 10.5t39.5 25t25.5 37t9 45.5q0 25 -9.5 46.5t-26 37.5t-39.5 25.5t-50 9.5zM285 47q37 0 68.5 12.5t54 33.5t35 49.5
t12.5 60.5t-12.5 60.5t-35 49.5t-54 33.5t-68.5 12.5q-38 0 -69 -12.5t-53.5 -33.5t-35 -49.5t-12.5 -60.5t12.5 -60.5t35 -49.5t53.5 -33.5t69 -12.5z" />
    <glyph glyph-name="nine" unicode="9" horiz-adv-x="555" 
d="M344 265q-17 -8 -38 -12.5t-43 -4.5q-49 0 -90.5 18t-71.5 49.5t-46.5 73.5t-16.5 90q0 49 17.5 91.5t49 73.5t74 48.5t92.5 17.5t92.5 -18t73.5 -49t48.5 -72.5t17.5 -87.5q0 -48 -15.5 -85.5t-33.5 -65.5l-215 -332h-68zM267 305q32 0 62.5 8.5t62.5 28.5q7 12 16 25.5
t16.5 30t13 37t5.5 44.5q0 36 -13 68t-36 55.5t-55 37t-70 13.5q-36 0 -67.5 -13.5t-54.5 -37t-36 -55t-13 -68.5t12.5 -68.5t35 -55t53.5 -37t68 -13.5z" />
    <glyph glyph-name="colon" unicode=":" horiz-adv-x="300" 
d="M98 42q0 22 15 37t37 15t37 -15t15 -37t-15 -37t-37 -15t-37 15t-15 37zM98 414q0 22 15 37t37 15t37 -15t15 -37t-15 -37t-37 -15t-37 15t-15 37z" />
    <glyph glyph-name="semicolon" unicode=";" horiz-adv-x="323" 
d="M134 100h75l-96 -240h-50zM117 414q0 22 15 37t37 15t37 -15t15 -37t-15 -37t-37 -15t-37 15t-15 37z" />
    <glyph glyph-name="less" unicode="&#x3c;" horiz-adv-x="540" 
d="M473 65l-420 174v34l420 174v-58l-323 -133l323 -133v-58z" />
    <glyph glyph-name="equal" unicode="=" horiz-adv-x="540" 
d="M60 317v54h420v-54h-420zM60 141v54h420v-54h-420z" />
    <glyph glyph-name="greater" unicode="&#x3e;" horiz-adv-x="540" 
d="M67 123l323 133l-323 133v58l420 -174v-34l-420 -174v58z" />
    <glyph glyph-name="question" unicode="?" horiz-adv-x="519" 
d="M57 575q9 31 28 56.5t45 42.5t57.5 26.5t66.5 9.5q44 0 80.5 -14.5t62.5 -39t40.5 -57t14.5 -69.5q0 -36 -12.5 -64t-32 -50t-43 -39t-45.5 -31q-30 -20 -52 -37t-22 -38q0 -15 10 -28t22 -26l-40 -37q-26 23 -37.5 44.5t-11.5 42.5t8 37.5t20.5 30.5t29.5 26t35 24
q21 13 41 27.5t36.5 31.5t26.5 38t10 48q0 26 -10 49t-28.5 40t-44.5 27t-58 10q-48 0 -89 -24t-59 -75zM190 42q0 22 15 37t37 15t37 -15t15 -37t-15 -37t-37 -15t-37 15t-15 37z" />
    <glyph glyph-name="at" unicode="@" horiz-adv-x="963" 
d="M908 285q0 -35 -8 -78.5t-28.5 -81.5t-55 -64t-87.5 -26q-39 0 -69.5 20t-42.5 50q-26 -29 -62 -49.5t-86 -20.5q-47 0 -86 17t-67.5 46.5t-44.5 68.5t-16 83t16 83t44.5 68.5t67.5 46.5t86 17q35 0 71 -14.5t62 -41.5v46h57v-274q0 -48 22 -71q19 -21 51 -21
q36 0 59.5 19t36.5 48t18 63.5t5 65.5q0 76 -26 140.5t-73 111.5t-111.5 73t-140.5 26q-85 0 -151 -26t-117 -71q-59 -54 -93 -128t-34 -161q0 -81 30 -151.5t82 -122.5t121.5 -82t147.5 -30q63 0 120 21t103 53l29 -44q-52 -40 -116.5 -62t-136.5 -22q-91 0 -170.5 34.5
t-139 94.5t-93.5 140t-34 171q0 100 40.5 186.5t109.5 147.5q58 51 133 78.5t169 27.5q90 0 165 -30.5t129 -84.5t84 -128t30 -162zM602 337q-23 33 -57.5 53.5t-77.5 20.5q-32 0 -60 -12t-49 -34t-33.5 -51.5t-12.5 -63.5q0 -35 12.5 -64t33.5 -51t49 -34t60 -12
q43 0 77.5 20.5t57.5 53.5v174z" />
    <glyph glyph-name="A" unicode="A" horiz-adv-x="670" 
d="M355 700l302 -700h-61l-91 211h-342l-91 -211h-59l302 700h40zM188 268h292l-146 340z" />
    <glyph glyph-name="B" unicode="B" horiz-adv-x="629" 
d="M521 529q0 -40 -17 -74.5t-46 -57.5q54 -25 88.5 -76t34.5 -114q0 -47 -18.5 -86t-50.5 -68q-28 -25 -66 -39t-93 -14h-252v700h229q49 0 81.5 -12.5t55.5 -34.5q25 -23 39.5 -55t14.5 -69zM161 358v-301h189q46 0 75.5 11t49.5 31q21 20 33.5 48t12.5 60t-12.5 60
t-33.5 48q-20 20 -49.5 31.5t-75.5 11.5h-189zM327 415q40 0 64 10t40 27q30 32 30 77t-30 77q-16 17 -40 27t-64 10h-166v-228h166z" />
    <glyph glyph-name="C" unicode="C" horiz-adv-x="705" 
d="M682 119q-23 -29 -53 -52.5t-64.5 -40.5t-73.5 -26.5t-79 -9.5q-78 0 -144 27t-114 75t-75 114t-27 144q0 76 26.5 141.5t73.5 114t111 76.5t140 28q75 0 141.5 -28t112.5 -79l-39 -39q-38 38 -93.5 63.5t-121.5 25.5q-63 0 -116.5 -23.5t-92 -65t-60.5 -96.5t-22 -118
q0 -64 22 -119t61.5 -96t94 -64.5t119.5 -23.5q72 0 131 29.5t100 77.5z" />
    <glyph glyph-name="D" unicode="D" horiz-adv-x="743" 
d="M631 350q0 71 -29 132t-81 102q-38 29 -88.5 44t-124.5 15h-147v-586h147q74 0 124.5 15t88.5 44q52 41 81 102t29 132zM691 350q0 -88 -37 -162t-102 -122q-43 -32 -100 -49t-141 -17h-210v700h210q84 0 141 -17t100 -49q65 -48 102 -122t37 -162z" />
    <glyph glyph-name="E" unicode="E" horiz-adv-x="539" 
d="M161 643v-228h250v-57h-250v-301h330v-57h-390v700h380v-57h-320z" />
    <glyph glyph-name="F" unicode="F" horiz-adv-x="506" 
d="M161 643v-228h250v-57h-250v-358h-60v700h380v-57h-320z" />
    <glyph glyph-name="G" unicode="G" horiz-adv-x="743" 
d="M403 710q75 0 141.5 -28t112.5 -79l-39 -39q-38 38 -93.5 63.5t-121.5 25.5q-63 0 -116.5 -23.5t-92 -65t-60.5 -96.5t-22 -118q0 -64 22 -119t61.5 -96t94 -64.5t119.5 -23.5t119 24t94 65v222h-230v57h290v-296q-23 -29 -52.5 -52.5t-64.5 -40.5t-74 -26.5t-79 -9.5
q-78 0 -144 27t-114 75t-75 114t-27 144q0 76 26.5 141.5t73.5 114t111 76.5t140 28z" />
    <glyph glyph-name="H" unicode="H" horiz-adv-x="772" 
d="M611 358h-450v-358h-60v700h60v-285h450v285h60v-700h-60v358z" />
    <glyph glyph-name="I" unicode="I" horiz-adv-x="262" 
d="M101 700h60v-700h-60v700z" />
    <glyph glyph-name="J" unicode="J" horiz-adv-x="472" 
d="M74 125q16 -34 48 -56t71 -22q35 0 63 16t45 44q8 14 12.5 33.5t4.5 51.5v508h60v-505q0 -44 -8 -73t-23 -51q-25 -38 -65.5 -59.5t-88.5 -21.5q-57 0 -103 31t-67 81z" />
    <glyph glyph-name="K" unicode="K" horiz-adv-x="602" 
d="M521 0l-360 354v-354h-60v700h60v-314l341 314h79l-358 -330l378 -370h-80z" />
    <glyph glyph-name="L" unicode="L" horiz-adv-x="518" 
d="M161 57h330v-57h-390v700h60v-643z" />
    <glyph glyph-name="M" unicode="M" horiz-adv-x="846" 
d="M428 165h-10l-257 402v-567h-60v700h40l283 -441l281 441h40v-700h-60v568z" />
    <glyph glyph-name="N" unicode="N" horiz-adv-x="772" 
d="M101 700h40l470 -583v583h60v-700h-40l-470 583v-583h-60v700z" />
    <glyph glyph-name="O" unicode="O" horiz-adv-x="800" 
d="M52 350q0 76 26.5 142t73 114.5t110.5 76t138 27.5t138 -27.5t110.5 -76t73 -114.5t26.5 -142q0 -77 -26.5 -142.5t-73 -114t-110.5 -76t-138 -27.5t-138 27.5t-110.5 76t-73 114t-26.5 142.5zM112 350q0 -62 21 -117.5t59.5 -96.5t91.5 -65t116 -24t116 24t91.5 65
t59.5 96.5t21 117.5t-21 117t-59.5 96.5t-91.5 65.5t-116 24t-116 -24t-91.5 -65.5t-59.5 -96.5t-21 -117z" />
    <glyph glyph-name="P" unicode="P" horiz-adv-x="592" 
d="M161 338v-338h-60v700h259q48 0 81 -11t56 -31q29 -25 46.5 -61t17.5 -78t-17.5 -78t-46.5 -61q-23 -20 -56 -31t-81 -11h-199zM357 395q41 0 66 10t42 27t26.5 39t9.5 48t-9.5 48t-26.5 39t-42 27t-66 10h-196v-248h196z" />
    <glyph glyph-name="Q" unicode="Q" horiz-adv-x="804" 
d="M52 350q0 76 26.5 142t73 114.5t110.5 76t138 27.5t138 -27.5t110.5 -76t73 -114.5t26.5 -142q0 -69 -22 -129.5t-61 -108.5l103 -112h-76l-66 73q-45 -39 -102.5 -61t-123.5 -22q-74 0 -138 27.5t-110.5 76t-73 114t-26.5 142.5zM449 350l176 -193q30 39 46.5 88.5
t16.5 104.5q0 62 -21 117t-59.5 96.5t-91.5 65.5t-116 24t-116 -24t-91.5 -65.5t-59.5 -96.5t-21 -117t21 -117.5t59.5 -96.5t91.5 -65t116 -24q56 0 103 18.5t84 50.5l-179 198z" />
    <glyph glyph-name="R" unicode="R" horiz-adv-x="621" 
d="M549 0l-270 358h-118v-358h-60v700h239q48 0 80.5 -12t55.5 -33q26 -23 40.5 -55.5t14.5 -70.5t-14.5 -70.5t-40.5 -55.5q-22 -20 -51.5 -31.5t-73.5 -13.5l270 -358h-72zM337 415q38 0 60 8t37 22q17 16 27 37.5t10 46.5t-10 46.5t-27 37.5q-15 14 -37 22t-60 8h-176
v-228h176z" />
    <glyph glyph-name="S" unicode="S" horiz-adv-x="524" 
d="M84 143q15 -19 34 -36.5t42.5 -30.5t51.5 -21t61 -8q26 0 52 9t46.5 26t33 41.5t12.5 54.5q0 40 -17 66t-44.5 44.5t-62 32.5t-69.5 30q-15 7 -30 14.5t-29 16.5q-39 24 -67 57.5t-28 86.5q0 41 15.5 75t42 58t63 37.5t78.5 13.5q34 0 61.5 -7t49.5 -17t39 -22.5
t29 -22.5l-36 -43q-32 26 -64 40.5t-77 14.5q-29 0 -55 -8.5t-45 -25t-30 -39.5t-11 -51q0 -27 11.5 -46.5t30.5 -35t44 -27.5t52 -24q26 -11 52.5 -22.5t50.5 -26.5q22 -14 41 -30.5t33.5 -37t23 -45.5t8.5 -56q0 -42 -16 -76.5t-43.5 -59t-64.5 -38.5t-80 -14
q-73 0 -130 30t-102 87z" />
    <glyph glyph-name="T" unicode="T" horiz-adv-x="512" 
d="M486 700v-57h-200v-643h-60v643h-200v57h460z" />
    <glyph glyph-name="U" unicode="U" horiz-adv-x="744" 
d="M372 -10q-76 0 -139 34.5t-100 92.5q-20 31 -30.5 69t-10.5 94v420h60v-423q0 -46 8 -76t23 -54q29 -46 79 -73t110 -27t110 27t79 73q15 24 23 54t8 76v423h60v-420q0 -56 -10.5 -94t-30.5 -69q-37 -58 -100 -92.5t-139 -34.5z" />
    <glyph glyph-name="V" unicode="V" horiz-adv-x="648" 
d="M629 700l-285 -700h-40l-285 700h62l244 -601l243 601h61z" />
    <glyph glyph-name="W" unicode="W" horiz-adv-x="956" 
d="M498 700l187 -579l188 579h61l-230 -700h-40l-186 575l-186 -575h-40l-230 700h61l188 -579l187 579h40z" />
    <glyph glyph-name="X" unicode="X" horiz-adv-x="580" 
d="M5 0l252 379l-212 321h68l178 -269l178 269h66l-211 -319l251 -381h-68l-217 330l-219 -330h-66z" />
    <glyph glyph-name="Y" unicode="Y" horiz-adv-x="600" 
d="M330 329v-329h-60v329l-240 371h68l203 -314l202 314h67z" />
    <glyph glyph-name="Z" unicode="Z" horiz-adv-x="563" 
d="M434 643h-379v57h460v-37l-407 -606h427v-57h-510v37z" />
    <glyph glyph-name="bracketleft" unicode="[" horiz-adv-x="348" 
d="M100 700h225v-54h-168v-832h168v-54h-225v940z" />
    <glyph glyph-name="backslash" unicode="\" horiz-adv-x="446" 
d="M358 0l-327 700h58l327 -700h-58z" />
    <glyph glyph-name="bracketright" unicode="]" horiz-adv-x="348" 
d="M248 -240h-225v54h168v832h-168v54h225v-940z" />
    <glyph glyph-name="asciicircum" unicode="^" horiz-adv-x="540" 
d="M251 700h37l177 -350h-59l-137 266l-136 -266h-59z" />
    <glyph glyph-name="underscore" unicode="_" horiz-adv-x="554" 
d="M482 0v-49h-410v49h410z" />
    <glyph glyph-name="grave" unicode="`" horiz-adv-x="280" 
d="M145 674l65 -140h-45l-95 140h75z" />
    <glyph glyph-name="a" unicode="a" horiz-adv-x="592" 
d="M449 0v67q-26 -35 -68 -56t-96 -21q-32 0 -67 9.5t-69 33.5q-45 32 -71 82.5t-26 112.5q0 57 23 105.5t62 81.5q29 23 66 37t79 14q50 0 93 -19t74 -54v63h55v-456h-55zM447 320q-8 13 -22.5 29t-35.5 30t-48 23.5t-58 9.5q-29 0 -57.5 -9.5t-52.5 -29.5
q-30 -25 -47 -62.5t-17 -82.5q0 -48 19.5 -87.5t52.5 -62.5q22 -15 48 -24.5t55 -9.5q51 0 93.5 26.5t69.5 73.5v176z" />
    <glyph glyph-name="b" unicode="b" horiz-adv-x="592" 
d="M145 144q27 -47 69.5 -73.5t93.5 -26.5q29 0 55 9.5t48 24.5q33 23 52.5 62.5t19.5 87.5q0 45 -17 82.5t-47 62.5q-24 20 -52.5 29.5t-57.5 9.5q-32 0 -58.5 -9.5t-47.5 -23.5t-36 -30t-22 -29v-176zM307 -10q-54 0 -96 21t-68 56v-67h-55v710h57v-315q32 35 74.5 53
t90.5 18q42 0 79 -14t66 -37q39 -33 62 -81.5t23 -105.5q0 -62 -26 -112.5t-71 -82.5q-34 -24 -69 -33.5t-67 -9.5z" />
    <glyph glyph-name="c" unicode="c" horiz-adv-x="520" 
d="M291 44q48 0 86.5 20t69.5 55l39 -34q-35 -45 -85 -70t-110 -25q-53 0 -97 19t-76 51t-49.5 75.5t-17.5 92.5t18 92.5t49.5 75.5t75.5 51t96 19q63 0 107.5 -24.5t73.5 -55.5l-37 -36q-25 23 -58.5 42.5t-85.5 19.5q-39 0 -72.5 -14.5t-58 -39.5t-38 -58.5t-13.5 -71.5
t13.5 -71.5t38 -58.5t58 -39.5t73.5 -14.5z" />
    <glyph glyph-name="d" unicode="d" horiz-adv-x="592" 
d="M447 320q-8 13 -22.5 29t-35.5 30t-48 23.5t-58 9.5q-29 0 -57.5 -9.5t-52.5 -29.5q-30 -25 -47 -62.5t-17 -82.5q0 -48 19.5 -87.5t52.5 -62.5q22 -15 48 -24.5t55 -9.5q51 0 93.5 26.5t69.5 73.5v176zM285 -10q-32 0 -67 9.5t-69 33.5q-45 32 -71 82.5t-26 112.5
q0 57 23 105.5t62 81.5q29 23 66 37t79 14q48 0 90.5 -18t74.5 -53v315h57v-710h-55v67q-26 -35 -68 -56t-96 -21z" />
    <glyph glyph-name="e" unicode="e" horiz-adv-x="531" 
d="M271 412q-30 0 -56 -10.5t-46.5 -28.5t-34.5 -43t-20 -55h310q-5 30 -18 55t-33.5 43.5t-46 28.5t-55.5 10zM468 74q-35 -41 -84 -62.5t-101 -21.5t-94.5 17.5t-72.5 49t-46.5 75t-16.5 96.5q0 49 16 92.5t44.5 75.5t69 51t88.5 19q46 0 84.5 -17t67 -47t44.5 -70.5
t16 -88.5v-8t-1 -12h-372q1 -38 12 -70.5t33 -56.5t55 -38t78 -14q43 0 80 19t64 48z" />
    <glyph glyph-name="f" unicode="f" horiz-adv-x="349" 
d="M320 649q-23 17 -56 17t-54 -23q-10 -11 -15 -27.5t-5 -47.5v-112h138v-54h-138v-402h-57v402h-110v54h110v112q0 45 11.5 73t31.5 46q36 33 89 33q25 0 47.5 -9t35.5 -21z" />
    <glyph glyph-name="g" unicode="g" horiz-adv-x="592" 
d="M504 2q0 -51 -5.5 -85.5t-19.5 -61.5q-24 -46 -72.5 -75.5t-121.5 -29.5q-62 0 -117 27t-94 82l42 29q31 -39 73.5 -61.5t95.5 -22.5q57 0 92 22.5t52 55.5q11 21 14.5 48t3.5 70v65q-26 -33 -67 -54t-95 -21q-32 0 -67 9.5t-69 33.5q-45 32 -71 82.5t-26 112.5
q0 57 23 105.5t62 81.5q29 23 66 37t79 14q50 0 93 -19t74 -54v63h55v-454zM447 320q-8 13 -22.5 29t-35.5 30t-48 23.5t-58 9.5q-29 0 -57.5 -9.5t-52.5 -29.5q-30 -25 -47 -62.5t-17 -82.5q0 -48 19.5 -87.5t52.5 -62.5q22 -15 48 -24.5t55 -9.5q51 0 93.5 26.5t69.5 73.5
v176z" />
    <glyph glyph-name="h" unicode="h" horiz-adv-x="585" 
d="M145 395q27 36 70 53.5t89 17.5q50 0 92 -19.5t70 -57.5q19 -25 29 -57.5t10 -88.5v-243h-57v239q0 45 -7 70t-19 42q-20 29 -50.5 45t-68.5 16q-50 0 -91 -25t-67 -70v-317h-57v710h57v-315z" />
    <glyph glyph-name="i" unicode="i" horiz-adv-x="233" 
d="M88 456h57v-456h-57v456zM66 614q0 21 14.5 36t35.5 15t36 -15t15 -36t-15 -35.5t-36 -14.5t-35.5 14.5t-14.5 35.5z" />
    <glyph glyph-name="j" unicode="j" horiz-adv-x="241" 
d="M74 614q0 21 14.5 36t35.5 15t36 -15t15 -36t-15 -35.5t-36 -14.5t-35.5 14.5t-14.5 35.5zM-34 -179q23 -17 56 -17t54 23q10 11 15 27.5t5 47.5v554h57v-554q0 -45 -11.5 -73t-31.5 -46q-36 -33 -89 -33q-25 0 -47.5 9t-35.5 21z" />
    <glyph glyph-name="k" unicode="k" horiz-adv-x="492" 
d="M404 0l-259 241v-241h-57v710h57v-444l226 190h83l-242 -202l272 -254h-80z" />
    <glyph glyph-name="l" unicode="l" horiz-adv-x="233" 
d="M88 710h57v-710h-57v710z" />
    <glyph glyph-name="m" unicode="m" horiz-adv-x="925" 
d="M143 394q25 32 65.5 52t88.5 20q57 0 102 -26t69 -71q12 17 28.5 34.5t38.5 31.5t50 22.5t62 8.5q57 0 101.5 -26t69.5 -70q13 -23 20 -53t7 -76v-241h-57v234q0 48 -7 74t-19 44q-18 27 -47.5 43.5t-67.5 16.5q-27 0 -51 -9t-44 -23.5t-36 -33.5t-26 -40q2 -14 3.5 -30
t1.5 -35v-241h-57v234q0 48 -7 74t-19 44q-18 27 -47.5 43.5t-67.5 16.5q-47 0 -88 -26t-64 -69v-317h-57v456h55v-62z" />
    <glyph glyph-name="n" unicode="n" horiz-adv-x="585" 
d="M143 392q28 37 70.5 55.5t90.5 18.5q50 0 92 -19.5t70 -57.5q19 -25 29 -57.5t10 -88.5v-243h-57v239q0 45 -7 70t-19 42q-20 29 -50.5 45t-68.5 16q-50 0 -91 -25t-67 -70v-317h-57v456h55v-64z" />
    <glyph glyph-name="o" unicode="o" horiz-adv-x="574" 
d="M465 228q0 38 -13.5 71.5t-37 58.5t-56 39.5t-71.5 14.5t-71.5 -14.5t-56 -39.5t-37 -58.5t-13.5 -71.5t13.5 -71.5t37 -58.5t56 -39.5t71.5 -14.5t71.5 14.5t56 39.5t37 58.5t13.5 71.5zM522 228q0 -49 -17.5 -92.5t-49 -75.5t-74.5 -51t-94 -19t-94 19t-74.5 51
t-49 75.5t-17.5 92.5t17.5 92.5t49 75.5t74.5 51t94 19t94 -19t74.5 -51t49 -75.5t17.5 -92.5z" />
    <glyph glyph-name="p" unicode="p" horiz-adv-x="592" 
d="M88 -240v696h55v-63q31 35 74 54t93 19q42 0 79 -14t66 -37q39 -33 62 -81.5t23 -105.5q0 -62 -26 -112.5t-71 -82.5q-34 -24 -69 -33.5t-67 -9.5q-54 0 -95 21t-67 54v-305h-57zM145 144q27 -47 69.5 -73.5t93.5 -26.5q29 0 55 9.5t48 24.5q33 23 52.5 62.5t19.5 87.5
q0 45 -17 82.5t-47 62.5q-24 20 -52.5 29.5t-57.5 9.5q-32 0 -58.5 -9.5t-47.5 -23.5t-36 -30t-22 -29v-176z" />
    <glyph glyph-name="q" unicode="q" horiz-adv-x="592" 
d="M447 -240v305q-26 -33 -67 -54t-95 -21q-32 0 -67 9.5t-69 33.5q-45 32 -71 82.5t-26 112.5q0 57 23 105.5t62 81.5q29 23 66 37t79 14q50 0 93 -19t74 -54v63h55v-696h-57zM447 320q-8 13 -22.5 29t-35.5 30t-48 23.5t-58 9.5q-29 0 -57.5 -9.5t-52.5 -29.5
q-30 -25 -47 -62.5t-17 -82.5q0 -48 19.5 -87.5t52.5 -62.5q22 -15 48 -24.5t55 -9.5q51 0 93.5 26.5t69.5 73.5v176z" />
    <glyph glyph-name="r" unicode="r" horiz-adv-x="345" 
d="M318 404q-12 2 -16 2h-10q-51 0 -90 -28t-57 -73v-305h-57v456h57v-65q8 12 21.5 24t32 22.5t41 17t49.5 6.5h9.5t19.5 -2v-55z" />
    <glyph glyph-name="s" unicode="s" horiz-adv-x="427" 
d="M82 95q57 -51 136 -51q17 0 35.5 4.5t34 14.5t25.5 25t10 36q0 22 -12 36t-31.5 24t-44.5 16.5t-50 13.5q-24 7 -46.5 15.5t-40 22t-28 33t-10.5 48.5q0 32 13.5 57t35.5 42t50.5 25.5t58.5 8.5q49 0 84 -14t61 -34l-31 -40q-29 19 -54 26.5t-60 7.5q-18 0 -36 -4.5
t-32.5 -14.5t-23.5 -24.5t-9 -34.5q0 -17 9 -28.5t24.5 -19.5t35.5 -14t42 -12q27 -7 54 -16t49 -24t35.5 -37t13.5 -56q0 -32 -13 -57.5t-35 -43t-51.5 -27t-62.5 -9.5q-49 0 -92 15.5t-81 49.5z" />
    <glyph glyph-name="t" unicode="t" horiz-adv-x="373" 
d="M347 23q-20 -15 -43.5 -24t-52.5 -9q-21 0 -41.5 7t-34.5 19q-21 17 -32 45.5t-11 73.5v267h-110v54h110v151h57v-151h138v-54h-138v-271q0 -29 5 -43.5t13 -23.5q18 -20 49 -20q19 0 35.5 7t29.5 15z" />
    <glyph glyph-name="u" unicode="u" horiz-adv-x="575" 
d="M432 62q-24 -32 -65 -52t-89 -20q-57 0 -101.5 25t-69.5 69q-13 23 -20 53t-7 76v243h57v-234q0 -48 7 -74t19 -44q18 -27 47.5 -43.5t67.5 -16.5q47 0 88 26t64 69v317h57v-456h-55v62z" />
    <glyph glyph-name="v" unicode="v" horiz-adv-x="507" 
d="M235 0l-211 456h61l169 -367l170 367h59l-211 -456h-37z" />
    <glyph glyph-name="w" unicode="w" horiz-adv-x="744" 
d="M229 0h-37l-165 456h58l127 -357l142 357h36l141 -357l127 357h59l-165 -456h-37l-143 361z" />
    <glyph glyph-name="x" unicode="x" horiz-adv-x="470" 
d="M234 201l-147 -201h-67l182 244l-157 212h67l124 -167l122 167h67l-157 -211l182 -245h-67z" />
    <glyph glyph-name="y" unicode="y" horiz-adv-x="527" 
d="M120 -240l124 265l-220 431h62l187 -368l171 368h60l-323 -696h-61z" />
    <glyph glyph-name="z" unicode="z" horiz-adv-x="477" 
d="M340 402h-279v54h365v-34l-305 -368h315v-54h-400v34z" />
    <glyph glyph-name="braceleft" unicode="{" horiz-adv-x="308" 
d="M120 230q24 -10 34 -33t10 -55q0 -57 -5.5 -117t-5.5 -109q0 -30 5 -49t19 -32t33.5 -17t59.5 -4h11v-51q-15 -3 -35 -3q-37 0 -62.5 10t-43.5 25q-44 38 -44 115q0 57 5 120t5 116q0 38 -18 52.5t-52 14.5v34q34 0 52 14.5t18 52.5q0 53 -5 116t-5 120q0 77 44 115
q18 15 43.5 25t62.5 10q20 0 35 -3v-51h-11q-40 0 -59.5 -4t-33.5 -17t-19 -32t-5 -49q0 -49 5.5 -109t5.5 -117q0 -32 -10 -55t-34 -33z" />
    <glyph glyph-name="bar" unicode="|" horiz-adv-x="257" 
d="M100 700h57v-940h-57v940z" />
    <glyph glyph-name="braceright" unicode="}" horiz-adv-x="308" 
d="M188 230q-24 10 -34 33t-10 55q0 57 5.5 117t5.5 109q0 30 -5 49t-19 32t-33.5 17t-59.5 4h-11v51q15 3 35 3q37 0 62.5 -10t43.5 -25q44 -38 44 -115q0 -57 -5 -120t-5 -116q0 -38 18 -52.5t52 -14.5v-34q-34 0 -52 -14.5t-18 -52.5q0 -53 5 -116t5 -120q0 -77 -44 -115
q-18 -15 -43.5 -25t-62.5 -10q-20 0 -35 3v51h11q40 0 59.5 4t33.5 17t19 32t5 49q0 49 -5.5 109t-5.5 117q0 32 10 55t34 33z" />
    <glyph glyph-name="asciitilde" unicode="~" horiz-adv-x="540" 
d="M50 219q14 50 44.5 79t77.5 29q31 0 57 -14t49 -30.5t44.5 -30t43.5 -13.5q32 0 49 23t28 54l47 -23q-14 -50 -44.5 -79t-77.5 -29q-31 0 -57 13.5t-49 30t-44.5 30.5t-43.5 14q-32 0 -49 -23t-28 -54z" />
    <glyph glyph-name="uni00A0" unicode="&#xa0;" horiz-adv-x="264" 
 />
    <glyph glyph-name="exclamdown" unicode="&#xa1;" horiz-adv-x="232" 
d="M98 250h37l10 -246v-244h-57v244zM64 414q0 22 15 37t37 15t37 -15t15 -37t-15 -37t-37 -15t-37 15t-15 37z" />
    <glyph glyph-name="cent" unicode="&#xa2;" horiz-adv-x="522" 
d="M289 258q48 0 86.5 20t69.5 55l39 -34q-31 -40 -75 -64.5t-95 -29.5v-91h-57v92q-47 6 -85 26.5t-65.5 52t-42.5 72t-15 85.5t15 85.5t42.5 72t66 52t84.5 26.5v92h57v-91q53 -5 91 -28.5t64 -50.5l-37 -36q-25 23 -58.5 42.5t-85.5 19.5q-39 0 -72.5 -14.5t-58 -39.5
t-38 -58.5t-13.5 -71.5t13.5 -71.5t38 -58.5t58 -39.5t73.5 -14.5z" />
    <glyph glyph-name="sterling" unicode="&#xa3;" horiz-adv-x="556" 
d="M130 316q-21 38 -38.5 80t-17.5 94q0 47 17 87.5t47 70t71.5 46t89.5 16.5q30 0 60.5 -8t59 -26t53.5 -48t42 -73l-51 -20q-23 55 -62 86.5t-102 31.5q-32 0 -61.5 -11.5t-52.5 -33t-37 -52t-14 -68.5q0 -49 18.5 -90.5t41.5 -81.5h200v-54h-173q9 -21 15 -42t6 -44
q0 -73 -53 -119h320v-57h-450v37q28 10 51.5 22t40 27.5t25.5 36t9 48.5q0 23 -7 45.5t-18 45.5h-101v54h71z" />
    <glyph glyph-name="currency" unicode="&#xa4;" horiz-adv-x="598" 
d="M103 351q0 33 11 63t30 55l-75 75l37 37l75 -75q25 19 55 30t63 11q34 0 64 -11t55 -30l74 75l37 -37l-74 -75q19 -25 29.5 -55t10.5 -63q0 -34 -10.5 -64t-29.5 -55l74 -74l-37 -37l-74 74q-25 -19 -55 -29.5t-64 -10.5q-33 0 -63 10.5t-55 29.5l-75 -74l-37 37l75 74
q-19 25 -30 55t-11 64zM160 351q0 -29 11 -54.5t29.5 -44t44 -29.5t54.5 -11t54.5 11t44 29.5t29.5 44t11 54.5t-11 54.5t-29.5 44t-44 29.5t-54.5 11t-54.5 -11t-44 -29.5t-29.5 -44t-11 -54.5z" />
    <glyph glyph-name="yen" unicode="&#xa5;" horiz-adv-x="606" 
d="M414 455h109v-54h-144l-46 -72v-29h190v-54h-190v-246h-60v246h-190v54h190v29l-47 72h-143v54h108l-158 245h68l203 -314l202 314h67z" />
    <glyph glyph-name="brokenbar" unicode="&#xa6;" horiz-adv-x="257" 
d="M100 150h57v-390h-57v390zM100 700h57v-390h-57v390z" />
    <glyph glyph-name="section" unicode="&#xa7;" horiz-adv-x="556" 
d="M223 371q-9 4 -18 7.5t-17 8.5q-38 -14 -65 -47.5t-27 -74.5q0 -28 10 -48.5t27 -36t40 -27.5t49 -22q27 -11 56 -21t56 -21q9 -4 17.5 -8t16.5 -9q19 7 36 19.5t29.5 28.5t20 35t7.5 40q0 30 -11.5 52t-31 38t-45.5 28t-55 23q-23 8 -47.5 16.5t-47.5 18.5zM265 -193
q28 0 54 8.5t45 23.5t30.5 37t11.5 49q0 34 -18.5 56.5t-48.5 39t-67 29t-74 27.5q-32 12 -61 27.5t-51.5 37.5t-36 51t-13.5 70q0 51 26.5 92t74.5 69q-21 20 -33.5 47t-12.5 64q0 39 15.5 71.5t42.5 55.5t63.5 35.5t77.5 12.5q34 0 61.5 -7t49.5 -17.5t39 -23t29 -22.5
l-36 -42q-32 26 -64 40.5t-77 14.5q-29 0 -54.5 -8.5t-44.5 -23.5t-30.5 -37t-11.5 -49q0 -32 16.5 -54t43.5 -38t61.5 -28.5t69.5 -25.5q34 -13 66.5 -28.5t57.5 -37.5t40 -52.5t15 -73.5q0 -51 -26.5 -92t-75.5 -69q22 -20 34.5 -47t12.5 -64q0 -39 -15.5 -71.5
t-42.5 -55.5t-63.5 -35.5t-77.5 -12.5q-33 0 -61 7t-50.5 17.5t-39 22.5t-28.5 23l36 42q32 -26 64 -40.5t77 -14.5z" />
    <glyph glyph-name="dieresis" unicode="&#xa8;" horiz-adv-x="404" 
d="M233 599q0 21 14.5 36t35.5 15t36 -15t15 -36t-15 -35.5t-36 -14.5t-35.5 14.5t-14.5 35.5zM70 599q0 21 14.5 36t35.5 15t36 -15t15 -36t-15 -35.5t-36 -14.5t-35.5 14.5t-14.5 35.5z" />
    <glyph glyph-name="copyright" unicode="&#xa9;" horiz-adv-x="850" 
d="M97 350q0 -68 26 -127.5t70.5 -104t104 -70.5t127.5 -26t127.5 26t104 70.5t70.5 104t26 127.5t-26 127.5t-70.5 104t-104 70.5t-127.5 26t-127.5 -26t-104 -70.5t-70.5 -104t-26 -127.5zM425 -25q-79 0 -147.5 29.5t-119 80.5t-79.5 119t-29 146t29 146t79.5 119
t119 80.5t147.5 29.5t147.5 -29.5t119 -80.5t79.5 -119t29 -146t-29 -146t-79.5 -119t-119 -80.5t-147.5 -29.5zM563 454q-27 26 -59.5 39.5t-71.5 13.5q-31 0 -58 -12t-47.5 -33t-32.5 -50t-12 -62q0 -32 11.5 -60.5t32 -49.5t48.5 -33.5t61 -12.5q43 0 75 15t61 46l29 -28
q-28 -35 -70 -56t-92 -21q-44 0 -81 15.5t-64 42.5t-42.5 63.5t-15.5 78.5q0 43 15 79.5t42 63.5t63.5 42.5t78.5 15.5t83.5 -17t72.5 -51z" />
    <glyph glyph-name="ordfeminine" unicode="&#xaa;" horiz-adv-x="426" 
d="M298 621q-16 18 -38.5 30.5t-51.5 12.5q-49 0 -78.5 -31.5t-29.5 -77.5t29.5 -77.5t78.5 -31.5q29 0 51.5 12.5t38.5 30.5v132zM207 400q-34 0 -62.5 12t-49.5 33t-32.5 49t-11.5 61t11.5 61t32.5 49t49.5 33t62.5 12q35 0 58 -13.5t33 -25.5v29h49v-290h-49v29
q-10 -12 -33 -25.5t-58 -13.5z" />
    <glyph glyph-name="guillemotleft" unicode="&#xab;" horiz-adv-x="528" 
d="M274 420l-159 -185l159 -185h-71l-159 185l159 185h71zM474 420l-159 -185l159 -185h-71l-159 185l159 185h71z" />
    <glyph glyph-name="logicalnot" unicode="&#xac;" horiz-adv-x="540" 
d="M422 317h-366v54h420v-230h-54v176z" />
    <glyph glyph-name="uni00AD" unicode="&#xad;" horiz-adv-x="404" 
d="M332 274v-49h-260v49h260z" />
    <glyph glyph-name="registered" unicode="&#xae;" horiz-adv-x="850" 
d="M537 159l-129 188h-50v-188h-47v383h132q35 0 55 -7.5t34 -21.5q29 -29 29 -69q0 -41 -29 -70q-12 -12 -27.5 -18.5t-41.5 -8.5l127 -188h-53zM440 390q28 0 40.5 5t20.5 14q13 15 13 35t-13 35q-8 9 -20.5 14t-40.5 5h-82v-108h82zM425 -25q-78 0 -146 29.5t-119 80.5
t-80.5 119t-29.5 146t29.5 146t80.5 119t119 80.5t146 29.5t146 -29.5t119 -80.5t80.5 -119t29.5 -146t-29.5 -146t-80.5 -119t-119 -80.5t-146 -29.5zM97 350q0 -68 26 -127.5t70.5 -104t104 -70.5t127.5 -26t127.5 26t104 70.5t70.5 104t26 127.5t-26 127.5t-70.5 104
t-104 70.5t-127.5 26t-127.5 -26t-104 -70.5t-70.5 -104t-26 -127.5z" />
    <glyph glyph-name="macron" unicode="&#xaf;" horiz-adv-x="420" 
d="M350 619v-50h-280v50h280z" />
    <glyph glyph-name="degree" unicode="&#xb0;" horiz-adv-x="412" 
d="M51 555q0 32 12 60.5t33 49.5t49.5 33t60.5 12t60.5 -12t49.5 -33t33 -49.5t12 -60.5t-12 -60.5t-33 -49.5t-49.5 -33t-60.5 -12t-60.5 12t-49.5 33t-33 49.5t-12 60.5zM102 555q0 -21 8 -40t22 -33t33 -22t40 -8t40 8t33.5 22t22.5 33t8 40t-8 40t-22.5 33.5t-33.5 22.5
t-40 8t-40 -8t-33 -22.5t-22 -33.5t-8 -40z" />
    <glyph glyph-name="plusminus" unicode="&#xb1;" horiz-adv-x="540" 
d="M297 271v-161h-54v161h-183v54h183v161h54v-161h183v-54h-183zM60 26v54h420v-54h-420z" />
    <glyph glyph-name="twosuperior" unicode="&#xb2;" horiz-adv-x="313" 
d="M33 603q5 22 15 41.5t25 34t35.5 23t46.5 8.5q25 0 46.5 -9t37.5 -24.5t25 -37.5t9 -47q0 -38 -19.5 -69.5t-55.5 -64.5l-78 -72h153v-46h-235v30l129 122q26 25 41 48t15 52t-18.5 50.5t-50.5 21.5t-51 -21.5t-25 -51.5z" />
    <glyph glyph-name="threesuperior" unicode="&#xb3;" horiz-adv-x="309" 
d="M63 422q14 -20 33 -33.5t48 -13.5q32 0 55 23t23 57q0 38 -22.5 58t-56.5 21q-11 0 -22 -1.5t-22 -5.5v30l86 98h-138v45h210v-30l-85 -97q19 -2 37 -11t32 -24t22.5 -35.5t8.5 -46.5q0 -25 -9 -47.5t-26 -40t-40.5 -28t-52.5 -10.5q-40 0 -70 19t-47 48z" />
    <glyph glyph-name="acute" unicode="&#xb4;" horiz-adv-x="280" 
d="M210 674l-95 -140h-45l65 140h75z" />
    <glyph glyph-name="mu" unicode="&#xb5;" horiz-adv-x="591" 
d="M290 -10q-43 0 -79.5 16.5t-61.5 48.5v-295h-57v696h57v-234q0 -48 7 -74t19 -44q18 -27 47.5 -43.5t67.5 -16.5q47 0 88 26t64 69v317h57v-456h-55v62q-24 -32 -65 -52t-89 -20z" />
    <glyph glyph-name="paragraph" unicode="&#xb6;" horiz-adv-x="647" 
d="M606 700v-54h-100v-886h-57v886h-146v-886h-57v510q-45 0 -84 17t-68 46t-46 68t-17 84q0 35 11 67t30 58.5t45.5 46.5t58.5 31q17 6 36.5 9t53.5 3h340zM88 485q0 -33 12.5 -62.5t33.5 -51.5t50 -34.5t62 -12.5v322q-33 0 -62 -12.5t-50 -34.5t-33.5 -51.5t-12.5 -62.5z
" />
    <glyph glyph-name="periodcentered" unicode="&#xb7;" horiz-adv-x="250" 
d="M73 228q0 22 15 37t37 15t37 -15t15 -37t-15 -37t-37 -15t-37 15t-15 37z" />
    <glyph glyph-name="cedilla" unicode="&#xb8;" horiz-adv-x="240" 
d="M125 10h45l-25 -150h-75z" />
    <glyph glyph-name="onesuperior" unicode="&#xb9;" horiz-adv-x="223" 
d="M22 600v50l95 50h30v-360h-50v300z" />
    <glyph glyph-name="ordmasculine" unicode="&#xba;" horiz-adv-x="409" 
d="M52 555q0 32 11 60t31.5 49t48.5 33.5t62 12.5t62 -12.5t48 -33.5t31.5 -49t11.5 -60t-11.5 -60t-31.5 -49t-48 -33.5t-62 -12.5t-62 12.5t-48.5 33.5t-31.5 49t-11 60zM101 555q0 -22 8 -42t22 -35t33 -23.5t41 -8.5t41 8.5t33 23.5t22 35t8 42t-8 42t-22 35t-33 23.5
t-41 8.5q-23 0 -42 -8.5t-33 -23.5t-21.5 -35t-7.5 -42z" />
    <glyph glyph-name="guillemotright" unicode="&#xbb;" horiz-adv-x="528" 
d="M325 420l159 -185l-159 -185h-71l159 185l-159 185h71zM125 420l159 -185l-159 -185h-71l159 185l-159 185h71z" />
    <glyph glyph-name="onequarter" unicode="&#xbc;" horiz-adv-x="615" 
d="M44 600v50l95 50h30v-360h-50v300zM59 0l408 700h52l-408 -700h-52zM294 115l195 245h30v-231h60v-44h-60v-85h-49v85h-176v30zM470 129v137l-109 -137h109z" />
    <glyph glyph-name="onehalf" unicode="&#xbd;" horiz-adv-x="644" 
d="M42 600v50l95 50h30v-360h-50v300zM57 0l408 700h52l-408 -700h-52zM362 263q5 22 15 41.5t25 34t35.5 23t46.5 8.5q25 0 46.5 -9t37.5 -24.5t25 -37.5t9 -47q0 -38 -19.5 -69.5t-55.5 -64.5l-78 -72h153v-46h-235v30l129 122q26 25 41 48t15 52t-18.5 50.5t-50.5 21.5
t-51 -21.5t-25 -51.5z" />
    <glyph glyph-name="threequarters" unicode="&#xbe;" horiz-adv-x="686" 
d="M71 422q14 -20 33 -33.5t48 -13.5q32 0 55 23t23 57q0 38 -22.5 58t-56.5 21q-11 0 -22 -1.5t-22 -5.5v30l86 98h-138v45h210v-30l-85 -97q19 -2 37 -11t32 -24t22.5 -35.5t8.5 -46.5q0 -25 -9 -47.5t-26 -40t-40.5 -28t-52.5 -10.5q-40 0 -70 19t-47 48zM130 0l408 700
h52l-408 -700h-52zM365 115l195 245h30v-231h60v-44h-60v-85h-49v85h-176v30zM541 129v137l-109 -137h109z" />
    <glyph glyph-name="questiondown" unicode="&#xbf;" horiz-adv-x="459" 
d="M431 -115q-9 -32 -28 -57t-45 -42t-58 -26.5t-66 -9.5q-44 0 -80.5 14.5t-62.5 39t-40.5 57t-14.5 69.5q0 36 12.5 64t32.5 50t43.5 39t46.5 32q30 20 51 37t21 37q0 15 -10 28t-22 26l40 37q26 -23 37.5 -44.5t11.5 -42.5t-7.5 -37.5t-20.5 -30t-29 -25.5t-34 -24
q-21 -14 -41.5 -28t-37 -31t-27 -38t-10.5 -49q0 -26 10 -49t28.5 -40t44.5 -27t58 -10q48 0 89 24t59 75zM298 414q0 -22 -15 -37t-37 -15t-37 15t-15 37t15 37t37 15t37 -15t15 -37z" />
    <glyph glyph-name="Agrave" unicode="&#xc0;" horiz-adv-x="670" 
d="M355 700l302 -700h-61l-91 211h-342l-91 -211h-59l302 700h40zM188 268h292l-146 340zM290 903l65 -140h-45l-95 140h75z" />
    <glyph glyph-name="Aacute" unicode="&#xc1;" horiz-adv-x="670" 
d="M355 700l302 -700h-61l-91 211h-342l-91 -211h-59l302 700h40zM188 268h292l-146 340zM457 903l-96 -140h-46l66 140h76z" />
    <glyph glyph-name="Acircumflex" unicode="&#xc2;" horiz-adv-x="670" 
d="M355 700l302 -700h-61l-91 211h-342l-91 -211h-59l302 700h40zM188 268h292l-146 340zM250 763h-45l95 140h70l95 -140h-45l-85 94z" />
    <glyph glyph-name="Atilde" unicode="&#xc3;" horiz-adv-x="670" 
d="M355 700l302 -700h-61l-91 211h-342l-91 -211h-59l302 700h40zM188 268h292l-146 340zM198 796q0 15 5 30t14 27t23 19.5t32 7.5q19 0 35.5 -7t31.5 -15.5t29 -15.5t28 -7q16 0 25 10.5t11 34.5l40 -11q0 -15 -5 -30t-14 -27t-23 -19.5t-32 -7.5q-19 0 -35.5 7
t-31.5 15.5t-29 15.5t-28 7q-16 0 -25 -10.5t-11 -34.5z" />
    <glyph glyph-name="Adieresis" unicode="&#xc4;" horiz-adv-x="670" 
d="M355 700l302 -700h-61l-91 211h-342l-91 -211h-59l302 700h40zM188 268h292l-146 340zM366 828q0 21 14.5 36t35.5 15t36 -15t15 -36t-15 -35.5t-36 -14.5t-35.5 14.5t-14.5 35.5zM203 828q0 21 14.5 36t35.5 15t36 -15t15 -36t-15 -35.5t-36 -14.5t-35.5 14.5
t-14.5 35.5z" />
    <glyph glyph-name="Aring" unicode="&#xc5;" horiz-adv-x="670" 
d="M355 700l302 -700h-61l-91 211h-342l-91 -211h-59l302 700h40zM188 268h292l-146 340zM245 851q0 38 26 64t64 26t64 -26t26 -64t-26 -64t-64 -26t-64 26t-26 64zM285 851q0 -21 14.5 -35.5t35.5 -14.5t35.5 14.5t14.5 35.5t-14.5 35.5t-35.5 14.5t-35.5 -14.5
t-14.5 -35.5z" />
    <glyph glyph-name="AE" unicode="&#xc6;" horiz-adv-x="894" 
d="M516 643v-228h250v-57h-250v-301h330v-57h-390v211h-267l-127 -211h-66l418 700h422v-57h-320zM456 268v392l-233 -392h233z" />
    <glyph glyph-name="Ccedilla" unicode="&#xc7;" horiz-adv-x="705" 
d="M682 119q-45 -57 -115 -92t-149 -37l-21 -130h-75l48 132q-70 7 -128.5 36.5t-100.5 77t-65.5 110t-23.5 134.5q0 76 26.5 141.5t73.5 114t111 76.5t140 28q75 0 141.5 -28t112.5 -79l-39 -39q-38 38 -93.5 63.5t-121.5 25.5q-63 0 -116.5 -23.5t-92 -65t-60.5 -96.5
t-22 -118q0 -64 22 -119t61.5 -96t94 -64.5t119.5 -23.5q72 0 131 29.5t100 77.5z" />
    <glyph glyph-name="Egrave" unicode="&#xc8;" horiz-adv-x="539" 
d="M161 643v-228h250v-57h-250v-301h330v-57h-390v700h380v-57h-320zM271 903l65 -140h-45l-95 140h75z" />
    <glyph glyph-name="Eacute" unicode="&#xc9;" horiz-adv-x="539" 
d="M161 643v-228h250v-57h-250v-301h330v-57h-390v700h380v-57h-320zM396 903l-96 -140h-46l66 140h76z" />
    <glyph glyph-name="Ecircumflex" unicode="&#xca;" horiz-adv-x="539" 
d="M161 643v-228h250v-57h-250v-301h330v-57h-390v700h380v-57h-320zM211 763h-45l95 140h70l95 -140h-45l-85 94z" />
    <glyph glyph-name="Edieresis" unicode="&#xcb;" horiz-adv-x="539" 
d="M161 643v-228h250v-57h-250v-301h330v-57h-390v700h380v-57h-320zM327 828q0 21 14.5 36t35.5 15t36 -15t15 -36t-15 -35.5t-36 -14.5t-35.5 14.5t-14.5 35.5zM164 828q0 21 14.5 36t35.5 15t36 -15t15 -36t-15 -35.5t-36 -14.5t-35.5 14.5t-14.5 35.5z" />
    <glyph glyph-name="Igrave" unicode="&#xcc;" horiz-adv-x="262" 
d="M101 700h60v-700h-60v700zM86 903l65 -140h-45l-95 140h75z" />
    <glyph glyph-name="Iacute" unicode="&#xcd;" horiz-adv-x="262" 
d="M101 700h60v-700h-60v700zM253 903l-96 -140h-46l66 140h76z" />
    <glyph glyph-name="Icircumflex" unicode="&#xce;" horiz-adv-x="262" 
d="M101 700h60v-700h-60v700zM46 763h-45l95 140h70l95 -140h-45l-85 94z" />
    <glyph glyph-name="Idieresis" unicode="&#xcf;" horiz-adv-x="262" 
d="M101 700h60v-700h-60v700zM162 828q0 21 14.5 36t35.5 15t36 -15t15 -36t-15 -35.5t-36 -14.5t-35.5 14.5t-14.5 35.5zM-1 828q0 21 14.5 36t35.5 15t36 -15t15 -36t-15 -35.5t-36 -14.5t-35.5 14.5t-14.5 35.5z" />
    <glyph glyph-name="Eth" unicode="&#xd0;" horiz-adv-x="759" 
d="M17 415h100v285h210q84 0 141 -17t100 -49q65 -48 102 -122t37 -162t-37 -162t-102 -122q-43 -32 -100 -49t-141 -17h-210v358h-100v57zM647 350q0 71 -29 132t-81 102q-38 29 -88.5 44t-124.5 15h-147v-228h200v-57h-200v-301h147q74 0 124.5 15t88.5 44q52 41 81 102
t29 132z" />
    <glyph glyph-name="Ntilde" unicode="&#xd1;" horiz-adv-x="772" 
d="M101 700h40l470 -583v583h60v-700h-40l-470 583v-583h-60v700zM249 796q0 15 5 30t14 27t23 19.5t32 7.5q19 0 35.5 -7t31.5 -15.5t29 -15.5t28 -7q16 0 25 10.5t11 34.5l40 -11q0 -15 -5 -30t-14 -27t-23 -19.5t-32 -7.5q-19 0 -35.5 7t-31.5 15.5t-29 15.5t-28 7
q-16 0 -25 -10.5t-11 -34.5z" />
    <glyph glyph-name="Ograve" unicode="&#xd2;" horiz-adv-x="800" 
d="M52 350q0 76 26.5 142t73 114.5t110.5 76t138 27.5t138 -27.5t110.5 -76t73 -114.5t26.5 -142q0 -77 -26.5 -142.5t-73 -114t-110.5 -76t-138 -27.5t-138 27.5t-110.5 76t-73 114t-26.5 142.5zM112 350q0 -62 21 -117.5t59.5 -96.5t91.5 -65t116 -24t116 24t91.5 65
t59.5 96.5t21 117.5t-21 117t-59.5 96.5t-91.5 65.5t-116 24t-116 -24t-91.5 -65.5t-59.5 -96.5t-21 -117zM375 903l65 -140h-45l-95 140h75z" />
    <glyph glyph-name="Oacute" unicode="&#xd3;" horiz-adv-x="800" 
d="M52 350q0 76 26.5 142t73 114.5t110.5 76t138 27.5t138 -27.5t110.5 -76t73 -114.5t26.5 -142q0 -77 -26.5 -142.5t-73 -114t-110.5 -76t-138 -27.5t-138 27.5t-110.5 76t-73 114t-26.5 142.5zM112 350q0 -62 21 -117.5t59.5 -96.5t91.5 -65t116 -24t116 24t91.5 65
t59.5 96.5t21 117.5t-21 117t-59.5 96.5t-91.5 65.5t-116 24t-116 -24t-91.5 -65.5t-59.5 -96.5t-21 -117zM501 903l-96 -140h-46l66 140h76z" />
    <glyph glyph-name="Ocircumflex" unicode="&#xd4;" horiz-adv-x="800" 
d="M52 350q0 76 26.5 142t73 114.5t110.5 76t138 27.5t138 -27.5t110.5 -76t73 -114.5t26.5 -142q0 -77 -26.5 -142.5t-73 -114t-110.5 -76t-138 -27.5t-138 27.5t-110.5 76t-73 114t-26.5 142.5zM112 350q0 -62 21 -117.5t59.5 -96.5t91.5 -65t116 -24t116 24t91.5 65
t59.5 96.5t21 117.5t-21 117t-59.5 96.5t-91.5 65.5t-116 24t-116 -24t-91.5 -65.5t-59.5 -96.5t-21 -117zM315 763h-45l95 140h70l95 -140h-45l-85 94z" />
    <glyph glyph-name="Otilde" unicode="&#xd5;" horiz-adv-x="800" 
d="M52 350q0 76 26.5 142t73 114.5t110.5 76t138 27.5t138 -27.5t110.5 -76t73 -114.5t26.5 -142q0 -77 -26.5 -142.5t-73 -114t-110.5 -76t-138 -27.5t-138 27.5t-110.5 76t-73 114t-26.5 142.5zM112 350q0 -62 21 -117.5t59.5 -96.5t91.5 -65t116 -24t116 24t91.5 65
t59.5 96.5t21 117.5t-21 117t-59.5 96.5t-91.5 65.5t-116 24t-116 -24t-91.5 -65.5t-59.5 -96.5t-21 -117zM263 796q0 15 5 30t14 27t23 19.5t32 7.5q19 0 35.5 -7t31.5 -15.5t29 -15.5t28 -7q16 0 25 10.5t11 34.5l40 -11q0 -15 -5 -30t-14 -27t-23 -19.5t-32 -7.5
q-19 0 -35.5 7t-31.5 15.5t-29 15.5t-28 7q-16 0 -25 -10.5t-11 -34.5z" />
    <glyph glyph-name="Odieresis" unicode="&#xd6;" horiz-adv-x="800" 
d="M52 350q0 76 26.5 142t73 114.5t110.5 76t138 27.5t138 -27.5t110.5 -76t73 -114.5t26.5 -142q0 -77 -26.5 -142.5t-73 -114t-110.5 -76t-138 -27.5t-138 27.5t-110.5 76t-73 114t-26.5 142.5zM112 350q0 -62 21 -117.5t59.5 -96.5t91.5 -65t116 -24t116 24t91.5 65
t59.5 96.5t21 117.5t-21 117t-59.5 96.5t-91.5 65.5t-116 24t-116 -24t-91.5 -65.5t-59.5 -96.5t-21 -117zM431 828q0 21 14.5 36t35.5 15t36 -15t15 -36t-15 -35.5t-36 -14.5t-35.5 14.5t-14.5 35.5zM268 828q0 21 14.5 36t35.5 15t36 -15t15 -36t-15 -35.5t-36 -14.5
t-35.5 14.5t-14.5 35.5z" />
    <glyph glyph-name="multiply" unicode="&#xd7;" horiz-adv-x="540" 
d="M270 218l-151 -151l-38 38l151 151l-151 151l38 38l151 -151l151 151l38 -38l-151 -151l151 -151l-38 -38z" />
    <glyph glyph-name="Oslash" unicode="&#xd8;" horiz-adv-x="800" 
d="M400 -10q-51 0 -97.5 13.5t-85.5 37.5l-29 -41h-66l52 73q-57 49 -89.5 120.5t-32.5 156.5q0 76 26.5 142t73 114.5t110.5 76t138 27.5q51 0 97.5 -13.5t85.5 -37.5l29 41h66l-52 -73q57 -49 89.5 -120.5t32.5 -156.5q0 -77 -26.5 -142.5t-73 -114t-110.5 -76t-138 -27.5
zM688 350q0 69 -25.5 127.5t-70.5 100.5l-343 -489q32 -20 70 -31t81 -11q63 0 116 24t91.5 65t59.5 96.5t21 117.5zM112 350q0 -69 25 -127.5t70 -100.5l343 489q-32 20 -70 31t-80 11q-63 0 -116 -24t-91.5 -65.5t-59.5 -96.5t-21 -117z" />
    <glyph glyph-name="Ugrave" unicode="&#xd9;" horiz-adv-x="744" 
d="M372 -10q-76 0 -139 34.5t-100 92.5q-20 31 -30.5 69t-10.5 94v420h60v-423q0 -46 8 -76t23 -54q29 -46 79 -73t110 -27t110 27t79 73q15 24 23 54t8 76v423h60v-420q0 -56 -10.5 -94t-30.5 -69q-37 -58 -100 -92.5t-139 -34.5zM347 903l65 -140h-45l-95 140h75z" />
    <glyph glyph-name="Uacute" unicode="&#xda;" horiz-adv-x="744" 
d="M372 -10q-76 0 -139 34.5t-100 92.5q-20 31 -30.5 69t-10.5 94v420h60v-423q0 -46 8 -76t23 -54q29 -46 79 -73t110 -27t110 27t79 73q15 24 23 54t8 76v423h60v-420q0 -56 -10.5 -94t-30.5 -69q-37 -58 -100 -92.5t-139 -34.5zM473 903l-96 -140h-46l66 140h76z" />
    <glyph glyph-name="Ucircumflex" unicode="&#xdb;" horiz-adv-x="744" 
d="M372 -10q-76 0 -139 34.5t-100 92.5q-20 31 -30.5 69t-10.5 94v420h60v-423q0 -46 8 -76t23 -54q29 -46 79 -73t110 -27t110 27t79 73q15 24 23 54t8 76v423h60v-420q0 -56 -10.5 -94t-30.5 -69q-37 -58 -100 -92.5t-139 -34.5zM287 763h-45l95 140h70l95 -140h-45
l-85 94z" />
    <glyph glyph-name="Udieresis" unicode="&#xdc;" horiz-adv-x="744" 
d="M372 -10q-76 0 -139 34.5t-100 92.5q-20 31 -30.5 69t-10.5 94v420h60v-423q0 -46 8 -76t23 -54q29 -46 79 -73t110 -27t110 27t79 73q15 24 23 54t8 76v423h60v-420q0 -56 -10.5 -94t-30.5 -69q-37 -58 -100 -92.5t-139 -34.5zM403 828q0 21 14.5 36t35.5 15t36 -15
t15 -36t-15 -35.5t-36 -14.5t-35.5 14.5t-14.5 35.5zM240 828q0 21 14.5 36t35.5 15t36 -15t15 -36t-15 -35.5t-36 -14.5t-35.5 14.5t-14.5 35.5z" />
    <glyph glyph-name="Yacute" unicode="&#xdd;" horiz-adv-x="600" 
d="M330 329v-329h-60v329l-240 371h68l203 -314l202 314h67zM400 903l-96 -140h-46l66 140h76z" />
    <glyph glyph-name="Thorn" unicode="&#xde;" horiz-adv-x="593" 
d="M161 700v-132h199q48 0 81 -11t56 -31q29 -25 46.5 -61t17.5 -78t-17.5 -78t-46.5 -61q-23 -20 -56 -31t-81 -11h-199v-206h-60v700h60zM357 263q41 0 66 10t42 27t26.5 39t9.5 48t-9.5 48t-26.5 39t-42 27t-66 10h-196v-248h196z" />
    <glyph glyph-name="germandbls" unicode="&#xdf;" horiz-adv-x="579" 
d="M228 64q37 -20 84 -20q34 0 63 12.5t50.5 33.5t33.5 50t12 62q0 40 -17 73t-46 55q-20 14 -46.5 22.5t-69.5 8.5h-39v54h22q62 0 96.5 36t34.5 89q0 26 -9 49t-26 40t-41 27t-55 10q-33 0 -58.5 -11t-42.5 -31q-14 -17 -21.5 -42t-7.5 -72v-510h-57v510q0 59 12 94.5
t35 59.5q25 26 60 41t80 15q43 0 77.5 -14t59 -38.5t38 -57.5t13.5 -70q0 -43 -16.5 -79t-48.5 -61q60 -24 95 -77.5t35 -120.5q0 -44 -16 -83t-44.5 -67.5t-67.5 -45t-85 -16.5q-32 0 -62.5 7.5t-53.5 23.5z" />
    <glyph glyph-name="agrave" unicode="&#xe0;" horiz-adv-x="592" 
d="M449 0v67q-26 -35 -68 -56t-96 -21q-32 0 -67 9.5t-69 33.5q-45 32 -71 82.5t-26 112.5q0 57 23 105.5t62 81.5q29 23 66 37t79 14q50 0 93 -19t74 -54v63h55v-456h-55zM447 320q-8 13 -22.5 29t-35.5 30t-48 23.5t-58 9.5q-29 0 -57.5 -9.5t-52.5 -29.5
q-30 -25 -47 -62.5t-17 -82.5q0 -48 19.5 -87.5t52.5 -62.5q22 -15 48 -24.5t55 -9.5q51 0 93.5 26.5t69.5 73.5v176zM283 674l65 -140h-45l-95 140h75z" />
    <glyph glyph-name="aacute" unicode="&#xe1;" horiz-adv-x="592" 
d="M449 0v67q-26 -35 -68 -56t-96 -21q-32 0 -67 9.5t-69 33.5q-45 32 -71 82.5t-26 112.5q0 57 23 105.5t62 81.5q29 23 66 37t79 14q50 0 93 -19t74 -54v63h55v-456h-55zM447 320q-8 13 -22.5 29t-35.5 30t-48 23.5t-58 9.5q-29 0 -57.5 -9.5t-52.5 -29.5
q-30 -25 -47 -62.5t-17 -82.5q0 -48 19.5 -87.5t52.5 -62.5q22 -15 48 -24.5t55 -9.5q51 0 93.5 26.5t69.5 73.5v176zM387 674l-95 -140h-45l65 140h75z" />
    <glyph glyph-name="acircumflex" unicode="&#xe2;" horiz-adv-x="592" 
d="M449 0v67q-26 -35 -68 -56t-96 -21q-32 0 -67 9.5t-69 33.5q-45 32 -71 82.5t-26 112.5q0 57 23 105.5t62 81.5q29 23 66 37t79 14q50 0 93 -19t74 -54v63h55v-456h-55zM447 320q-8 13 -22.5 29t-35.5 30t-48 23.5t-58 9.5q-29 0 -57.5 -9.5t-52.5 -29.5
q-30 -25 -47 -62.5t-17 -82.5q0 -48 19.5 -87.5t52.5 -62.5q22 -15 48 -24.5t55 -9.5q51 0 93.5 26.5t69.5 73.5v176zM212 534h-45l95 140h70l95 -140h-45l-85 94z" />
    <glyph glyph-name="atilde" unicode="&#xe3;" horiz-adv-x="592" 
d="M449 0v67q-26 -35 -68 -56t-96 -21q-32 0 -67 9.5t-69 33.5q-45 32 -71 82.5t-26 112.5q0 57 23 105.5t62 81.5q29 23 66 37t79 14q50 0 93 -19t74 -54v63h55v-456h-55zM447 320q-8 13 -22.5 29t-35.5 30t-48 23.5t-58 9.5q-29 0 -57.5 -9.5t-52.5 -29.5
q-30 -25 -47 -62.5t-17 -82.5q0 -48 19.5 -87.5t52.5 -62.5q22 -15 48 -24.5t55 -9.5q51 0 93.5 26.5t69.5 73.5v176zM160 568q0 15 5 30t14 27t23 19.5t32 7.5q19 0 35.5 -7t31.5 -15.5t29 -15.5t28 -7q16 0 25 10.5t11 34.5l40 -11q0 -15 -5 -30t-14 -27t-23 -19.5
t-32 -7.5q-19 0 -35.5 7t-31.5 15.5t-29 15.5t-28 7q-16 0 -25 -10.5t-11 -34.5z" />
    <glyph glyph-name="adieresis" unicode="&#xe4;" horiz-adv-x="592" 
d="M449 0v67q-26 -35 -68 -56t-96 -21q-32 0 -67 9.5t-69 33.5q-45 32 -71 82.5t-26 112.5q0 57 23 105.5t62 81.5q29 23 66 37t79 14q50 0 93 -19t74 -54v63h55v-456h-55zM447 320q-8 13 -22.5 29t-35.5 30t-48 23.5t-58 9.5q-29 0 -57.5 -9.5t-52.5 -29.5
q-30 -25 -47 -62.5t-17 -82.5q0 -48 19.5 -87.5t52.5 -62.5q22 -15 48 -24.5t55 -9.5q51 0 93.5 26.5t69.5 73.5v176zM328 599q0 21 14.5 36t35.5 15t36 -15t15 -36t-15 -35.5t-36 -14.5t-35.5 14.5t-14.5 35.5zM165 599q0 21 14.5 36t35.5 15t36 -15t15 -36t-15 -35.5
t-36 -14.5t-35.5 14.5t-14.5 35.5z" />
    <glyph glyph-name="aring" unicode="&#xe5;" horiz-adv-x="592" 
d="M449 0v67q-26 -35 -68 -56t-96 -21q-32 0 -67 9.5t-69 33.5q-45 32 -71 82.5t-26 112.5q0 57 23 105.5t62 81.5q29 23 66 37t79 14q50 0 93 -19t74 -54v63h55v-456h-55zM447 320q-8 13 -22.5 29t-35.5 30t-48 23.5t-58 9.5q-29 0 -57.5 -9.5t-52.5 -29.5
q-30 -25 -47 -62.5t-17 -82.5q0 -48 19.5 -87.5t52.5 -62.5q22 -15 48 -24.5t55 -9.5q51 0 93.5 26.5t69.5 73.5v176zM207 622q0 38 26 64t64 26t64 -26t26 -64t-26 -64t-64 -26t-64 26t-26 64zM247 622q0 -21 14.5 -35.5t35.5 -14.5t35.5 14.5t14.5 35.5t-14.5 35.5
t-35.5 14.5t-35.5 -14.5t-14.5 -35.5z" />
    <glyph glyph-name="ae" unicode="&#xe6;" horiz-adv-x="813" 
d="M233 466q25 0 50.5 -6t48 -18.5t40.5 -31t29 -43.5q26 45 68.5 72t94.5 27q43 0 80 -17.5t63.5 -47.5t41.5 -70.5t15 -87.5v-8t-1 -12h-344q1 -38 12 -70.5t31.5 -56.5t49.5 -38t67 -14q44 0 74.5 16.5t59.5 48.5l37 -35q-31 -38 -73 -61t-96 -23q-58 0 -104.5 26
t-78.5 79q-39 -59 -87.5 -82t-97.5 -23q-38 0 -68.5 12t-52.5 32t-34 47t-12 56q0 39 16.5 68t43.5 48t60 28.5t66 9.5q26 0 48 -4t39.5 -9.5t29 -10.5t15.5 -8v7q0 36 -6.5 58t-18.5 38q-19 25 -46.5 37.5t-59.5 12.5q-42 0 -75 -14t-55 -30l-31 42q22 19 63 37.5t98 18.5z
M215 44q30 0 55.5 9.5t46 24.5t35 33.5t23.5 36.5q-3 12 -5.5 24.5t-3.5 25.5q-20 15 -54 27t-73 12q-57 0 -96.5 -26t-39.5 -74q0 -19 8 -36t23 -29.5t35.5 -20t45.5 -7.5zM564 412q-57 0 -94 -38.5t-50 -98.5h285q-3 31 -15 56t-31 43t-43.5 28t-51.5 10z" />
    <glyph glyph-name="ccedilla" unicode="&#xe7;" horiz-adv-x="520" 
d="M263 -8q-47 4 -86 24.5t-67 52t-43.5 72.5t-15.5 87q0 49 18 92.5t49.5 75.5t75.5 51t96 19q63 0 107.5 -24.5t73.5 -55.5l-37 -36q-25 23 -58.5 42.5t-85.5 19.5q-39 0 -72.5 -14.5t-58 -39.5t-38 -58.5t-13.5 -71.5t13.5 -71.5t38 -58.5t58 -39.5t73.5 -14.5
q48 0 86.5 20t69.5 55l39 -34q-32 -41 -76.5 -65t-97.5 -29l-22 -131h-75z" />
    <glyph glyph-name="egrave" unicode="&#xe8;" horiz-adv-x="531" 
d="M271 412q-30 0 -56 -10.5t-46.5 -28.5t-34.5 -43t-20 -55h310q-5 30 -18 55t-33.5 43.5t-46 28.5t-55.5 10zM468 74q-35 -41 -84 -62.5t-101 -21.5t-94.5 17.5t-72.5 49t-46.5 75t-16.5 96.5q0 49 16 92.5t44.5 75.5t69 51t88.5 19q46 0 84.5 -17t67 -47t44.5 -70.5
t16 -88.5v-8t-1 -12h-372q1 -38 12 -70.5t33 -56.5t55 -38t78 -14q43 0 80 19t64 48zM257 674l65 -140h-45l-95 140h75z" />
    <glyph glyph-name="eacute" unicode="&#xe9;" horiz-adv-x="531" 
d="M271 412q-30 0 -56 -10.5t-46.5 -28.5t-34.5 -43t-20 -55h310q-5 30 -18 55t-33.5 43.5t-46 28.5t-55.5 10zM468 74q-35 -41 -84 -62.5t-101 -21.5t-94.5 17.5t-72.5 49t-46.5 75t-16.5 96.5q0 49 16 92.5t44.5 75.5t69 51t88.5 19q46 0 84.5 -17t67 -47t44.5 -70.5
t16 -88.5v-8t-1 -12h-372q1 -38 12 -70.5t33 -56.5t55 -38t78 -14q43 0 80 19t64 48zM361 674l-95 -140h-45l65 140h75z" />
    <glyph glyph-name="ecircumflex" unicode="&#xea;" horiz-adv-x="531" 
d="M271 412q-30 0 -56 -10.5t-46.5 -28.5t-34.5 -43t-20 -55h310q-5 30 -18 55t-33.5 43.5t-46 28.5t-55.5 10zM468 74q-35 -41 -84 -62.5t-101 -21.5t-94.5 17.5t-72.5 49t-46.5 75t-16.5 96.5q0 49 16 92.5t44.5 75.5t69 51t88.5 19q46 0 84.5 -17t67 -47t44.5 -70.5
t16 -88.5v-8t-1 -12h-372q1 -38 12 -70.5t33 -56.5t55 -38t78 -14q43 0 80 19t64 48zM186 534h-45l95 140h70l95 -140h-45l-85 94z" />
    <glyph glyph-name="edieresis" unicode="&#xeb;" horiz-adv-x="531" 
d="M271 412q-30 0 -56 -10.5t-46.5 -28.5t-34.5 -43t-20 -55h310q-5 30 -18 55t-33.5 43.5t-46 28.5t-55.5 10zM468 74q-35 -41 -84 -62.5t-101 -21.5t-94.5 17.5t-72.5 49t-46.5 75t-16.5 96.5q0 49 16 92.5t44.5 75.5t69 51t88.5 19q46 0 84.5 -17t67 -47t44.5 -70.5
t16 -88.5v-8t-1 -12h-372q1 -38 12 -70.5t33 -56.5t55 -38t78 -14q43 0 80 19t64 48zM302 599q0 21 14.5 36t35.5 15t36 -15t15 -36t-15 -35.5t-36 -14.5t-35.5 14.5t-14.5 35.5zM139 599q0 21 14.5 36t35.5 15t36 -15t15 -36t-15 -35.5t-36 -14.5t-35.5 14.5t-14.5 35.5z
" />
    <glyph glyph-name="igrave" unicode="&#xec;" horiz-adv-x="233" 
d="M88 456h57v-456h-57v456zM75 674l65 -140h-45l-95 140h75z" />
    <glyph glyph-name="iacute" unicode="&#xed;" horiz-adv-x="233" 
d="M88 456h57v-456h-57v456zM233 674l-95 -140h-45l65 140h75z" />
    <glyph glyph-name="icircumflex" unicode="&#xee;" horiz-adv-x="233" 
d="M88 456h57v-456h-57v456zM31 534h-45l95 140h70l95 -140h-45l-85 94z" />
    <glyph glyph-name="idieresis" unicode="&#xef;" horiz-adv-x="233" 
d="M88 456h57v-456h-57v456zM147 599q0 21 14.5 36t35.5 15t36 -15t15 -36t-15 -35.5t-36 -14.5t-35.5 14.5t-14.5 35.5zM-16 599q0 21 14.5 36t35.5 15t36 -15t15 -36t-15 -35.5t-36 -14.5t-35.5 14.5t-14.5 35.5z" />
    <glyph glyph-name="eth" unicode="&#xf0;" horiz-adv-x="574" 
d="M282 570l-121 -70v61l92 53l-64 96h66l45 -69l118 69v-61l-89 -52l131 -195q26 -39 44 -82t18 -93q0 -48 -17.5 -91.5t-48.5 -75.5t-74.5 -51t-94.5 -19t-94 18.5t-74.5 50.5t-49 75.5t-17.5 93.5t17.5 93.5t49.5 75.5t75.5 50.5t96.5 18.5q17 0 35.5 -3.5t34.5 -10.5z
M396 389q-17 9 -42 16t-57 7q-43 0 -77.5 -14.5t-59 -39.5t-38 -58.5t-13.5 -71.5t13.5 -71.5t37 -58.5t56 -39.5t71.5 -14.5t71.5 14.5t56 39.5t37 58.5t13.5 71.5q0 47 -20 90.5t-49 70.5z" />
    <glyph glyph-name="ntilde" unicode="&#xf1;" horiz-adv-x="585" 
d="M143 392q28 37 70.5 55.5t90.5 18.5q50 0 92 -19.5t70 -57.5q19 -25 29 -57.5t10 -88.5v-243h-57v239q0 45 -7 70t-19 42q-20 29 -50.5 45t-68.5 16q-50 0 -91 -25t-67 -70v-317h-57v456h55v-64zM169 568q0 15 5 30t14 27t23 19.5t32 7.5q19 0 35.5 -7t31.5 -15.5
t29 -15.5t28 -7q16 0 25 10.5t11 34.5l40 -11q0 -15 -5 -30t-14 -27t-23 -19.5t-32 -7.5q-19 0 -35.5 7t-31.5 15.5t-29 15.5t-28 7q-16 0 -25 -10.5t-11 -34.5z" />
    <glyph glyph-name="ograve" unicode="&#xf2;" horiz-adv-x="574" 
d="M465 228q0 38 -13.5 71.5t-37 58.5t-56 39.5t-71.5 14.5t-71.5 -14.5t-56 -39.5t-37 -58.5t-13.5 -71.5t13.5 -71.5t37 -58.5t56 -39.5t71.5 -14.5t71.5 14.5t56 39.5t37 58.5t13.5 71.5zM522 228q0 -49 -17.5 -92.5t-49 -75.5t-74.5 -51t-94 -19t-94 19t-74.5 51
t-49 75.5t-17.5 92.5t17.5 92.5t49 75.5t74.5 51t94 19t94 -19t74.5 -51t49 -75.5t17.5 -92.5zM273 674l65 -140h-45l-95 140h75z" />
    <glyph glyph-name="oacute" unicode="&#xf3;" horiz-adv-x="574" 
d="M465 228q0 38 -13.5 71.5t-37 58.5t-56 39.5t-71.5 14.5t-71.5 -14.5t-56 -39.5t-37 -58.5t-13.5 -71.5t13.5 -71.5t37 -58.5t56 -39.5t71.5 -14.5t71.5 14.5t56 39.5t37 58.5t13.5 71.5zM522 228q0 -49 -17.5 -92.5t-49 -75.5t-74.5 -51t-94 -19t-94 19t-74.5 51
t-49 75.5t-17.5 92.5t17.5 92.5t49 75.5t74.5 51t94 19t94 -19t74.5 -51t49 -75.5t17.5 -92.5zM377 674l-95 -140h-45l65 140h75z" />
    <glyph glyph-name="ocircumflex" unicode="&#xf4;" horiz-adv-x="574" 
d="M465 228q0 38 -13.5 71.5t-37 58.5t-56 39.5t-71.5 14.5t-71.5 -14.5t-56 -39.5t-37 -58.5t-13.5 -71.5t13.5 -71.5t37 -58.5t56 -39.5t71.5 -14.5t71.5 14.5t56 39.5t37 58.5t13.5 71.5zM522 228q0 -49 -17.5 -92.5t-49 -75.5t-74.5 -51t-94 -19t-94 19t-74.5 51
t-49 75.5t-17.5 92.5t17.5 92.5t49 75.5t74.5 51t94 19t94 -19t74.5 -51t49 -75.5t17.5 -92.5zM203 534h-45l95 140h70l95 -140h-45l-85 94z" />
    <glyph glyph-name="otilde" unicode="&#xf5;" horiz-adv-x="574" 
d="M465 228q0 38 -13.5 71.5t-37 58.5t-56 39.5t-71.5 14.5t-71.5 -14.5t-56 -39.5t-37 -58.5t-13.5 -71.5t13.5 -71.5t37 -58.5t56 -39.5t71.5 -14.5t71.5 14.5t56 39.5t37 58.5t13.5 71.5zM522 228q0 -49 -17.5 -92.5t-49 -75.5t-74.5 -51t-94 -19t-94 19t-74.5 51
t-49 75.5t-17.5 92.5t17.5 92.5t49 75.5t74.5 51t94 19t94 -19t74.5 -51t49 -75.5t17.5 -92.5zM151 568q0 15 5 30t14 27t23 19.5t32 7.5q19 0 35.5 -7t31.5 -15.5t29 -15.5t28 -7q16 0 25 10.5t11 34.5l40 -11q0 -15 -5 -30t-14 -27t-23 -19.5t-32 -7.5q-19 0 -35.5 7
t-31.5 15.5t-29 15.5t-28 7q-16 0 -25 -10.5t-11 -34.5z" />
    <glyph glyph-name="odieresis" unicode="&#xf6;" horiz-adv-x="574" 
d="M465 228q0 38 -13.5 71.5t-37 58.5t-56 39.5t-71.5 14.5t-71.5 -14.5t-56 -39.5t-37 -58.5t-13.5 -71.5t13.5 -71.5t37 -58.5t56 -39.5t71.5 -14.5t71.5 14.5t56 39.5t37 58.5t13.5 71.5zM522 228q0 -49 -17.5 -92.5t-49 -75.5t-74.5 -51t-94 -19t-94 19t-74.5 51
t-49 75.5t-17.5 92.5t17.5 92.5t49 75.5t74.5 51t94 19t94 -19t74.5 -51t49 -75.5t17.5 -92.5zM319 599q0 21 14.5 36t35.5 15t36 -15t15 -36t-15 -35.5t-36 -14.5t-35.5 14.5t-14.5 35.5zM156 599q0 21 14.5 36t35.5 15t36 -15t15 -36t-15 -35.5t-36 -14.5t-35.5 14.5
t-14.5 35.5z" />
    <glyph glyph-name="divide" unicode="&#xf7;" horiz-adv-x="540" 
d="M60 229v54h420v-54h-420zM220 426q0 21 14.5 35.5t35.5 14.5t35.5 -14.5t14.5 -35.5t-14.5 -35.5t-35.5 -14.5t-35.5 14.5t-14.5 35.5zM220 86q0 21 14.5 35.5t35.5 14.5t35.5 -14.5t14.5 -35.5t-14.5 -35.5t-35.5 -14.5t-35.5 14.5t-14.5 35.5z" />
    <glyph glyph-name="oslash" unicode="&#xf8;" horiz-adv-x="574" 
d="M287 -10q-32 0 -61 8t-54 22l-14 -20h-64l35 50q-36 33 -56.5 79t-20.5 99q0 49 17.5 92.5t49 75.5t74.5 51t94 19q32 0 61 -8t54 -22l14 20h64l-35 -50q36 -33 56.5 -79t20.5 -99q0 -49 -17.5 -92.5t-49 -75.5t-74.5 -51t-94 -19zM109 228q0 -40 14 -74t39 -60l207 298
q-37 20 -82 20q-39 0 -71.5 -14.5t-56 -39.5t-37 -58.5t-13.5 -71.5zM465 228q0 39 -14 73.5t-40 59.5l-206 -298q38 -19 82 -19q39 0 71.5 14.5t56 39.5t37 58.5t13.5 71.5z" />
    <glyph glyph-name="ugrave" unicode="&#xf9;" horiz-adv-x="575" 
d="M432 62q-24 -32 -65 -52t-89 -20q-57 0 -101.5 25t-69.5 69q-13 23 -20 53t-7 76v243h57v-234q0 -48 7 -74t19 -44q18 -27 47.5 -43.5t67.5 -16.5q47 0 88 26t64 69v317h57v-456h-55v62zM273 674l65 -140h-45l-95 140h75z" />
    <glyph glyph-name="uacute" unicode="&#xfa;" horiz-adv-x="575" 
d="M432 62q-24 -32 -65 -52t-89 -20q-57 0 -101.5 25t-69.5 69q-13 23 -20 53t-7 76v243h57v-234q0 -48 7 -74t19 -44q18 -27 47.5 -43.5t67.5 -16.5q47 0 88 26t64 69v317h57v-456h-55v62zM377 674l-95 -140h-45l65 140h75z" />
    <glyph glyph-name="ucircumflex" unicode="&#xfb;" horiz-adv-x="575" 
d="M432 62q-24 -32 -65 -52t-89 -20q-57 0 -101.5 25t-69.5 69q-13 23 -20 53t-7 76v243h57v-234q0 -48 7 -74t19 -44q18 -27 47.5 -43.5t67.5 -16.5q47 0 88 26t64 69v317h57v-456h-55v62zM203 534h-45l95 140h70l95 -140h-45l-85 94z" />
    <glyph glyph-name="udieresis" unicode="&#xfc;" horiz-adv-x="575" 
d="M432 62q-24 -32 -65 -52t-89 -20q-57 0 -101.5 25t-69.5 69q-13 23 -20 53t-7 76v243h57v-234q0 -48 7 -74t19 -44q18 -27 47.5 -43.5t67.5 -16.5q47 0 88 26t64 69v317h57v-456h-55v62zM319 599q0 21 14.5 36t35.5 15t36 -15t15 -36t-15 -35.5t-36 -14.5t-35.5 14.5
t-14.5 35.5zM156 599q0 21 14.5 36t35.5 15t36 -15t15 -36t-15 -35.5t-36 -14.5t-35.5 14.5t-14.5 35.5z" />
    <glyph glyph-name="yacute" unicode="&#xfd;" horiz-adv-x="527" 
d="M120 -240l124 265l-220 431h62l187 -368l171 368h60l-323 -696h-61zM377 674l-95 -140h-45l65 140h75z" />
    <glyph glyph-name="thorn" unicode="&#xfe;" horiz-adv-x="592" 
d="M145 144q27 -47 69.5 -73.5t93.5 -26.5q29 0 55 9.5t48 24.5q33 23 52.5 62.5t19.5 87.5q0 45 -17 82.5t-47 62.5q-24 20 -52.5 29.5t-57.5 9.5q-32 0 -58.5 -9.5t-47.5 -23.5t-36 -30t-22 -29v-176zM88 710h57v-315q32 35 74.5 53t90.5 18q42 0 79 -14t66 -37
q39 -33 62 -81.5t23 -105.5q0 -62 -26 -112.5t-71 -82.5q-34 -24 -69 -33.5t-67 -9.5q-54 0 -95 21t-67 54v-305h-57v950z" />
    <glyph glyph-name="ydieresis" unicode="&#xff;" horiz-adv-x="527" 
d="M120 -240l124 265l-220 431h62l187 -368l171 368h60l-323 -696h-61zM305 599q0 21 14.5 36t35.5 15t36 -15t15 -36t-15 -35.5t-36 -14.5t-35.5 14.5t-14.5 35.5zM142 599q0 21 14.5 36t35.5 15t36 -15t15 -36t-15 -35.5t-36 -14.5t-35.5 14.5t-14.5 35.5z" />
    <glyph glyph-name="Amacron" unicode="&#x100;" horiz-adv-x="670" 
d="M355 700l302 -700h-61l-91 211h-342l-91 -211h-59l302 700h40zM188 268h292l-146 340zM475 848v-50h-280v50h280z" />
    <glyph glyph-name="amacron" unicode="&#x101;" horiz-adv-x="592" 
d="M449 0v67q-26 -35 -68 -56t-96 -21q-32 0 -67 9.5t-69 33.5q-45 32 -71 82.5t-26 112.5q0 57 23 105.5t62 81.5q29 23 66 37t79 14q50 0 93 -19t74 -54v63h55v-456h-55zM447 320q-8 13 -22.5 29t-35.5 30t-48 23.5t-58 9.5q-29 0 -57.5 -9.5t-52.5 -29.5
q-30 -25 -47 -62.5t-17 -82.5q0 -48 19.5 -87.5t52.5 -62.5q22 -15 48 -24.5t55 -9.5q51 0 93.5 26.5t69.5 73.5v176zM437 619v-50h-280v50h280z" />
    <glyph glyph-name="Abreve" unicode="&#x102;" horiz-adv-x="670" 
d="M355 700l302 -700h-61l-91 211h-342l-91 -211h-59l302 700h40zM188 268h292l-146 340zM460 888q0 -26 -10 -48.5t-27 -39.5t-39.5 -27t-48.5 -10t-48.5 10t-39.5 27t-27 39.5t-10 48.5h50q0 -31 22 -53t53 -22t53 22t22 53h50z" />
    <glyph glyph-name="abreve" unicode="&#x103;" horiz-adv-x="592" 
d="M449 0v67q-26 -35 -68 -56t-96 -21q-32 0 -67 9.5t-69 33.5q-45 32 -71 82.5t-26 112.5q0 57 23 105.5t62 81.5q29 23 66 37t79 14q50 0 93 -19t74 -54v63h55v-456h-55zM447 320q-8 13 -22.5 29t-35.5 30t-48 23.5t-58 9.5q-29 0 -57.5 -9.5t-52.5 -29.5
q-30 -25 -47 -62.5t-17 -82.5q0 -48 19.5 -87.5t52.5 -62.5q22 -15 48 -24.5t55 -9.5q51 0 93.5 26.5t69.5 73.5v176zM422 659q0 -26 -10 -48.5t-27 -39.5t-39.5 -27t-48.5 -10t-48.5 10t-39.5 27t-27 39.5t-10 48.5h50q0 -31 22 -53t53 -22t53 22t22 53h50z" />
    <glyph glyph-name="Aogonek" unicode="&#x104;" horiz-adv-x="670" 
d="M355 700l302 -700q-13 -8 -26.5 -18.5t-25 -24t-18.5 -30t-7 -34.5q0 -30 20 -45t44 -15q13 0 23 1.5t17 3.5l10 -49q-5 -2 -19 -5.5t-31 -3.5q-23 0 -45 7.5t-38.5 21.5t-26.5 34t-10 46q0 38 20.5 68t48.5 49l-88 205h-342l-91 -211h-59l302 700h40zM188 268h292
l-146 340z" />
    <glyph glyph-name="aogonek" unicode="&#x105;" horiz-adv-x="592" 
d="M504 0q-13 -8 -26.5 -18.5t-25 -24t-18.5 -30t-7 -34.5q0 -30 20 -45t44 -15q13 0 23 1.5t17 3.5l10 -49q-5 -2 -19 -5.5t-31 -3.5q-23 0 -45 7.5t-38.5 21.5t-26.5 34t-10 46q0 42 23.5 72.5t54.5 50.5v55q-26 -35 -68 -56t-96 -21q-32 0 -67 9.5t-69 33.5
q-45 32 -71 82.5t-26 112.5q0 57 23 105.5t62 81.5q29 23 66 37t79 14q50 0 93 -19t74 -54v63h55v-456zM447 320q-8 13 -22.5 29t-35.5 30t-48 23.5t-58 9.5q-29 0 -57.5 -9.5t-52.5 -29.5q-30 -25 -47 -62.5t-17 -82.5q0 -48 19.5 -87.5t52.5 -62.5q22 -15 48 -24.5
t55 -9.5q51 0 93.5 26.5t69.5 73.5v176z" />
    <glyph glyph-name="Cacute" unicode="&#x106;" horiz-adv-x="705" 
d="M682 119q-23 -29 -53 -52.5t-64.5 -40.5t-73.5 -26.5t-79 -9.5q-78 0 -144 27t-114 75t-75 114t-27 144q0 76 26.5 141.5t73.5 114t111 76.5t140 28q75 0 141.5 -28t112.5 -79l-39 -39q-38 38 -93.5 63.5t-121.5 25.5q-63 0 -116.5 -23.5t-92 -65t-60.5 -96.5t-22 -118
q0 -64 22 -119t61.5 -96t94 -64.5t119.5 -23.5q72 0 131 29.5t100 77.5zM501 903l-96 -140h-46l66 140h76z" />
    <glyph glyph-name="cacute" unicode="&#x107;" horiz-adv-x="520" 
d="M291 44q48 0 86.5 20t69.5 55l39 -34q-35 -45 -85 -70t-110 -25q-53 0 -97 19t-76 51t-49.5 75.5t-17.5 92.5t18 92.5t49.5 75.5t75.5 51t96 19q63 0 107.5 -24.5t73.5 -55.5l-37 -36q-25 23 -58.5 42.5t-85.5 19.5q-39 0 -72.5 -14.5t-58 -39.5t-38 -58.5t-13.5 -71.5
t13.5 -71.5t38 -58.5t58 -39.5t73.5 -14.5zM380 674l-95 -140h-45l65 140h75z" />
    <glyph glyph-name="Ccircumflex" unicode="&#x108;" horiz-adv-x="705" 
d="M682 119q-23 -29 -53 -52.5t-64.5 -40.5t-73.5 -26.5t-79 -9.5q-78 0 -144 27t-114 75t-75 114t-27 144q0 76 26.5 141.5t73.5 114t111 76.5t140 28q75 0 141.5 -28t112.5 -79l-39 -39q-38 38 -93.5 63.5t-121.5 25.5q-63 0 -116.5 -23.5t-92 -65t-60.5 -96.5t-22 -118
q0 -64 22 -119t61.5 -96t94 -64.5t119.5 -23.5q72 0 131 29.5t100 77.5zM315 763h-45l95 140h70l95 -140h-45l-85 94z" />
    <glyph glyph-name="ccircumflex" unicode="&#x109;" horiz-adv-x="520" 
d="M291 44q48 0 86.5 20t69.5 55l39 -34q-35 -45 -85 -70t-110 -25q-53 0 -97 19t-76 51t-49.5 75.5t-17.5 92.5t18 92.5t49.5 75.5t75.5 51t96 19q63 0 107.5 -24.5t73.5 -55.5l-37 -36q-25 23 -58.5 42.5t-85.5 19.5q-39 0 -72.5 -14.5t-58 -39.5t-38 -58.5t-13.5 -71.5
t13.5 -71.5t38 -58.5t58 -39.5t73.5 -14.5zM205 534h-45l95 140h70l95 -140h-45l-85 94z" />
    <glyph glyph-name="Cdotaccent" unicode="&#x10a;" horiz-adv-x="705" 
d="M682 119q-23 -29 -53 -52.5t-64.5 -40.5t-73.5 -26.5t-79 -9.5q-78 0 -144 27t-114 75t-75 114t-27 144q0 76 26.5 141.5t73.5 114t111 76.5t140 28q75 0 141.5 -28t112.5 -79l-39 -39q-38 38 -93.5 63.5t-121.5 25.5q-63 0 -116.5 -23.5t-92 -65t-60.5 -96.5t-22 -118
q0 -64 22 -119t61.5 -96t94 -64.5t119.5 -23.5q72 0 131 29.5t100 77.5zM350 828q0 21 14.5 36t35.5 15t36 -15t15 -36t-15 -35.5t-36 -14.5t-35.5 14.5t-14.5 35.5z" />
    <glyph glyph-name="cdotaccent" unicode="&#x10b;" horiz-adv-x="520" 
d="M291 44q48 0 86.5 20t69.5 55l39 -34q-35 -45 -85 -70t-110 -25q-53 0 -97 19t-76 51t-49.5 75.5t-17.5 92.5t18 92.5t49.5 75.5t75.5 51t96 19q63 0 107.5 -24.5t73.5 -55.5l-37 -36q-25 23 -58.5 42.5t-85.5 19.5q-39 0 -72.5 -14.5t-58 -39.5t-38 -58.5t-13.5 -71.5
t13.5 -71.5t38 -58.5t58 -39.5t73.5 -14.5zM240 599q0 21 14.5 36t35.5 15t36 -15t15 -36t-15 -35.5t-36 -14.5t-35.5 14.5t-14.5 35.5z" />
    <glyph glyph-name="Ccaron" unicode="&#x10c;" horiz-adv-x="705" 
d="M682 119q-23 -29 -53 -52.5t-64.5 -40.5t-73.5 -26.5t-79 -9.5q-78 0 -144 27t-114 75t-75 114t-27 144q0 76 26.5 141.5t73.5 114t111 76.5t140 28q75 0 141.5 -28t112.5 -79l-39 -39q-38 38 -93.5 63.5t-121.5 25.5q-63 0 -116.5 -23.5t-92 -65t-60.5 -96.5t-22 -118
q0 -64 22 -119t61.5 -96t94 -64.5t119.5 -23.5q72 0 131 29.5t100 77.5zM400 809l85 94h45l-95 -140h-70l-95 140h45z" />
    <glyph glyph-name="ccaron" unicode="&#x10d;" horiz-adv-x="520" 
d="M291 44q48 0 86.5 20t69.5 55l39 -34q-35 -45 -85 -70t-110 -25q-53 0 -97 19t-76 51t-49.5 75.5t-17.5 92.5t18 92.5t49.5 75.5t75.5 51t96 19q63 0 107.5 -24.5t73.5 -55.5l-37 -36q-25 23 -58.5 42.5t-85.5 19.5q-39 0 -72.5 -14.5t-58 -39.5t-38 -58.5t-13.5 -71.5
t13.5 -71.5t38 -58.5t58 -39.5t73.5 -14.5zM290 580l85 94h45l-95 -140h-70l-95 140h45z" />
    <glyph glyph-name="Dcaron" unicode="&#x10e;" horiz-adv-x="743" 
d="M631 350q0 71 -29 132t-81 102q-38 29 -88.5 44t-124.5 15h-147v-586h147q74 0 124.5 15t88.5 44q52 41 81 102t29 132zM691 350q0 -88 -37 -162t-102 -122q-43 -32 -100 -49t-141 -17h-210v700h210q84 0 141 -17t100 -49q65 -48 102 -122t37 -162zM338 809l85 94h45
l-95 -140h-70l-95 140h45z" />
    <glyph glyph-name="dcaron" unicode="&#x10f;" horiz-adv-x="606" 
d="M447 320q-8 13 -22.5 29t-35.5 30t-48 23.5t-58 9.5q-29 0 -57.5 -9.5t-52.5 -29.5q-30 -25 -47 -62.5t-17 -82.5q0 -48 19.5 -87.5t52.5 -62.5q22 -15 48 -24.5t55 -9.5q51 0 93.5 26.5t69.5 73.5v176zM285 -10q-32 0 -67 9.5t-69 33.5q-45 32 -71 82.5t-26 112.5
q0 57 23 105.5t62 81.5q29 23 66 37t79 14q48 0 90.5 -18t74.5 -53v315h57v-710h-55v67q-26 -35 -68 -56t-96 -21zM684 700l-95 -140h-45l65 140h75z" />
    <glyph glyph-name="Dcroat" unicode="&#x110;" horiz-adv-x="759" 
d="M17 415h100v285h210q84 0 141 -17t100 -49q65 -48 102 -122t37 -162t-37 -162t-102 -122q-43 -32 -100 -49t-141 -17h-210v358h-100v57zM647 350q0 71 -29 132t-81 102q-38 29 -88.5 44t-124.5 15h-147v-228h200v-57h-200v-301h147q74 0 124.5 15t88.5 44q52 41 81 102
t29 132z" />
    <glyph glyph-name="dcroat" unicode="&#x111;" horiz-adv-x="592" 
d="M285 -10q-32 0 -67 9.5t-69 33.5q-45 32 -71 82.5t-26 112.5q0 57 23 105.5t62 81.5q29 23 66 37t79 14q48 0 90.5 -18t74.5 -53v160h-130v50h130v105h57v-105h85v-50h-85v-555h-55v67q-26 -35 -68 -56t-96 -21zM447 320q-8 13 -22.5 29t-35.5 30t-48 23.5t-58 9.5
q-29 0 -57.5 -9.5t-52.5 -29.5q-30 -25 -47 -62.5t-17 -82.5q0 -48 19.5 -87.5t52.5 -62.5q22 -15 48 -24.5t55 -9.5q51 0 93.5 26.5t69.5 73.5v176z" />
    <glyph glyph-name="Emacron" unicode="&#x112;" horiz-adv-x="539" 
d="M161 643v-228h250v-57h-250v-301h330v-57h-390v700h380v-57h-320zM436 848v-50h-280v50h280z" />
    <glyph glyph-name="emacron" unicode="&#x113;" horiz-adv-x="531" 
d="M271 412q-30 0 -56 -10.5t-46.5 -28.5t-34.5 -43t-20 -55h310q-5 30 -18 55t-33.5 43.5t-46 28.5t-55.5 10zM468 74q-35 -41 -84 -62.5t-101 -21.5t-94.5 17.5t-72.5 49t-46.5 75t-16.5 96.5q0 49 16 92.5t44.5 75.5t69 51t88.5 19q46 0 84.5 -17t67 -47t44.5 -70.5
t16 -88.5v-8t-1 -12h-372q1 -38 12 -70.5t33 -56.5t55 -38t78 -14q43 0 80 19t64 48zM411 619v-50h-280v50h280z" />
    <glyph glyph-name="Ebreve" unicode="&#x114;" horiz-adv-x="539" 
d="M161 643v-228h250v-57h-250v-301h330v-57h-390v700h380v-57h-320zM421 888q0 -26 -10 -48.5t-27 -39.5t-39.5 -27t-48.5 -10t-48.5 10t-39.5 27t-27 39.5t-10 48.5h50q0 -31 22 -53t53 -22t53 22t22 53h50z" />
    <glyph glyph-name="ebreve" unicode="&#x115;" horiz-adv-x="531" 
d="M271 412q-30 0 -56 -10.5t-46.5 -28.5t-34.5 -43t-20 -55h310q-5 30 -18 55t-33.5 43.5t-46 28.5t-55.5 10zM468 74q-35 -41 -84 -62.5t-101 -21.5t-94.5 17.5t-72.5 49t-46.5 75t-16.5 96.5q0 49 16 92.5t44.5 75.5t69 51t88.5 19q46 0 84.5 -17t67 -47t44.5 -70.5
t16 -88.5v-8t-1 -12h-372q1 -38 12 -70.5t33 -56.5t55 -38t78 -14q43 0 80 19t64 48zM396 659q0 -26 -10 -48.5t-27 -39.5t-39.5 -27t-48.5 -10t-48.5 10t-39.5 27t-27 39.5t-10 48.5h50q0 -31 22 -53t53 -22t53 22t22 53h50z" />
    <glyph glyph-name="Edotaccent" unicode="&#x116;" horiz-adv-x="539" 
d="M161 643v-228h250v-57h-250v-301h330v-57h-390v700h380v-57h-320zM246 828q0 21 14.5 36t35.5 15t36 -15t15 -36t-15 -35.5t-36 -14.5t-35.5 14.5t-14.5 35.5z" />
    <glyph glyph-name="edotaccent" unicode="&#x117;" horiz-adv-x="531" 
d="M271 412q-30 0 -56 -10.5t-46.5 -28.5t-34.5 -43t-20 -55h310q-5 30 -18 55t-33.5 43.5t-46 28.5t-55.5 10zM468 74q-35 -41 -84 -62.5t-101 -21.5t-94.5 17.5t-72.5 49t-46.5 75t-16.5 96.5q0 49 16 92.5t44.5 75.5t69 51t88.5 19q46 0 84.5 -17t67 -47t44.5 -70.5
t16 -88.5v-8t-1 -12h-372q1 -38 12 -70.5t33 -56.5t55 -38t78 -14q43 0 80 19t64 48zM221 599q0 21 14.5 36t35.5 15t36 -15t15 -36t-15 -35.5t-36 -14.5t-35.5 14.5t-14.5 35.5z" />
    <glyph glyph-name="Eogonek" unicode="&#x118;" horiz-adv-x="539" 
d="M161 643v-228h250v-57h-250v-301h330v-57h-61q-13 -8 -26.5 -18.5t-25 -24t-18.5 -30t-7 -34.5q0 -30 20 -45t44 -15q13 0 23 1.5t17 3.5l10 -49q-5 -2 -19 -5.5t-31 -3.5q-23 0 -45 7.5t-38.5 21.5t-26.5 34t-10 46q0 35 17.5 63t43.5 48h-257v700h380v-57h-320z" />
    <glyph glyph-name="eogonek" unicode="&#x119;" horiz-adv-x="531" 
d="M271 412q-30 0 -56 -10.5t-46.5 -28.5t-34.5 -43t-20 -55h310q-5 30 -18 55t-33.5 43.5t-46 28.5t-55.5 10zM283 -10q-52 0 -94.5 17.5t-72.5 49t-46.5 75t-16.5 96.5q0 49 16 92.5t44.5 75.5t69 51t88.5 19q46 0 84.5 -17t67 -47t44.5 -70.5t16 -88.5v-8t-1 -12h-372
q1 -38 12 -70.5t33 -56.5t55 -38t78 -14q43 0 80 19t64 48l36 -37q-14 -15 -28.5 -26.5t-31.5 -22.5q-15 -11 -30 -24.5t-27 -29.5t-19.5 -35t-7.5 -41q0 -26 17 -44t47 -18q13 0 23 1.5t17 3.5l10 -49q-5 -2 -19 -5.5t-31 -3.5q-23 0 -45 7.5t-38.5 21.5t-26.5 34t-10 46
q0 31 12 57t32 46q-8 -1 -16 -1.5t-13 -0.5z" />
    <glyph glyph-name="Ecaron" unicode="&#x11a;" horiz-adv-x="539" 
d="M161 643v-228h250v-57h-250v-301h330v-57h-390v700h380v-57h-320zM296 809l85 94h45l-95 -140h-70l-95 140h45z" />
    <glyph glyph-name="ecaron" unicode="&#x11b;" horiz-adv-x="531" 
d="M271 412q-30 0 -56 -10.5t-46.5 -28.5t-34.5 -43t-20 -55h310q-5 30 -18 55t-33.5 43.5t-46 28.5t-55.5 10zM468 74q-35 -41 -84 -62.5t-101 -21.5t-94.5 17.5t-72.5 49t-46.5 75t-16.5 96.5q0 49 16 92.5t44.5 75.5t69 51t88.5 19q46 0 84.5 -17t67 -47t44.5 -70.5
t16 -88.5v-8t-1 -12h-372q1 -38 12 -70.5t33 -56.5t55 -38t78 -14q43 0 80 19t64 48zM271 580l85 94h45l-95 -140h-70l-95 140h45z" />
    <glyph glyph-name="Gcircumflex" unicode="&#x11c;" horiz-adv-x="743" 
d="M403 710q75 0 141.5 -28t112.5 -79l-39 -39q-38 38 -93.5 63.5t-121.5 25.5q-63 0 -116.5 -23.5t-92 -65t-60.5 -96.5t-22 -118q0 -64 22 -119t61.5 -96t94 -64.5t119.5 -23.5t119 24t94 65v222h-230v57h290v-296q-23 -29 -52.5 -52.5t-64.5 -40.5t-74 -26.5t-79 -9.5
q-78 0 -144 27t-114 75t-75 114t-27 144q0 76 26.5 141.5t73.5 114t111 76.5t140 28zM315 763h-45l95 140h70l95 -140h-45l-85 94z" />
    <glyph glyph-name="gcircumflex" unicode="&#x11d;" horiz-adv-x="592" 
d="M504 2q0 -51 -5.5 -85.5t-19.5 -61.5q-24 -46 -72.5 -75.5t-121.5 -29.5q-62 0 -117 27t-94 82l42 29q31 -39 73.5 -61.5t95.5 -22.5q57 0 92 22.5t52 55.5q11 21 14.5 48t3.5 70v65q-26 -33 -67 -54t-95 -21q-32 0 -67 9.5t-69 33.5q-45 32 -71 82.5t-26 112.5
q0 57 23 105.5t62 81.5q29 23 66 37t79 14q50 0 93 -19t74 -54v63h55v-454zM447 320q-8 13 -22.5 29t-35.5 30t-48 23.5t-58 9.5q-29 0 -57.5 -9.5t-52.5 -29.5q-30 -25 -47 -62.5t-17 -82.5q0 -48 19.5 -87.5t52.5 -62.5q22 -15 48 -24.5t55 -9.5q51 0 93.5 26.5t69.5 73.5
v176zM212 534h-45l95 140h70l95 -140h-45l-85 94z" />
    <glyph glyph-name="Gbreve" unicode="&#x11e;" horiz-adv-x="743" 
d="M403 710q75 0 141.5 -28t112.5 -79l-39 -39q-38 38 -93.5 63.5t-121.5 25.5q-63 0 -116.5 -23.5t-92 -65t-60.5 -96.5t-22 -118q0 -64 22 -119t61.5 -96t94 -64.5t119.5 -23.5t119 24t94 65v222h-230v57h290v-296q-23 -29 -52.5 -52.5t-64.5 -40.5t-74 -26.5t-79 -9.5
q-78 0 -144 27t-114 75t-75 114t-27 144q0 76 26.5 141.5t73.5 114t111 76.5t140 28zM525 888q0 -26 -10 -48.5t-27 -39.5t-39.5 -27t-48.5 -10t-48.5 10t-39.5 27t-27 39.5t-10 48.5h50q0 -31 22 -53t53 -22t53 22t22 53h50z" />
    <glyph glyph-name="gbreve" unicode="&#x11f;" horiz-adv-x="592" 
d="M504 2q0 -51 -5.5 -85.5t-19.5 -61.5q-24 -46 -72.5 -75.5t-121.5 -29.5q-62 0 -117 27t-94 82l42 29q31 -39 73.5 -61.5t95.5 -22.5q57 0 92 22.5t52 55.5q11 21 14.5 48t3.5 70v65q-26 -33 -67 -54t-95 -21q-32 0 -67 9.5t-69 33.5q-45 32 -71 82.5t-26 112.5
q0 57 23 105.5t62 81.5q29 23 66 37t79 14q50 0 93 -19t74 -54v63h55v-454zM447 320q-8 13 -22.5 29t-35.5 30t-48 23.5t-58 9.5q-29 0 -57.5 -9.5t-52.5 -29.5q-30 -25 -47 -62.5t-17 -82.5q0 -48 19.5 -87.5t52.5 -62.5q22 -15 48 -24.5t55 -9.5q51 0 93.5 26.5t69.5 73.5
v176zM422 659q0 -26 -10 -48.5t-27 -39.5t-39.5 -27t-48.5 -10t-48.5 10t-39.5 27t-27 39.5t-10 48.5h50q0 -31 22 -53t53 -22t53 22t22 53h50z" />
    <glyph glyph-name="Gdotaccent" unicode="&#x120;" horiz-adv-x="743" 
d="M403 710q75 0 141.5 -28t112.5 -79l-39 -39q-38 38 -93.5 63.5t-121.5 25.5q-63 0 -116.5 -23.5t-92 -65t-60.5 -96.5t-22 -118q0 -64 22 -119t61.5 -96t94 -64.5t119.5 -23.5t119 24t94 65v222h-230v57h290v-296q-23 -29 -52.5 -52.5t-64.5 -40.5t-74 -26.5t-79 -9.5
q-78 0 -144 27t-114 75t-75 114t-27 144q0 76 26.5 141.5t73.5 114t111 76.5t140 28zM350 828q0 21 14.5 36t35.5 15t36 -15t15 -36t-15 -35.5t-36 -14.5t-35.5 14.5t-14.5 35.5z" />
    <glyph glyph-name="gdotaccent" unicode="&#x121;" horiz-adv-x="592" 
d="M504 2q0 -51 -5.5 -85.5t-19.5 -61.5q-24 -46 -72.5 -75.5t-121.5 -29.5q-62 0 -117 27t-94 82l42 29q31 -39 73.5 -61.5t95.5 -22.5q57 0 92 22.5t52 55.5q11 21 14.5 48t3.5 70v65q-26 -33 -67 -54t-95 -21q-32 0 -67 9.5t-69 33.5q-45 32 -71 82.5t-26 112.5
q0 57 23 105.5t62 81.5q29 23 66 37t79 14q50 0 93 -19t74 -54v63h55v-454zM447 320q-8 13 -22.5 29t-35.5 30t-48 23.5t-58 9.5q-29 0 -57.5 -9.5t-52.5 -29.5q-30 -25 -47 -62.5t-17 -82.5q0 -48 19.5 -87.5t52.5 -62.5q22 -15 48 -24.5t55 -9.5q51 0 93.5 26.5t69.5 73.5
v176zM247 599q0 21 14.5 36t35.5 15t36 -15t15 -36t-15 -35.5t-36 -14.5t-35.5 14.5t-14.5 35.5z" />
    <glyph glyph-name="uni0122" unicode="&#x122;" horiz-adv-x="743" 
d="M403 710q75 0 141.5 -28t112.5 -79l-39 -39q-38 38 -93.5 63.5t-121.5 25.5q-63 0 -116.5 -23.5t-92 -65t-60.5 -96.5t-22 -118q0 -64 22 -119t61.5 -96t94 -64.5t119.5 -23.5t119 24t94 65v222h-230v57h290v-296q-23 -29 -52.5 -52.5t-64.5 -40.5t-74 -26.5t-79 -9.5
q-78 0 -144 27t-114 75t-75 114t-27 144q0 76 26.5 141.5t73.5 114t111 76.5t140 28zM447 -45l-95 -140h-45l65 140h75z" />
    <glyph glyph-name="uni0123" unicode="&#x123;" horiz-adv-x="592" 
d="M504 2q0 -51 -5.5 -85.5t-19.5 -61.5q-24 -46 -72.5 -75.5t-121.5 -29.5q-62 0 -117 27t-94 82l42 29q31 -39 73.5 -61.5t95.5 -22.5q57 0 92 22.5t52 55.5q11 21 14.5 48t3.5 70v65q-26 -33 -67 -54t-95 -21q-32 0 -67 9.5t-69 33.5q-45 32 -71 82.5t-26 112.5
q0 57 23 105.5t62 81.5q29 23 66 37t79 14q50 0 93 -19t74 -54v63h55v-454zM447 320q-8 13 -22.5 29t-35.5 30t-48 23.5t-58 9.5q-29 0 -57.5 -9.5t-52.5 -29.5q-30 -25 -47 -62.5t-17 -82.5q0 -48 19.5 -87.5t52.5 -62.5q22 -15 48 -24.5t55 -9.5q51 0 93.5 26.5t69.5 73.5
v176zM242 534l95 140h45l-65 -140h-75z" />
    <glyph glyph-name="Hcircumflex" unicode="&#x124;" horiz-adv-x="772" 
d="M611 358h-450v-358h-60v700h60v-285h450v285h60v-700h-60v358zM301 763h-45l95 140h70l95 -140h-45l-85 94z" />
    <glyph glyph-name="hcircumflex" unicode="&#x125;" horiz-adv-x="585" 
d="M145 395q27 36 70 53.5t89 17.5q50 0 92 -19.5t70 -57.5q19 -25 29 -57.5t10 -88.5v-243h-57v239q0 45 -7 70t-19 42q-20 29 -50.5 45t-68.5 16q-50 0 -91 -25t-67 -70v-317h-57v710h57v-315zM37 748h-45l95 140h70l95 -140h-45l-85 94z" />
    <glyph glyph-name="Hbar" unicode="&#x126;" horiz-adv-x="796" 
d="M773 550h-90v-550h-60v358h-450v-358h-60v550h-90v55h90v95h60v-95h450v95h60v-95h90v-55zM623 415v135h-450v-135h450z" />
    <glyph glyph-name="hbar" unicode="&#x127;" horiz-adv-x="585" 
d="M145 605h130v-50h-130v-160q27 36 70 53.5t89 17.5q50 0 92 -19.5t70 -57.5q19 -25 29 -57.5t10 -88.5v-243h-57v239q0 45 -7 70t-19 42q-20 29 -50.5 45t-68.5 16q-50 0 -91 -25t-67 -70v-317h-57v555h-85v50h85v105h57v-105z" />
    <glyph glyph-name="Itilde" unicode="&#x128;" horiz-adv-x="262" 
d="M101 700h60v-700h-60v700zM-6 796q0 15 5 30t14 27t23 19.5t32 7.5q19 0 35.5 -7t31.5 -15.5t29 -15.5t28 -7q16 0 25 10.5t11 34.5l40 -11q0 -15 -5 -30t-14 -27t-23 -19.5t-32 -7.5q-19 0 -35.5 7t-31.5 15.5t-29 15.5t-28 7q-16 0 -25 -10.5t-11 -34.5z" />
    <glyph glyph-name="itilde" unicode="&#x129;" horiz-adv-x="233" 
d="M88 456h57v-456h-57v456zM-21 568q0 15 5 30t14 27t23 19.5t32 7.5q19 0 35.5 -7t31.5 -15.5t29 -15.5t28 -7q16 0 25 10.5t11 34.5l40 -11q0 -15 -5 -30t-14 -27t-23 -19.5t-32 -7.5q-19 0 -35.5 7t-31.5 15.5t-29 15.5t-28 7q-16 0 -25 -10.5t-11 -34.5z" />
    <glyph glyph-name="Imacron" unicode="&#x12a;" horiz-adv-x="262" 
d="M101 700h60v-700h-60v700zM271 848v-50h-280v50h280z" />
    <glyph glyph-name="imacron" unicode="&#x12b;" horiz-adv-x="233" 
d="M88 456h57v-456h-57v456zM256 619v-50h-280v50h280z" />
    <glyph glyph-name="Ibreve" unicode="&#x12c;" horiz-adv-x="262" 
d="M101 700h60v-700h-60v700zM256 888q0 -26 -10 -48.5t-27 -39.5t-39.5 -27t-48.5 -10t-48.5 10t-39.5 27t-27 39.5t-10 48.5h50q0 -31 22 -53t53 -22t53 22t22 53h50z" />
    <glyph glyph-name="ibreve" unicode="&#x12d;" horiz-adv-x="233" 
d="M88 456h57v-456h-57v456zM241 659q0 -26 -10 -48.5t-27 -39.5t-39.5 -27t-48.5 -10t-48.5 10t-39.5 27t-27 39.5t-10 48.5h50q0 -31 22 -53t53 -22t53 22t22 53h50z" />
    <glyph glyph-name="Iogonek" unicode="&#x12e;" horiz-adv-x="262" 
d="M161 0q-11 -9 -24 -20.5t-23.5 -25t-17.5 -29t-7 -32.5q0 -30 20 -45t44 -15q13 0 23 1.5t17 3.5l10 -49q-5 -2 -19 -5.5t-31 -3.5q-24 0 -45.5 7.5t-38 21.5t-26.5 34t-10 46q0 35 18.5 63t49.5 49v699h60v-700z" />
    <glyph glyph-name="iogonek" unicode="&#x12f;" horiz-adv-x="233" 
d="M145 0q-11 -9 -24 -20.5t-23.5 -25t-17.5 -29t-7 -32.5q0 -30 20 -45t44 -15q13 0 23 1.5t17 3.5l10 -49q-5 -2 -19 -5.5t-31 -3.5q-24 0 -45.5 7.5t-38 21.5t-26.5 34t-10 46q0 35 19.5 64t51.5 50v453h57v-456zM66 614q0 21 14.5 36t35.5 15t36 -15t15 -36t-15 -35.5
t-36 -14.5t-35.5 14.5t-14.5 35.5z" />
    <glyph glyph-name="Idotaccent" unicode="&#x130;" horiz-adv-x="262" 
d="M101 700h60v-700h-60v700zM81 828q0 21 14.5 36t35.5 15t36 -15t15 -36t-15 -35.5t-36 -14.5t-35.5 14.5t-14.5 35.5z" />
    <glyph glyph-name="dotlessi" unicode="&#x131;" horiz-adv-x="233" 
d="M88 456h57v-456h-57v456z" />
    <glyph glyph-name="Jcircumflex" unicode="&#x134;" horiz-adv-x="472" 
d="M74 125q16 -34 48 -56t71 -22q35 0 63 16t45 44q8 14 12.5 33.5t4.5 51.5v508h60v-505q0 -44 -8 -73t-23 -51q-25 -38 -65.5 -59.5t-88.5 -21.5q-57 0 -103 31t-67 81zM258 763h-45l95 140h70l95 -140h-45l-85 94z" />
    <glyph glyph-name="jcircumflex" unicode="&#x135;" horiz-adv-x="241" 
d="M-34 -179q23 -17 56 -17t54 23q10 11 15 27.5t5 47.5v554h57v-554q0 -45 -11.5 -73t-31.5 -46q-36 -33 -89 -33q-25 0 -47.5 9t-35.5 21zM34 534h-45l95 140h70l95 -140h-45l-85 94z" />
    <glyph glyph-name="uni0136" unicode="&#x136;" horiz-adv-x="602" 
d="M521 0l-360 354v-354h-60v700h60v-314l341 314h79l-358 -330l378 -370h-80zM366 -45l-95 -140h-45l65 140h75z" />
    <glyph glyph-name="uni0137" unicode="&#x137;" horiz-adv-x="492" 
d="M404 0l-259 241v-241h-57v710h57v-444l226 190h83l-242 -202l272 -254h-80zM308 -45l-95 -140h-45l65 140h75z" />
    <glyph glyph-name="kgreenlandic" unicode="&#x138;" horiz-adv-x="492" 
d="M404 0l-259 241v-241h-57v456h57v-190l226 190h83l-242 -202l272 -254h-80z" />
    <glyph glyph-name="Lacute" unicode="&#x139;" horiz-adv-x="518" 
d="M161 57h330v-57h-390v700h60v-643zM243 903l-96 -140h-46l66 140h76z" />
    <glyph glyph-name="lacute" unicode="&#x13a;" horiz-adv-x="233" 
d="M88 710h57v-710h-57v710zM233 888l-95 -140h-45l65 140h75z" />
    <glyph glyph-name="uni013B" unicode="&#x13b;" horiz-adv-x="518" 
d="M161 57h330v-57h-390v700h60v-643zM347 -45l-95 -140h-45l65 140h75z" />
    <glyph glyph-name="uni013C" unicode="&#x13c;" horiz-adv-x="233" 
d="M88 710h57v-710h-57v710zM163 -45l-95 -140h-45l65 140h75z" />
    <glyph glyph-name="Lcaron" unicode="&#x13d;" horiz-adv-x="520" 
d="M161 57h330v-57h-390v700h60v-643zM381 700l-95 -140h-45l65 140h75z" />
    <glyph glyph-name="lcaron" unicode="&#x13e;" horiz-adv-x="247" 
d="M88 710h57v-710h-57v710zM325 700l-95 -140h-45l65 140h75z" />
    <glyph glyph-name="Ldot" unicode="&#x13f;" horiz-adv-x="522" 
d="M161 57h330v-57h-390v700h60v-643zM331 375q0 21 14.5 36t35.5 15t36 -15t15 -36t-15 -35.5t-36 -14.5t-35.5 14.5t-14.5 35.5z" />
    <glyph glyph-name="ldot" unicode="&#x140;" horiz-adv-x="266" 
d="M88 710h57v-710h-57v710zM195 336q0 21 14.5 36t35.5 15t36 -15t15 -36t-15 -35.5t-36 -14.5t-35.5 14.5t-14.5 35.5z" />
    <glyph glyph-name="Lslash" unicode="&#x141;" horiz-adv-x="543" 
d="M185 435l150 87v-63l-150 -87v-315h330v-57h-390v338l-100 -58v63l100 58v299h60v-265z" />
    <glyph glyph-name="lslash" unicode="&#x142;" horiz-adv-x="316" 
d="M135 338l-100 -58v62l100 57v311h57v-278l100 58v-61l-100 -58v-371h-57v338z" />
    <glyph glyph-name="Nacute" unicode="&#x143;" horiz-adv-x="772" 
d="M101 700h40l470 -583v583h60v-700h-40l-470 583v-583h-60v700zM487 903l-96 -140h-46l66 140h76z" />
    <glyph glyph-name="nacute" unicode="&#x144;" horiz-adv-x="585" 
d="M143 392q28 37 70.5 55.5t90.5 18.5q50 0 92 -19.5t70 -57.5q19 -25 29 -57.5t10 -88.5v-243h-57v239q0 45 -7 70t-19 42q-20 29 -50.5 45t-68.5 16q-50 0 -91 -25t-67 -70v-317h-57v456h55v-64zM395 674l-95 -140h-45l65 140h75z" />
    <glyph glyph-name="uni0145" unicode="&#x145;" horiz-adv-x="772" 
d="M101 700h40l470 -583v583h60v-700h-40l-470 583v-583h-60v700zM421 -45l-95 -140h-45l65 140h75z" />
    <glyph glyph-name="uni0146" unicode="&#x146;" horiz-adv-x="585" 
d="M143 392q28 37 70.5 55.5t90.5 18.5q50 0 92 -19.5t70 -57.5q19 -25 29 -57.5t10 -88.5v-243h-57v239q0 45 -7 70t-19 42q-20 29 -50.5 45t-68.5 16q-50 0 -91 -25t-67 -70v-317h-57v456h55v-64zM343 -45l-95 -140h-45l65 140h75z" />
    <glyph glyph-name="Ncaron" unicode="&#x147;" horiz-adv-x="772" 
d="M101 700h40l470 -583v583h60v-700h-40l-470 583v-583h-60v700zM386 809l85 94h45l-95 -140h-70l-95 140h45z" />
    <glyph glyph-name="ncaron" unicode="&#x148;" horiz-adv-x="585" 
d="M143 392q28 37 70.5 55.5t90.5 18.5q50 0 92 -19.5t70 -57.5q19 -25 29 -57.5t10 -88.5v-243h-57v239q0 45 -7 70t-19 42q-20 29 -50.5 45t-68.5 16q-50 0 -91 -25t-67 -70v-317h-57v456h55v-64zM306 580l85 94h45l-95 -140h-70l-95 140h45z" />
    <glyph glyph-name="napostrophe" unicode="&#x149;" horiz-adv-x="585" 
d="M228 700l-95 -140h-45l65 140h75zM143 392q28 37 70.5 55.5t90.5 18.5q50 0 92 -19.5t70 -57.5q19 -25 29 -57.5t10 -88.5v-243h-57v239q0 45 -7 70t-19 42q-20 29 -50.5 45t-68.5 16q-50 0 -91 -25t-67 -70v-317h-57v456h55v-64z" />
    <glyph glyph-name="Eng" unicode="&#x14a;" horiz-adv-x="772" 
d="M486 -193q35 0 63 16t45 44q8 14 12.5 33.5t4.5 51.5v73l-450 558v-583h-60v700h40l470 -583v583h60v-745q0 -44 -8 -73t-23 -51q-25 -38 -65.5 -59.5t-88.5 -21.5q-57 0 -103 31t-67 81l51 23q16 -34 48 -56t71 -22z" />
    <glyph glyph-name="eng" unicode="&#x14b;" horiz-adv-x="585" 
d="M448 239q0 45 -7 70t-19 42q-20 29 -50.5 45t-68.5 16q-50 0 -91 -25t-67 -70v-317h-57v456h55v-64q28 37 70.5 55.5t90.5 18.5q50 0 92 -19.5t70 -57.5q19 -25 29 -57.5t10 -88.5v-341q0 -45 -11.5 -73t-31.5 -46q-36 -33 -89 -33q-25 0 -47.5 9t-35.5 21l28 41
q23 -17 56 -17t54 23q10 11 15 27.5t5 47.5v337z" />
    <glyph glyph-name="Omacron" unicode="&#x14c;" horiz-adv-x="800" 
d="M52 350q0 76 26.5 142t73 114.5t110.5 76t138 27.5t138 -27.5t110.5 -76t73 -114.5t26.5 -142q0 -77 -26.5 -142.5t-73 -114t-110.5 -76t-138 -27.5t-138 27.5t-110.5 76t-73 114t-26.5 142.5zM112 350q0 -62 21 -117.5t59.5 -96.5t91.5 -65t116 -24t116 24t91.5 65
t59.5 96.5t21 117.5t-21 117t-59.5 96.5t-91.5 65.5t-116 24t-116 -24t-91.5 -65.5t-59.5 -96.5t-21 -117zM540 848v-50h-280v50h280z" />
    <glyph glyph-name="omacron" unicode="&#x14d;" horiz-adv-x="574" 
d="M465 228q0 38 -13.5 71.5t-37 58.5t-56 39.5t-71.5 14.5t-71.5 -14.5t-56 -39.5t-37 -58.5t-13.5 -71.5t13.5 -71.5t37 -58.5t56 -39.5t71.5 -14.5t71.5 14.5t56 39.5t37 58.5t13.5 71.5zM522 228q0 -49 -17.5 -92.5t-49 -75.5t-74.5 -51t-94 -19t-94 19t-74.5 51
t-49 75.5t-17.5 92.5t17.5 92.5t49 75.5t74.5 51t94 19t94 -19t74.5 -51t49 -75.5t17.5 -92.5zM428 619v-50h-280v50h280z" />
    <glyph glyph-name="Obreve" unicode="&#x14e;" horiz-adv-x="800" 
d="M52 350q0 76 26.5 142t73 114.5t110.5 76t138 27.5t138 -27.5t110.5 -76t73 -114.5t26.5 -142q0 -77 -26.5 -142.5t-73 -114t-110.5 -76t-138 -27.5t-138 27.5t-110.5 76t-73 114t-26.5 142.5zM112 350q0 -62 21 -117.5t59.5 -96.5t91.5 -65t116 -24t116 24t91.5 65
t59.5 96.5t21 117.5t-21 117t-59.5 96.5t-91.5 65.5t-116 24t-116 -24t-91.5 -65.5t-59.5 -96.5t-21 -117zM525 888q0 -26 -10 -48.5t-27 -39.5t-39.5 -27t-48.5 -10t-48.5 10t-39.5 27t-27 39.5t-10 48.5h50q0 -31 22 -53t53 -22t53 22t22 53h50z" />
    <glyph glyph-name="obreve" unicode="&#x14f;" horiz-adv-x="574" 
d="M465 228q0 38 -13.5 71.5t-37 58.5t-56 39.5t-71.5 14.5t-71.5 -14.5t-56 -39.5t-37 -58.5t-13.5 -71.5t13.5 -71.5t37 -58.5t56 -39.5t71.5 -14.5t71.5 14.5t56 39.5t37 58.5t13.5 71.5zM522 228q0 -49 -17.5 -92.5t-49 -75.5t-74.5 -51t-94 -19t-94 19t-74.5 51
t-49 75.5t-17.5 92.5t17.5 92.5t49 75.5t74.5 51t94 19t94 -19t74.5 -51t49 -75.5t17.5 -92.5zM413 669q0 -26 -10 -48.5t-27 -39.5t-39.5 -27t-48.5 -10t-48.5 10t-39.5 27t-27 39.5t-10 48.5h50q0 -31 22 -53t53 -22t53 22t22 53h50z" />
    <glyph glyph-name="Ohungarumlaut" unicode="&#x150;" horiz-adv-x="800" 
d="M52 350q0 76 26.5 142t73 114.5t110.5 76t138 27.5t138 -27.5t110.5 -76t73 -114.5t26.5 -142q0 -77 -26.5 -142.5t-73 -114t-110.5 -76t-138 -27.5t-138 27.5t-110.5 76t-73 114t-26.5 142.5zM112 350q0 -62 21 -117.5t59.5 -96.5t91.5 -65t116 -24t116 24t91.5 65
t59.5 96.5t21 117.5t-21 117t-59.5 96.5t-91.5 65.5t-116 24t-116 -24t-91.5 -65.5t-59.5 -96.5t-21 -117zM456 903l-95 -140h-45l65 140h75zM606 903l-95 -140h-45l65 140h75z" />
    <glyph glyph-name="ohungarumlaut" unicode="&#x151;" horiz-adv-x="574" 
d="M465 228q0 38 -13.5 71.5t-37 58.5t-56 39.5t-71.5 14.5t-71.5 -14.5t-56 -39.5t-37 -58.5t-13.5 -71.5t13.5 -71.5t37 -58.5t56 -39.5t71.5 -14.5t71.5 14.5t56 39.5t37 58.5t13.5 71.5zM522 228q0 -49 -17.5 -92.5t-49 -75.5t-74.5 -51t-94 -19t-94 19t-74.5 51
t-49 75.5t-17.5 92.5t17.5 92.5t49 75.5t74.5 51t94 19t94 -19t74.5 -51t49 -75.5t17.5 -92.5zM338 674l-95 -140h-45l65 140h75zM488 674l-95 -140h-45l65 140h75z" />
    <glyph glyph-name="OE" unicode="&#x152;" horiz-adv-x="1126" 
d="M400 47q63 0 116 24t91.5 65t59.5 96.5t21 117.5t-21 117t-59.5 96.5t-91.5 65.5t-116 24t-116 -24t-91.5 -65.5t-59.5 -96.5t-21 -117t21 -117.5t59.5 -96.5t91.5 -65t116 -24zM1068 700v-57h-320v-228h250v-57h-250v-301h330v-57h-390v157q-21 -38 -51 -68.5t-67 -52.5
t-80 -34t-90 -12q-74 0 -138 27.5t-110.5 76t-73 114t-26.5 142.5q0 76 26.5 142t73 114.5t110.5 76t138 27.5q47 0 90 -12t80 -34t67 -53t51 -68v157h380z" />
    <glyph glyph-name="oe" unicode="&#x153;" horiz-adv-x="943" 
d="M465 228q0 38 -13.5 71.5t-37 58.5t-56 39.5t-71.5 14.5t-71.5 -14.5t-56 -39.5t-37 -58.5t-13.5 -71.5t13.5 -71.5t37 -58.5t56 -39.5t71.5 -14.5t71.5 14.5t56 39.5t37 58.5t13.5 71.5zM683 412q-30 0 -56 -10.5t-46.5 -28.5t-34.5 -43t-20 -55h310q-5 30 -18 55
t-33.5 43.5t-46 28.5t-55.5 10zM880 74q-34 -42 -86.5 -63t-101.5 -21q-72 0 -123 33.5t-77 92.5q-27 -57 -80.5 -91.5t-124.5 -34.5q-51 0 -94 19t-74.5 51t-49 75.5t-17.5 92.5t17.5 92.5t49 75.5t74.5 51t94 19q70 0 124 -35t81 -92q25 57 74 92t117 35q46 0 84.5 -17
t67 -47t44.5 -70.5t16 -88.5v-8t-1 -12h-372q1 -38 12 -70.5t32.5 -56.5t53 -38t74.5 -14q44 0 83.5 19t66.5 48z" />
    <glyph glyph-name="Racute" unicode="&#x154;" horiz-adv-x="621" 
d="M549 0l-270 358h-118v-358h-60v700h239q48 0 80.5 -12t55.5 -33q26 -23 40.5 -55.5t14.5 -70.5t-14.5 -70.5t-40.5 -55.5q-22 -20 -51.5 -31.5t-73.5 -13.5l270 -358h-72zM337 415q38 0 60 8t37 22q17 16 27 37.5t10 46.5t-10 46.5t-27 37.5q-15 14 -37 22t-60 8h-176
v-228h176zM390 903l-96 -140h-46l66 140h76z" />
    <glyph glyph-name="racute" unicode="&#x155;" horiz-adv-x="345" 
d="M318 404q-12 2 -16 2h-10q-51 0 -90 -28t-57 -73v-305h-57v456h57v-65q8 12 21.5 24t32 22.5t41 17t49.5 6.5h9.5t19.5 -2v-55zM290 674l-95 -140h-45l65 140h75z" />
    <glyph glyph-name="uni0156" unicode="&#x156;" horiz-adv-x="621" 
d="M549 0l-270 358h-118v-358h-60v700h239q48 0 80.5 -12t55.5 -33q26 -23 40.5 -55.5t14.5 -70.5t-14.5 -70.5t-40.5 -55.5q-22 -20 -51.5 -31.5t-73.5 -13.5l270 -358h-72zM337 415q38 0 60 8t37 22q17 16 27 37.5t10 46.5t-10 46.5t-27 37.5q-15 14 -37 22t-60 8h-176
v-228h176zM371 -45l-95 -140h-45l65 140h75z" />
    <glyph glyph-name="uni0157" unicode="&#x157;" horiz-adv-x="345" 
d="M318 404q-12 2 -16 2h-10q-51 0 -90 -28t-57 -73v-305h-57v456h57v-65q8 12 21.5 24t32 22.5t41 17t49.5 6.5h9.5t19.5 -2v-55zM163 -45l-95 -140h-45l65 140h75z" />
    <glyph glyph-name="Rcaron" unicode="&#x158;" horiz-adv-x="621" 
d="M549 0l-270 358h-118v-358h-60v700h239q48 0 80.5 -12t55.5 -33q26 -23 40.5 -55.5t14.5 -70.5t-14.5 -70.5t-40.5 -55.5q-22 -20 -51.5 -31.5t-73.5 -13.5l270 -358h-72zM337 415q38 0 60 8t37 22q17 16 27 37.5t10 46.5t-10 46.5t-27 37.5q-15 14 -37 22t-60 8h-176
v-228h176zM301 809l85 94h45l-95 -140h-70l-95 140h45z" />
    <glyph glyph-name="rcaron" unicode="&#x159;" horiz-adv-x="345" 
d="M318 404q-12 2 -16 2h-10q-51 0 -90 -28t-57 -73v-305h-57v456h57v-65q8 12 21.5 24t32 22.5t41 17t49.5 6.5h9.5t19.5 -2v-55zM205 580l85 94h45l-95 -140h-70l-95 140h45z" />
    <glyph glyph-name="Sacute" unicode="&#x15a;" horiz-adv-x="524" 
d="M84 143q15 -19 34 -36.5t42.5 -30.5t51.5 -21t61 -8q26 0 52 9t46.5 26t33 41.5t12.5 54.5q0 40 -17 66t-44.5 44.5t-62 32.5t-69.5 30q-15 7 -30 14.5t-29 16.5q-39 24 -67 57.5t-28 86.5q0 41 15.5 75t42 58t63 37.5t78.5 13.5q34 0 61.5 -7t49.5 -17t39 -22.5
t29 -22.5l-36 -43q-32 26 -64 40.5t-77 14.5q-29 0 -55 -8.5t-45 -25t-30 -39.5t-11 -51q0 -27 11.5 -46.5t30.5 -35t44 -27.5t52 -24q26 -11 52.5 -22.5t50.5 -26.5q22 -14 41 -30.5t33.5 -37t23 -45.5t8.5 -56q0 -42 -16 -76.5t-43.5 -59t-64.5 -38.5t-80 -14
q-73 0 -130 30t-102 87zM373 903l-96 -140h-46l66 140h76z" />
    <glyph glyph-name="sacute" unicode="&#x15b;" horiz-adv-x="427" 
d="M82 95q57 -51 136 -51q17 0 35.5 4.5t34 14.5t25.5 25t10 36q0 22 -12 36t-31.5 24t-44.5 16.5t-50 13.5q-24 7 -46.5 15.5t-40 22t-28 33t-10.5 48.5q0 32 13.5 57t35.5 42t50.5 25.5t58.5 8.5q49 0 84 -14t61 -34l-31 -40q-29 19 -54 26.5t-60 7.5q-18 0 -36 -4.5
t-32.5 -14.5t-23.5 -24.5t-9 -34.5q0 -17 9 -28.5t24.5 -19.5t35.5 -14t42 -12q27 -7 54 -16t49 -24t35.5 -37t13.5 -56q0 -32 -13 -57.5t-35 -43t-51.5 -27t-62.5 -9.5q-49 0 -92 15.5t-81 49.5zM318 674l-95 -140h-45l65 140h75z" />
    <glyph glyph-name="Scircumflex" unicode="&#x15c;" horiz-adv-x="524" 
d="M84 143q15 -19 34 -36.5t42.5 -30.5t51.5 -21t61 -8q26 0 52 9t46.5 26t33 41.5t12.5 54.5q0 40 -17 66t-44.5 44.5t-62 32.5t-69.5 30q-15 7 -30 14.5t-29 16.5q-39 24 -67 57.5t-28 86.5q0 41 15.5 75t42 58t63 37.5t78.5 13.5q34 0 61.5 -7t49.5 -17t39 -22.5
t29 -22.5l-36 -43q-32 26 -64 40.5t-77 14.5q-29 0 -55 -8.5t-45 -25t-30 -39.5t-11 -51q0 -27 11.5 -46.5t30.5 -35t44 -27.5t52 -24q26 -11 52.5 -22.5t50.5 -26.5q22 -14 41 -30.5t33.5 -37t23 -45.5t8.5 -56q0 -42 -16 -76.5t-43.5 -59t-64.5 -38.5t-80 -14
q-73 0 -130 30t-102 87zM187 763h-45l95 140h70l95 -140h-45l-85 94z" />
    <glyph glyph-name="scircumflex" unicode="&#x15d;" horiz-adv-x="427" 
d="M82 95q57 -51 136 -51q17 0 35.5 4.5t34 14.5t25.5 25t10 36q0 22 -12 36t-31.5 24t-44.5 16.5t-50 13.5q-24 7 -46.5 15.5t-40 22t-28 33t-10.5 48.5q0 32 13.5 57t35.5 42t50.5 25.5t58.5 8.5q49 0 84 -14t61 -34l-31 -40q-29 19 -54 26.5t-60 7.5q-18 0 -36 -4.5
t-32.5 -14.5t-23.5 -24.5t-9 -34.5q0 -17 9 -28.5t24.5 -19.5t35.5 -14t42 -12q27 -7 54 -16t49 -24t35.5 -37t13.5 -56q0 -32 -13 -57.5t-35 -43t-51.5 -27t-62.5 -9.5q-49 0 -92 15.5t-81 49.5zM133 534h-45l95 140h70l95 -140h-45l-85 94z" />
    <glyph glyph-name="Scedilla" unicode="&#x15e;" horiz-adv-x="524" 
d="M247 -9q-64 5 -114 34.5t-92 81.5l43 36q15 -19 34 -36.5t42.5 -30.5t51.5 -21t61 -8q26 0 52 9t46.5 26t33 41.5t12.5 54.5q0 39 -16.5 65t-43.5 44.5t-60.5 32.5t-67.5 29q-17 8 -33 15.5t-31 17.5q-39 24 -67 57.5t-28 86.5q0 41 15.5 75t42 58t63 37.5t78.5 13.5
q34 0 61.5 -7t49.5 -17t39 -22.5t29 -22.5l-36 -43q-32 26 -64 40.5t-77 14.5q-29 0 -55 -8.5t-45 -25t-30 -39.5t-11 -51t12 -48t32.5 -35.5t46.5 -28t55 -24.5q24 -11 48 -21.5t47 -24.5q22 -14 41 -30.5t33.5 -37t23 -45.5t8.5 -56q0 -39 -14 -72t-38 -57.5t-57 -39.5
t-72 -18l-22 -131h-75z" />
    <glyph glyph-name="scedilla" unicode="&#x15f;" horiz-adv-x="427" 
d="M82 95q57 -51 136 -51q17 0 35.5 4.5t34 14.5t25.5 25t10 36q0 20 -10 33.5t-26.5 23t-38.5 16t-45 12.5q-26 7 -51.5 15.5t-46 22t-33 34t-12.5 52.5t13.5 57t35.5 42t50.5 25.5t58.5 8.5q49 0 84 -14t61 -34l-31 -40q-29 19 -54 26.5t-60 7.5q-18 0 -36 -4.5
t-32.5 -14.5t-23.5 -24.5t-9 -34.5q0 -17 9 -28.5t24.5 -19.5t36 -14t42.5 -12q27 -7 54 -16t48.5 -24t35 -37t13.5 -56q0 -29 -10.5 -52.5t-29.5 -41t-44 -28t-54 -13.5l-22 -132h-75l48 131q-42 4 -79 19.5t-69 44.5z" />
    <glyph glyph-name="Scaron" unicode="&#x160;" horiz-adv-x="524" 
d="M84 143q15 -19 34 -36.5t42.5 -30.5t51.5 -21t61 -8q26 0 52 9t46.5 26t33 41.5t12.5 54.5q0 40 -17 66t-44.5 44.5t-62 32.5t-69.5 30q-15 7 -30 14.5t-29 16.5q-39 24 -67 57.5t-28 86.5q0 41 15.5 75t42 58t63 37.5t78.5 13.5q34 0 61.5 -7t49.5 -17t39 -22.5
t29 -22.5l-36 -43q-32 26 -64 40.5t-77 14.5q-29 0 -55 -8.5t-45 -25t-30 -39.5t-11 -51q0 -27 11.5 -46.5t30.5 -35t44 -27.5t52 -24q26 -11 52.5 -22.5t50.5 -26.5q22 -14 41 -30.5t33.5 -37t23 -45.5t8.5 -56q0 -42 -16 -76.5t-43.5 -59t-64.5 -38.5t-80 -14
q-73 0 -130 30t-102 87zM272 809l85 94h45l-95 -140h-70l-95 140h45z" />
    <glyph glyph-name="scaron" unicode="&#x161;" horiz-adv-x="427" 
d="M82 95q57 -51 136 -51q17 0 35.5 4.5t34 14.5t25.5 25t10 36q0 22 -12 36t-31.5 24t-44.5 16.5t-50 13.5q-24 7 -46.5 15.5t-40 22t-28 33t-10.5 48.5q0 32 13.5 57t35.5 42t50.5 25.5t58.5 8.5q49 0 84 -14t61 -34l-31 -40q-29 19 -54 26.5t-60 7.5q-18 0 -36 -4.5
t-32.5 -14.5t-23.5 -24.5t-9 -34.5q0 -17 9 -28.5t24.5 -19.5t35.5 -14t42 -12q27 -7 54 -16t49 -24t35.5 -37t13.5 -56q0 -32 -13 -57.5t-35 -43t-51.5 -27t-62.5 -9.5q-49 0 -92 15.5t-81 49.5zM218 580l85 94h45l-95 -140h-70l-95 140h45z" />
    <glyph glyph-name="uni0162" unicode="&#x162;" horiz-adv-x="512" 
d="M236 0h-10v643h-200v57h460v-57h-200v-643h-10l-20 -140h-75z" />
    <glyph glyph-name="uni0163" unicode="&#x163;" horiz-adv-x="373" 
d="M189 131q0 -29 5 -43.5t13 -23.5q18 -20 49 -20q19 0 35.5 7t29.5 15l26 -43q-20 -14 -41.5 -22.5t-47.5 -10.5l-21 -130h-75l49 136q-20 6 -36 20q-21 17 -32 45.5t-11 73.5v267h-110v54h110v151h57v-151h138v-54h-138v-271z" />
    <glyph glyph-name="Tcaron" unicode="&#x164;" horiz-adv-x="512" 
d="M486 700v-57h-200v-643h-60v643h-200v57h460zM256 809l85 94h45l-95 -140h-70l-95 140h45z" />
    <glyph glyph-name="tcaron" unicode="&#x165;" horiz-adv-x="373" 
d="M347 23q-20 -15 -43.5 -24t-52.5 -9q-21 0 -41.5 7t-34.5 19q-21 17 -32 45.5t-11 73.5v267h-110v54h110v151h57v-151h138v-54h-138v-271q0 -29 5 -43.5t13 -23.5q18 -20 49 -20q19 0 35.5 7t29.5 15zM369 700l-95 -140h-45l65 140h75z" />
    <glyph glyph-name="Tbar" unicode="&#x166;" horiz-adv-x="546" 
d="M303 360v-360h-60v360h-160v55h160v228h-200v57h460v-57h-200v-228h160v-55h-160z" />
    <glyph glyph-name="tbar" unicode="&#x167;" horiz-adv-x="390" 
d="M202 131q0 -29 5 -43.5t13 -23.5q18 -20 49 -20q19 0 35.5 7t29.5 15l26 -43q-20 -15 -43.5 -24t-52.5 -9q-21 0 -41.5 7t-34.5 19q-21 17 -32 45.5t-11 73.5v92h-110v54h110v121h-110v54h110v151h57v-151h138v-54h-138v-121h138v-54h-138v-96z" />
    <glyph glyph-name="Utilde" unicode="&#x168;" horiz-adv-x="744" 
d="M372 -10q-76 0 -139 34.5t-100 92.5q-20 31 -30.5 69t-10.5 94v420h60v-423q0 -46 8 -76t23 -54q29 -46 79 -73t110 -27t110 27t79 73q15 24 23 54t8 76v423h60v-420q0 -56 -10.5 -94t-30.5 -69q-37 -58 -100 -92.5t-139 -34.5zM235 796q0 15 5 30t14 27t23 19.5t32 7.5
q19 0 35.5 -7t31.5 -15.5t29 -15.5t28 -7q16 0 25 10.5t11 34.5l40 -11q0 -15 -5 -30t-14 -27t-23 -19.5t-32 -7.5q-19 0 -35.5 7t-31.5 15.5t-29 15.5t-28 7q-16 0 -25 -10.5t-11 -34.5z" />
    <glyph glyph-name="utilde" unicode="&#x169;" horiz-adv-x="575" 
d="M432 62q-24 -32 -65 -52t-89 -20q-57 0 -101.5 25t-69.5 69q-13 23 -20 53t-7 76v243h57v-234q0 -48 7 -74t19 -44q18 -27 47.5 -43.5t67.5 -16.5q47 0 88 26t64 69v317h57v-456h-55v62zM151 568q0 15 5 30t14 27t23 19.5t32 7.5q19 0 35.5 -7t31.5 -15.5t29 -15.5t28 -7
q16 0 25 10.5t11 34.5l40 -11q0 -15 -5 -30t-14 -27t-23 -19.5t-32 -7.5q-19 0 -35.5 7t-31.5 15.5t-29 15.5t-28 7q-16 0 -25 -10.5t-11 -34.5z" />
    <glyph glyph-name="Umacron" unicode="&#x16a;" horiz-adv-x="744" 
d="M372 -10q-76 0 -139 34.5t-100 92.5q-20 31 -30.5 69t-10.5 94v420h60v-423q0 -46 8 -76t23 -54q29 -46 79 -73t110 -27t110 27t79 73q15 24 23 54t8 76v423h60v-420q0 -56 -10.5 -94t-30.5 -69q-37 -58 -100 -92.5t-139 -34.5zM512 848v-50h-280v50h280z" />
    <glyph glyph-name="umacron" unicode="&#x16b;" horiz-adv-x="575" 
d="M432 62q-24 -32 -65 -52t-89 -20q-57 0 -101.5 25t-69.5 69q-13 23 -20 53t-7 76v243h57v-234q0 -48 7 -74t19 -44q18 -27 47.5 -43.5t67.5 -16.5q47 0 88 26t64 69v317h57v-456h-55v62zM428 619v-50h-280v50h280z" />
    <glyph glyph-name="Ubreve" unicode="&#x16c;" horiz-adv-x="744" 
d="M372 -10q-76 0 -139 34.5t-100 92.5q-20 31 -30.5 69t-10.5 94v420h60v-423q0 -46 8 -76t23 -54q29 -46 79 -73t110 -27t110 27t79 73q15 24 23 54t8 76v423h60v-420q0 -56 -10.5 -94t-30.5 -69q-37 -58 -100 -92.5t-139 -34.5zM497 888q0 -26 -10 -48.5t-27 -39.5
t-39.5 -27t-48.5 -10t-48.5 10t-39.5 27t-27 39.5t-10 48.5h50q0 -31 22 -53t53 -22t53 22t22 53h50z" />
    <glyph glyph-name="ubreve" unicode="&#x16d;" horiz-adv-x="575" 
d="M432 62q-24 -32 -65 -52t-89 -20q-57 0 -101.5 25t-69.5 69q-13 23 -20 53t-7 76v243h57v-234q0 -48 7 -74t19 -44q18 -27 47.5 -43.5t67.5 -16.5q47 0 88 26t64 69v317h57v-456h-55v62zM414 659q0 -26 -10 -48.5t-27 -39.5t-39.5 -27t-48.5 -10t-48.5 10t-39.5 27
t-27 39.5t-10 48.5h50q0 -31 22 -53t53 -22t53 22t22 53h50z" />
    <glyph glyph-name="Uring" unicode="&#x16e;" horiz-adv-x="744" 
d="M372 -10q-76 0 -139 34.5t-100 92.5q-20 31 -30.5 69t-10.5 94v420h60v-423q0 -46 8 -76t23 -54q29 -46 79 -73t110 -27t110 27t79 73q15 24 23 54t8 76v423h60v-420q0 -56 -10.5 -94t-30.5 -69q-37 -58 -100 -92.5t-139 -34.5zM282 851q0 38 26 64t64 26t64 -26t26 -64
t-26 -64t-64 -26t-64 26t-26 64zM322 851q0 -21 14.5 -35.5t35.5 -14.5t35.5 14.5t14.5 35.5t-14.5 35.5t-35.5 14.5t-35.5 -14.5t-14.5 -35.5z" />
    <glyph glyph-name="uring" unicode="&#x16f;" horiz-adv-x="575" 
d="M432 62q-24 -32 -65 -52t-89 -20q-57 0 -101.5 25t-69.5 69q-13 23 -20 53t-7 76v243h57v-234q0 -48 7 -74t19 -44q18 -27 47.5 -43.5t67.5 -16.5q47 0 88 26t64 69v317h57v-456h-55v62zM198 622q0 38 26 64t64 26t64 -26t26 -64t-26 -64t-64 -26t-64 26t-26 64zM238 622
q0 -21 14.5 -35.5t35.5 -14.5t35.5 14.5t14.5 35.5t-14.5 35.5t-35.5 14.5t-35.5 -14.5t-14.5 -35.5z" />
    <glyph glyph-name="Uhungarumlaut" unicode="&#x170;" horiz-adv-x="744" 
d="M372 -10q-76 0 -139 34.5t-100 92.5q-20 31 -30.5 69t-10.5 94v420h60v-423q0 -46 8 -76t23 -54q29 -46 79 -73t110 -27t110 27t79 73q15 24 23 54t8 76v423h60v-420q0 -56 -10.5 -94t-30.5 -69q-37 -58 -100 -92.5t-139 -34.5zM411 903l-95 -140h-45l65 140h75zM561 903
l-95 -140h-45l65 140h75z" />
    <glyph glyph-name="uhungarumlaut" unicode="&#x171;" horiz-adv-x="575" 
d="M432 62q-24 -32 -65 -52t-89 -20q-57 0 -101.5 25t-69.5 69q-13 23 -20 53t-7 76v243h57v-234q0 -48 7 -74t19 -44q18 -27 47.5 -43.5t67.5 -16.5q47 0 88 26t64 69v317h57v-456h-55v62zM331 674l-95 -140h-45l65 140h75zM481 674l-95 -140h-45l65 140h75z" />
    <glyph glyph-name="Uogonek" unicode="&#x172;" horiz-adv-x="744" 
d="M372 -10q-76 0 -139 34.5t-100 92.5q-20 31 -30.5 69t-10.5 94v420h60v-423q0 -46 8 -76t23 -54q29 -46 79 -73t110 -27t110 27t79 73q15 24 23 54t8 76v423h60v-420q0 -56 -10.5 -94t-30.5 -69q-17 -26 -39.5 -47.5t-49.5 -38.5q-14 -9 -29 -22.5t-28.5 -31t-22 -38.5
t-8.5 -44q0 -26 17.5 -44t46.5 -18q13 0 23 1.5t17 3.5l10 -49q-5 -2 -19 -5.5t-31 -3.5q-23 0 -45 7.5t-38.5 21.5t-26.5 34t-10 46q0 31 12.5 58t32.5 48q-28 -5 -51 -5z" />
    <glyph glyph-name="uogonek" unicode="&#x173;" horiz-adv-x="575" 
d="M487 0q-13 -8 -26.5 -18.5t-25 -24t-18.5 -30t-7 -34.5q0 -30 20 -45t44 -15q13 0 23 1.5t17 3.5l10 -49q-5 -2 -19 -5.5t-31 -3.5q-23 0 -45 7.5t-38.5 21.5t-26.5 34t-10 46q0 42 23.5 72.5t54.5 50.5v50q-24 -32 -65 -52t-89 -20q-57 0 -101.5 25t-69.5 69
q-13 23 -20 53t-7 76v243h57v-234q0 -48 7 -74t19 -44q18 -27 47.5 -43.5t67.5 -16.5q47 0 88 26t64 69v317h57v-456z" />
    <glyph glyph-name="Wcircumflex" unicode="&#x174;" horiz-adv-x="956" 
d="M498 700l187 -579l188 579h61l-230 -700h-40l-186 575l-186 -575h-40l-230 700h61l188 -579l187 579h40zM393 763h-45l95 140h70l95 -140h-45l-85 94z" />
    <glyph glyph-name="wcircumflex" unicode="&#x175;" horiz-adv-x="744" 
d="M229 0h-37l-165 456h58l127 -357l142 357h36l141 -357l127 357h59l-165 -456h-37l-143 361zM287 534h-45l95 140h70l95 -140h-45l-85 94z" />
    <glyph glyph-name="Ycircumflex" unicode="&#x176;" horiz-adv-x="600" 
d="M330 329v-329h-60v329l-240 371h68l203 -314l202 314h67zM215 763h-45l95 140h70l95 -140h-45l-85 94z" />
    <glyph glyph-name="ycircumflex" unicode="&#x177;" horiz-adv-x="527" 
d="M120 -240l124 265l-220 431h62l187 -368l171 368h60l-323 -696h-61zM189 534h-45l95 140h70l95 -140h-45l-85 94z" />
    <glyph glyph-name="Ydieresis" unicode="&#x178;" horiz-adv-x="600" 
d="M330 329v-329h-60v329l-240 371h68l203 -314l202 314h67zM331 828q0 21 14.5 36t35.5 15t36 -15t15 -36t-15 -35.5t-36 -14.5t-35.5 14.5t-14.5 35.5zM168 828q0 21 14.5 36t35.5 15t36 -15t15 -36t-15 -35.5t-36 -14.5t-35.5 14.5t-14.5 35.5z" />
    <glyph glyph-name="Zacute" unicode="&#x179;" horiz-adv-x="563" 
d="M434 643h-379v57h460v-37l-407 -606h427v-57h-510v37zM376 903l-96 -140h-46l66 140h76z" />
    <glyph glyph-name="zacute" unicode="&#x17a;" horiz-adv-x="477" 
d="M340 402h-279v54h365v-34l-305 -368h315v-54h-400v34zM331 674l-95 -140h-45l65 140h75z" />
    <glyph glyph-name="Zdotaccent" unicode="&#x17b;" horiz-adv-x="563" 
d="M434 643h-379v57h460v-37l-407 -606h427v-57h-510v37zM230 828q0 21 14.5 36t35.5 15t36 -15t15 -36t-15 -35.5t-36 -14.5t-35.5 14.5t-14.5 35.5z" />
    <glyph glyph-name="zdotaccent" unicode="&#x17c;" horiz-adv-x="477" 
d="M340 402h-279v54h365v-34l-305 -368h315v-54h-400v34zM186 599q0 21 14.5 36t35.5 15t36 -15t15 -36t-15 -35.5t-36 -14.5t-35.5 14.5t-14.5 35.5z" />
    <glyph glyph-name="Zcaron" unicode="&#x17d;" horiz-adv-x="563" 
d="M434 643h-379v57h460v-37l-407 -606h427v-57h-510v37zM281 809l85 94h45l-95 -140h-70l-95 140h45z" />
    <glyph glyph-name="zcaron" unicode="&#x17e;" horiz-adv-x="477" 
d="M340 402h-279v54h365v-34l-305 -368h315v-54h-400v34zM236 580l85 94h45l-95 -140h-70l-95 140h45z" />
    <glyph glyph-name="longs" unicode="&#x17f;" horiz-adv-x="253" 
d="M275 649q-23 17 -56 17t-54 -23q-10 -11 -15 -27.5t-5 -47.5v-568h-57v568q0 45 11.5 73t31.5 46q36 33 89 33q25 0 47.5 -9t35.5 -21z" />
    <glyph glyph-name="uni018F" unicode="&#x18f;" horiz-adv-x="750" 
d="M367 47q54 0 99.5 19t80 52.5t57 80t31.5 102.5h-529q5 -58 27.5 -105t58 -80t80.5 -51t95 -18zM637 358q-2 61 -21.5 114.5t-55.5 93.5t-87.5 63.5t-117.5 23.5q-78 0 -142.5 -31t-111.5 -78l-38 36q21 23 50 46t66 42t81 30.5t95 11.5q79 0 142.5 -28.5t107.5 -77.5
t68 -114.5t24 -139.5t-24 -139.5t-67.5 -114.5t-104.5 -77.5t-134 -28.5q-69 0 -128 25.5t-102 71t-67.5 107t-24.5 133.5v12.5t2 18.5h590z" />
    <glyph glyph-name="uni0190" unicode="&#x190;" horiz-adv-x="545" 
d="M288 -10q-57 0 -100 17t-72 46.5t-44 69t-15 83.5q0 31 9 59t24 51.5t35 41t42 28.5q-35 20 -60 57.5t-25 86.5q0 43 15.5 77t42.5 56.5t63 34.5t77 12q34 0 63 -7.5t54 -20t44.5 -28t33.5 -31.5l-37 -37q-28 26 -66.5 46.5t-91.5 20.5q-62 0 -100 -34t-38 -89
q0 -26 9 -47.5t28 -37.5q17 -14 44 -22t76 -8h68v-57h-57q-45 0 -74.5 -7t-52.5 -21q-29 -19 -47.5 -49.5t-18.5 -74.5q0 -38 13 -68t36 -50t54.5 -30.5t67.5 -10.5q63 0 112 25t85 69l42 -32q-45 -58 -107 -88.5t-132 -30.5z" />
    <glyph glyph-name="florin" unicode="&#x192;" horiz-adv-x="487" 
d="M181 -81q-7 -43 -16 -69.5t-21 -44.5q-19 -28 -46.5 -41.5t-62.5 -13.5q-25 0 -53 11.5t-50 36.5l34 35q11 -11 27 -20t41 -9q20 0 39 9t30 29q8 13 13 30.5t10 51.5l68 435h-139v54h147l21 128q7 43 16 69.5t21 44.5q19 28 46.5 41.5t62.5 13.5q25 0 53 -11.5t50 -36.5
l-34 -35q-11 11 -27 20t-41 9q-20 0 -39 -9t-30 -29q-8 -13 -13 -30.5t-10 -51.5l-20 -123h160v-54h-168z" />
    <glyph glyph-name="uni0194" unicode="&#x194;" horiz-adv-x="597" 
d="M331 97l43 -105q12 -31 20 -63t8 -64q0 -21 -6 -42t-18.5 -37t-31.5 -26t-45 -10t-45 10t-31.5 26t-18.5 37t-6 42q0 32 8 64t20 63l42 104l-245 604h63l213 -528l213 528h61zM301 -196q16 0 30 14.5t14 46.5q0 29 -7 54.5t-19 57.5l-18 47l-18 -47q-12 -31 -19 -57
t-7 -55q0 -32 14 -46.5t30 -14.5z" />
    <glyph glyph-name="uni0197" unicode="&#x197;" horiz-adv-x="274" 
d="M167 0h-60v360h-80v55h80v285h60v-285h80v-55h-80v-360z" />
    <glyph glyph-name="uni019D" unicode="&#x19d;" horiz-adv-x="772" 
d="M-31 -174q13 -8 29.5 -15t35.5 -7q31 0 49 20q8 9 13 23.5t5 43.5v809h40l470 -583v583h60v-700h-40l-470 583v-688q0 -45 -11 -73.5t-32 -45.5q-14 -12 -35.5 -19t-42.5 -7q-29 0 -53 9t-44 24z" />
    <glyph glyph-name="uni01B5" unicode="&#x1b5;" horiz-adv-x="571" 
d="M283 415l154 228h-379v57h460v-37l-167 -248h127v-55h-164l-203 -303h427v-57h-510v37l217 323h-127v55h165z" />
    <glyph glyph-name="uni01B6" unicode="&#x1b6;" horiz-adv-x="484" 
d="M225 260l118 142h-279v54h365v-34l-135 -162h115v-50h-156l-129 -156h315v-54h-400v34l145 176h-100v50h141z" />
    <glyph glyph-name="uni01CD" unicode="&#x1cd;" horiz-adv-x="670" 
d="M355 700l302 -700h-61l-91 211h-342l-91 -211h-59l302 700h40zM188 268h292l-146 340zM336 809l85 94h45l-95 -140h-70l-95 140h45z" />
    <glyph glyph-name="uni01CE" unicode="&#x1ce;" horiz-adv-x="592" 
d="M449 0v67q-26 -35 -68 -56t-96 -21q-32 0 -67 9.5t-69 33.5q-45 32 -71 82.5t-26 112.5q0 57 23 105.5t62 81.5q29 23 66 37t79 14q50 0 93 -19t74 -54v63h55v-456h-55zM447 320q-8 13 -22.5 29t-35.5 30t-48 23.5t-58 9.5q-29 0 -57.5 -9.5t-52.5 -29.5
q-30 -25 -47 -62.5t-17 -82.5q0 -48 19.5 -87.5t52.5 -62.5q22 -15 48 -24.5t55 -9.5q51 0 93.5 26.5t69.5 73.5v176zM303 580l85 94h45l-95 -140h-70l-95 140h45z" />
    <glyph glyph-name="uni01CF" unicode="&#x1cf;" horiz-adv-x="262" 
d="M101 700h60v-700h-60v700zM131 809l85 94h45l-95 -140h-70l-95 140h45z" />
    <glyph glyph-name="uni01D0" unicode="&#x1d0;" horiz-adv-x="233" 
d="M88 456h57v-456h-57v456zM118 580l85 94h45l-95 -140h-70l-95 140h45z" />
    <glyph glyph-name="uni01D1" unicode="&#x1d1;" horiz-adv-x="800" 
d="M52 350q0 76 26.5 142t73 114.5t110.5 76t138 27.5t138 -27.5t110.5 -76t73 -114.5t26.5 -142q0 -77 -26.5 -142.5t-73 -114t-110.5 -76t-138 -27.5t-138 27.5t-110.5 76t-73 114t-26.5 142.5zM112 350q0 -62 21 -117.5t59.5 -96.5t91.5 -65t116 -24t116 24t91.5 65
t59.5 96.5t21 117.5t-21 117t-59.5 96.5t-91.5 65.5t-116 24t-116 -24t-91.5 -65.5t-59.5 -96.5t-21 -117zM400 809l85 94h45l-95 -140h-70l-95 140h45z" />
    <glyph glyph-name="uni01D2" unicode="&#x1d2;" horiz-adv-x="574" 
d="M465 228q0 38 -13.5 71.5t-37 58.5t-56 39.5t-71.5 14.5t-71.5 -14.5t-56 -39.5t-37 -58.5t-13.5 -71.5t13.5 -71.5t37 -58.5t56 -39.5t71.5 -14.5t71.5 14.5t56 39.5t37 58.5t13.5 71.5zM522 228q0 -49 -17.5 -92.5t-49 -75.5t-74.5 -51t-94 -19t-94 19t-74.5 51
t-49 75.5t-17.5 92.5t17.5 92.5t49 75.5t74.5 51t94 19t94 -19t74.5 -51t49 -75.5t17.5 -92.5zM287 580l85 94h45l-95 -140h-70l-95 140h45z" />
    <glyph glyph-name="uni01D3" unicode="&#x1d3;" horiz-adv-x="744" 
d="M372 -10q-76 0 -139 34.5t-100 92.5q-20 31 -30.5 69t-10.5 94v420h60v-423q0 -46 8 -76t23 -54q29 -46 79 -73t110 -27t110 27t79 73q15 24 23 54t8 76v423h60v-420q0 -56 -10.5 -94t-30.5 -69q-37 -58 -100 -92.5t-139 -34.5zM373 809l85 94h45l-95 -140h-70l-95 140
h45z" />
    <glyph glyph-name="uni01D4" unicode="&#x1d4;" horiz-adv-x="575" 
d="M432 62q-24 -32 -65 -52t-89 -20q-57 0 -101.5 25t-69.5 69q-13 23 -20 53t-7 76v243h57v-234q0 -48 7 -74t19 -44q18 -27 47.5 -43.5t67.5 -16.5q47 0 88 26t64 69v317h57v-456h-55v62zM291 580l85 94h45l-95 -140h-70l-95 140h45z" />
    <glyph glyph-name="Gcaron" unicode="&#x1e6;" horiz-adv-x="743" 
d="M403 710q75 0 141.5 -28t112.5 -79l-39 -39q-38 38 -93.5 63.5t-121.5 25.5q-63 0 -116.5 -23.5t-92 -65t-60.5 -96.5t-22 -118q0 -64 22 -119t61.5 -96t94 -64.5t119.5 -23.5t119 24t94 65v222h-230v57h290v-296q-23 -29 -52.5 -52.5t-64.5 -40.5t-74 -26.5t-79 -9.5
q-78 0 -144 27t-114 75t-75 114t-27 144q0 76 26.5 141.5t73.5 114t111 76.5t140 28zM399 809l85 94h45l-95 -140h-70l-95 140h45z" />
    <glyph glyph-name="gcaron" unicode="&#x1e7;" horiz-adv-x="592" 
d="M504 2q0 -51 -5.5 -85.5t-19.5 -61.5q-24 -46 -72.5 -75.5t-121.5 -29.5q-62 0 -117 27t-94 82l42 29q31 -39 73.5 -61.5t95.5 -22.5q57 0 92 22.5t52 55.5q11 21 14.5 48t3.5 70v65q-26 -33 -67 -54t-95 -21q-32 0 -67 9.5t-69 33.5q-45 32 -71 82.5t-26 112.5
q0 57 23 105.5t62 81.5q29 23 66 37t79 14q50 0 93 -19t74 -54v63h55v-454zM447 320q-8 13 -22.5 29t-35.5 30t-48 23.5t-58 9.5q-29 0 -57.5 -9.5t-52.5 -29.5q-30 -25 -47 -62.5t-17 -82.5q0 -48 19.5 -87.5t52.5 -62.5q22 -15 48 -24.5t55 -9.5q51 0 93.5 26.5t69.5 73.5
v176zM303 580l85 94h45l-95 -140h-70l-95 140h45z" />
    <glyph glyph-name="uni01E8" unicode="&#x1e8;" horiz-adv-x="602" 
d="M521 0l-360 354v-354h-60v700h60v-314l341 314h79l-358 -330l378 -370h-80zM313 809l85 94h45l-95 -140h-70l-95 140h45z" />
    <glyph glyph-name="uni01E9" unicode="&#x1e9;" horiz-adv-x="492" 
d="M404 0l-259 241v-241h-57v710h57v-444l226 190h83l-242 -202l272 -254h-80zM119 794l85 94h45l-95 -140h-70l-95 140h45z" />
    <glyph glyph-name="uni01EA" unicode="&#x1ea;" horiz-adv-x="800" 
d="M52 350q0 76 26.5 142t73 114.5t110.5 76t138 27.5t138 -27.5t110.5 -76t73 -114.5t26.5 -142q0 -69 -22 -130t-61 -108t-92.5 -77.5t-117.5 -40.5q-24 -16 -45.5 -41.5t-21.5 -59.5q0 -30 20 -45t44 -15q13 0 23 1.5t17 3.5l10 -49q-5 -2 -19 -5.5t-31 -3.5
q-23 0 -45 7.5t-38.5 21.5t-26.5 34t-10 46q0 32 14 57t35 45q-71 3 -131 32t-104 77t-69 112t-25 138zM112 350q0 -62 21 -117.5t59.5 -96.5t91.5 -65t116 -24t116 24t91.5 65t59.5 96.5t21 117.5t-21 117t-59.5 96.5t-91.5 65.5t-116 24t-116 -24t-91.5 -65.5t-59.5 -96.5
t-21 -117z" />
    <glyph glyph-name="uni01EB" unicode="&#x1eb;" horiz-adv-x="574" 
d="M522 228q0 -41 -12 -77.5t-34.5 -66.5t-53.5 -52t-68 -32q-13 -8 -26.5 -18.5t-24.5 -24t-18 -30t-7 -34.5q0 -30 20 -45t44 -15q13 0 23 1.5t17 3.5l10 -49q-5 -2 -19 -5.5t-31 -3.5q-23 0 -45 7.5t-38.5 21.5t-26.5 34t-10 46q0 32 14 57t35 45q-48 3 -88 22.5
t-69.5 51.5t-45.5 74t-16 89q0 49 17.5 92.5t49 75.5t74.5 51t94 19t94 -19t74.5 -51t49 -75.5t17.5 -92.5zM465 228q0 38 -13.5 71.5t-37 58.5t-56 39.5t-71.5 14.5t-71.5 -14.5t-56 -39.5t-37 -58.5t-13.5 -71.5t13.5 -71.5t37 -58.5t56 -39.5t71.5 -14.5t71.5 14.5
t56 39.5t37 58.5t13.5 71.5z" />
    <glyph glyph-name="uni01F8" unicode="&#x1f8;" horiz-adv-x="772" 
d="M101 700h40l470 -583v583h60v-700h-40l-470 583v-583h-60v700zM367 903l65 -140h-45l-95 140h75z" />
    <glyph glyph-name="uni01F9" unicode="&#x1f9;" horiz-adv-x="585" 
d="M143 392q28 37 70.5 55.5t90.5 18.5q50 0 92 -19.5t70 -57.5q19 -25 29 -57.5t10 -88.5v-243h-57v239q0 45 -7 70t-19 42q-20 29 -50.5 45t-68.5 16q-50 0 -91 -25t-67 -70v-317h-57v456h55v-64zM271 674l65 -140h-45l-95 140h75z" />
    <glyph glyph-name="Aringacute" unicode="&#x1fa;" horiz-adv-x="670" 
d="M245 821q0 38 26 64t64 26t64 -26t26 -64t-26 -64t-64 -26t-64 26t-26 64zM285 821q0 -21 14.5 -35.5t35.5 -14.5t35.5 14.5t14.5 35.5t-14.5 35.5t-35.5 14.5t-35.5 -14.5t-14.5 -35.5zM445 1057l-86 -120h-45l56 120h75zM355 700l302 -700h-61l-91 211h-342l-91 -211
h-59l302 700h40zM188 268h292l-146 340z" />
    <glyph glyph-name="aringacute" unicode="&#x1fb;" horiz-adv-x="592" 
d="M397 883l-95 -140h-45l65 140h75zM449 0v67q-26 -35 -68 -56t-96 -21q-32 0 -67 9.5t-69 33.5q-45 32 -71 82.5t-26 112.5q0 57 23 105.5t62 81.5q29 23 66 37t79 14q50 0 93 -19t74 -54v63h55v-456h-55zM447 320q-8 13 -22.5 29t-35.5 30t-48 23.5t-58 9.5
q-29 0 -57.5 -9.5t-52.5 -29.5q-30 -25 -47 -62.5t-17 -82.5q0 -48 19.5 -87.5t52.5 -62.5q22 -15 48 -24.5t55 -9.5q51 0 93.5 26.5t69.5 73.5v176zM207 607q0 38 26 64t64 26t64 -26t26 -64t-26 -64t-64 -26t-64 26t-26 64zM247 607q0 -21 14.5 -35.5t35.5 -14.5
t35.5 14.5t14.5 35.5t-14.5 35.5t-35.5 14.5t-35.5 -14.5t-14.5 -35.5z" />
    <glyph glyph-name="AEacute" unicode="&#x1fc;" horiz-adv-x="894" 
d="M516 643v-228h250v-57h-250v-301h330v-57h-390v211h-267l-127 -211h-66l418 700h422v-57h-320zM456 268v392l-233 -392h233zM608 903l-96 -140h-46l66 140h76z" />
    <glyph glyph-name="aeacute" unicode="&#x1fd;" horiz-adv-x="813" 
d="M233 466q25 0 50.5 -6t48 -18.5t40.5 -31t29 -43.5q26 45 68.5 72t94.5 27q43 0 80 -17.5t63.5 -47.5t41.5 -70.5t15 -87.5v-8t-1 -12h-344q1 -38 12 -70.5t31.5 -56.5t49.5 -38t67 -14q44 0 74.5 16.5t59.5 48.5l37 -35q-31 -38 -73 -61t-96 -23q-58 0 -104.5 26
t-78.5 79q-39 -59 -87.5 -82t-97.5 -23q-38 0 -68.5 12t-52.5 32t-34 47t-12 56q0 39 16.5 68t43.5 48t60 28.5t66 9.5q26 0 48 -4t39.5 -9.5t29 -10.5t15.5 -8v7q0 36 -6.5 58t-18.5 38q-19 25 -46.5 37.5t-59.5 12.5q-42 0 -75 -14t-55 -30l-31 42q22 19 63 37.5t98 18.5z
M215 44q30 0 55.5 9.5t46 24.5t35 33.5t23.5 36.5q-3 12 -5.5 24.5t-3.5 25.5q-20 15 -54 27t-73 12q-57 0 -96.5 -26t-39.5 -74q0 -19 8 -36t23 -29.5t35.5 -20t45.5 -7.5zM564 412q-57 0 -94 -38.5t-50 -98.5h285q-3 31 -15 56t-31 43t-43.5 28t-51.5 10zM522 674
l-95 -140h-45l65 140h75z" />
    <glyph glyph-name="Oslashacute" unicode="&#x1fe;" horiz-adv-x="800" 
d="M400 -10q-51 0 -97.5 13.5t-85.5 37.5l-29 -41h-66l52 73q-57 49 -89.5 120.5t-32.5 156.5q0 76 26.5 142t73 114.5t110.5 76t138 27.5q51 0 97.5 -13.5t85.5 -37.5l29 41h66l-52 -73q57 -49 89.5 -120.5t32.5 -156.5q0 -77 -26.5 -142.5t-73 -114t-110.5 -76t-138 -27.5
zM688 350q0 69 -25.5 127.5t-70.5 100.5l-343 -489q32 -20 70 -31t81 -11q63 0 116 24t91.5 65t59.5 96.5t21 117.5zM112 350q0 -69 25 -127.5t70 -100.5l343 489q-32 20 -70 31t-80 11q-63 0 -116 -24t-91.5 -65.5t-59.5 -96.5t-21 -117zM501 903l-96 -140h-46l66 140h76z
" />
    <glyph glyph-name="oslashacute" unicode="&#x1ff;" horiz-adv-x="574" 
d="M287 -10q-32 0 -61 8t-54 22l-14 -20h-64l35 50q-36 33 -56.5 79t-20.5 99q0 49 17.5 92.5t49 75.5t74.5 51t94 19q32 0 61 -8t54 -22l14 20h64l-35 -50q36 -33 56.5 -79t20.5 -99q0 -49 -17.5 -92.5t-49 -75.5t-74.5 -51t-94 -19zM109 228q0 -40 14 -74t39 -60l207 298
q-37 20 -82 20q-39 0 -71.5 -14.5t-56 -39.5t-37 -58.5t-13.5 -71.5zM465 228q0 39 -14 73.5t-40 59.5l-206 -298q38 -19 82 -19q39 0 71.5 14.5t56 39.5t37 58.5t13.5 71.5zM382 674l-95 -140h-45l65 140h75z" />
    <glyph glyph-name="uni0218" unicode="&#x218;" horiz-adv-x="524" 
d="M84 143q15 -19 34 -36.5t42.5 -30.5t51.5 -21t61 -8q26 0 52 9t46.5 26t33 41.5t12.5 54.5q0 40 -17 66t-44.5 44.5t-62 32.5t-69.5 30q-15 7 -30 14.5t-29 16.5q-39 24 -67 57.5t-28 86.5q0 41 15.5 75t42 58t63 37.5t78.5 13.5q34 0 61.5 -7t49.5 -17t39 -22.5
t29 -22.5l-36 -43q-32 26 -64 40.5t-77 14.5q-29 0 -55 -8.5t-45 -25t-30 -39.5t-11 -51q0 -27 11.5 -46.5t30.5 -35t44 -27.5t52 -24q26 -11 52.5 -22.5t50.5 -26.5q22 -14 41 -30.5t33.5 -37t23 -45.5t8.5 -56q0 -42 -16 -76.5t-43.5 -59t-64.5 -38.5t-80 -14
q-73 0 -130 30t-102 87zM312 -45l-95 -140h-45l65 140h75z" />
    <glyph glyph-name="uni0219" unicode="&#x219;" horiz-adv-x="427" 
d="M82 95q57 -51 136 -51q17 0 35.5 4.5t34 14.5t25.5 25t10 36q0 22 -12 36t-31.5 24t-44.5 16.5t-50 13.5q-24 7 -46.5 15.5t-40 22t-28 33t-10.5 48.5q0 32 13.5 57t35.5 42t50.5 25.5t58.5 8.5q49 0 84 -14t61 -34l-31 -40q-29 19 -54 26.5t-60 7.5q-18 0 -36 -4.5
t-32.5 -14.5t-23.5 -24.5t-9 -34.5q0 -17 9 -28.5t24.5 -19.5t35.5 -14t42 -12q27 -7 54 -16t49 -24t35.5 -37t13.5 -56q0 -32 -13 -57.5t-35 -43t-51.5 -27t-62.5 -9.5q-49 0 -92 15.5t-81 49.5zM270 -45l-95 -140h-45l65 140h75z" />
    <glyph glyph-name="uni021A" unicode="&#x21a;" horiz-adv-x="512" 
d="M486 700v-57h-200v-643h-60v643h-200v57h460zM302 -45l-95 -140h-45l65 140h75z" />
    <glyph glyph-name="uni021B" unicode="&#x21b;" horiz-adv-x="373" 
d="M347 23q-20 -15 -43.5 -24t-52.5 -9q-21 0 -41.5 7t-34.5 19q-21 17 -32 45.5t-11 73.5v267h-110v54h110v151h57v-151h138v-54h-138v-271q0 -29 5 -43.5t13 -23.5q18 -20 49 -20q19 0 35.5 7t29.5 15zM295 -45l-95 -140h-45l65 140h75z" />
    <glyph glyph-name="uni021E" unicode="&#x21e;" horiz-adv-x="772" 
d="M611 358h-450v-358h-60v700h60v-285h450v285h60v-700h-60v358zM386 809l85 94h45l-95 -140h-70l-95 140h45z" />
    <glyph glyph-name="uni021F" unicode="&#x21f;" horiz-adv-x="585" 
d="M145 395q27 36 70 53.5t89 17.5q50 0 92 -19.5t70 -57.5q19 -25 29 -57.5t10 -88.5v-243h-57v239q0 45 -7 70t-19 42q-20 29 -50.5 45t-68.5 16q-50 0 -91 -25t-67 -70v-317h-57v710h57v-315zM119 794l85 94h45l-95 -140h-70l-95 140h45z" />
    <glyph glyph-name="uni022E" unicode="&#x22e;" horiz-adv-x="800" 
d="M52 350q0 76 26.5 142t73 114.5t110.5 76t138 27.5t138 -27.5t110.5 -76t73 -114.5t26.5 -142q0 -77 -26.5 -142.5t-73 -114t-110.5 -76t-138 -27.5t-138 27.5t-110.5 76t-73 114t-26.5 142.5zM112 350q0 -62 21 -117.5t59.5 -96.5t91.5 -65t116 -24t116 24t91.5 65
t59.5 96.5t21 117.5t-21 117t-59.5 96.5t-91.5 65.5t-116 24t-116 -24t-91.5 -65.5t-59.5 -96.5t-21 -117zM350 828q0 21 14.5 36t35.5 15t36 -15t15 -36t-15 -35.5t-36 -14.5t-35.5 14.5t-14.5 35.5z" />
    <glyph glyph-name="uni022F" unicode="&#x22f;" horiz-adv-x="574" 
d="M465 228q0 38 -13.5 71.5t-37 58.5t-56 39.5t-71.5 14.5t-71.5 -14.5t-56 -39.5t-37 -58.5t-13.5 -71.5t13.5 -71.5t37 -58.5t56 -39.5t71.5 -14.5t71.5 14.5t56 39.5t37 58.5t13.5 71.5zM522 228q0 -49 -17.5 -92.5t-49 -75.5t-74.5 -51t-94 -19t-94 19t-74.5 51
t-49 75.5t-17.5 92.5t17.5 92.5t49 75.5t74.5 51t94 19t94 -19t74.5 -51t49 -75.5t17.5 -92.5zM237 599q0 21 14.5 36t35.5 15t36 -15t15 -36t-15 -35.5t-36 -14.5t-35.5 14.5t-14.5 35.5z" />
    <glyph glyph-name="uni0232" unicode="&#x232;" horiz-adv-x="600" 
d="M330 329v-329h-60v329l-240 371h68l203 -314l202 314h67zM440 848v-50h-280v50h280z" />
    <glyph glyph-name="uni0233" unicode="&#x233;" horiz-adv-x="527" 
d="M120 -240l124 265l-220 431h62l187 -368l171 368h60l-323 -696h-61zM410 619v-50h-280v50h280z" />
    <glyph glyph-name="uni0237" unicode="&#x237;" horiz-adv-x="241" 
d="M-34 -179q23 -17 56 -17t54 23q10 11 15 27.5t5 47.5v554h57v-554q0 -45 -11.5 -73t-31.5 -46q-36 -33 -89 -33q-25 0 -47.5 9t-35.5 21z" />
    <glyph glyph-name="uni0244" unicode="&#x244;" horiz-adv-x="766" 
d="M383 -10q-76 0 -139 34.5t-100 92.5q-20 31 -30.5 69t-10.5 94v80h-80v55h80v285h60v-285h440v285h60v-285h80v-55h-80v-80q0 -56 -10.5 -94t-30.5 -69q-37 -58 -100 -92.5t-139 -34.5zM572 147q15 24 23 54t8 76v83h-440v-83q0 -46 8 -76t23 -54q29 -46 79 -73t110 -27
t110 27t79 73z" />
    <glyph glyph-name="uni0259" unicode="&#x259;" horiz-adv-x="531" 
d="M260 44q30 0 56 10.5t46.5 28.5t34.5 43t20 55h-310q4 -30 17.5 -55t34 -43.5t46 -28.5t55.5 -10zM63 382q35 41 84 62.5t101 21.5t94.5 -17.5t72.5 -49t46.5 -75t16.5 -96.5q0 -49 -16 -92.5t-44.5 -75.5t-69 -51t-88.5 -19q-46 0 -84.5 17t-67 47t-44.5 70.5t-16 88.5
v8t1 12h372q-1 37 -12 70t-33 57t-55 38t-78 14q-43 0 -80 -19t-64 -48z" />
    <glyph glyph-name="uni025B" unicode="&#x25b;" horiz-adv-x="459" 
d="M233 -10q-38 0 -71 10.5t-57 29.5t-37.5 46t-13.5 60q0 38 19 66.5t47 42.5q-21 14 -36 37.5t-15 53.5q0 33 13.5 57.5t35.5 40.5t50.5 24t58.5 8q28 0 53 -6t46 -15t37.5 -20t28.5 -21l-31 -39q-23 18 -56 32.5t-77 14.5q-19 0 -37 -4.5t-32.5 -14t-23.5 -24t-9 -33.5
q0 -16 6 -28.5t16 -20.5q13 -11 32 -16t51 -5h74v-49h-76q-36 0 -57 -5.5t-35 -16.5q-26 -21 -26 -59q0 -26 11.5 -43.5t29.5 -28.5t39.5 -15.5t42.5 -4.5q54 0 91 18t66 49l38 -33q-37 -46 -90 -67t-106 -21z" />
    <glyph glyph-name="uni0263" unicode="&#x263;" horiz-adv-x="502" 
d="M280 7l24 -55q14 -30 24 -59t10 -53q0 -42 -25 -66t-61 -24t-61 24t-25 66q0 24 10 53t24 59l22 52l-196 452h60l166 -384l165 384h59zM252 -60l-4 -10q-6 -16 -15.5 -41.5t-9.5 -46.5q0 -22 9 -30t20 -8t20 8t9 30q0 21 -9.5 46.5t-15.5 41.5z" />
    <glyph glyph-name="uni0268" unicode="&#x268;" horiz-adv-x="259" 
d="M79 614q0 21 14.5 36t35.5 15t36 -15t15 -36t-15 -35.5t-36 -14.5t-35.5 14.5t-14.5 35.5zM101 0v260h-75v50h75v146h57v-146h75v-50h-75v-260h-57z" />
    <glyph glyph-name="uni0272" unicode="&#x272;" horiz-adv-x="585" 
d="M143 392q28 37 70.5 55.5t90.5 18.5q50 0 92 -19.5t70 -57.5q19 -25 29 -57.5t10 -88.5v-243h-57v239q0 45 -7 70t-19 42q-20 29 -50.5 45t-68.5 16q-50 0 -91 -25t-67 -70v-422q0 -45 -11 -73.5t-32 -45.5q-14 -12 -34 -19t-41 -7q-29 0 -51.5 9t-42.5 24l26 43
q13 -8 28.5 -15t34.5 -7q30 0 48 20q8 9 13 23.5t5 43.5v565h55v-64z" />
    <glyph glyph-name="uni0289" unicode="&#x289;" horiz-adv-x="602" 
d="M94 310v146h57v-146h293v146h57v-146h75v-50h-75v-260h-55v62q-24 -32 -65 -52t-89 -20q-57 0 -101.5 25t-69.5 69q-13 23 -20 53t-7 76v47h-75v50h75zM292 44q47 0 88 26t64 69v121h-293v-38q0 -48 7 -74t19 -44q18 -27 47.5 -43.5t67.5 -16.5z" />
    <glyph glyph-name="uni02BB" unicode="&#x2bb;" horiz-adv-x="242" 
d="M129 460h-75l96 240h50z" />
    <glyph glyph-name="uni02BC" unicode="&#x2bc;" horiz-adv-x="236" 
d="M128 700h75l-96 -240h-50z" />
    <glyph glyph-name="circumflex" unicode="&#x2c6;" horiz-adv-x="400" 
d="M115 534h-45l95 140h70l95 -140h-45l-85 94z" />
    <glyph glyph-name="caron" unicode="&#x2c7;" horiz-adv-x="400" 
d="M200 580l85 94h45l-95 -140h-70l-95 140h45z" />
    <glyph glyph-name="uni02C9" unicode="&#x2c9;" horiz-adv-x="500" 
d="M350 619v-50h-280v50h280z" />
    <glyph glyph-name="breve" unicode="&#x2d8;" horiz-adv-x="390" 
d="M320 659q0 -26 -10 -48.5t-27 -39.5t-39.5 -27t-48.5 -10t-48.5 10t-39.5 27t-27 39.5t-10 48.5h50q0 -31 22 -53t53 -22t53 22t22 53h50z" />
    <glyph glyph-name="dotaccent" unicode="&#x2d9;" horiz-adv-x="241" 
d="M70 599q0 21 14.5 36t35.5 15t36 -15t15 -36t-15 -35.5t-36 -14.5t-35.5 14.5t-14.5 35.5z" />
    <glyph glyph-name="ring" unicode="&#x2da;" horiz-adv-x="320" 
d="M70 622q0 38 26 64t64 26t64 -26t26 -64t-26 -64t-64 -26t-64 26t-26 64zM110 622q0 -21 14.5 -35.5t35.5 -14.5t35.5 14.5t14.5 35.5t-14.5 35.5t-35.5 14.5t-35.5 -14.5t-14.5 -35.5z" />
    <glyph glyph-name="ogonek" unicode="&#x2db;" horiz-adv-x="310" 
d="M203 0q-13 -8 -26.5 -18.5t-25 -24t-18.5 -30t-7 -34.5q0 -30 20 -45t44 -15q13 0 23 1.5t17 3.5l10 -49q-5 -2 -19 -5.5t-31 -3.5q-23 0 -45 7.5t-38.5 21.5t-26.5 34t-10 46q0 42 23.5 72.5t54.5 50.5z" />
    <glyph glyph-name="tilde" unicode="&#x2dc;" horiz-adv-x="414" 
d="M70 568q0 15 5 30t14 27t23 19.5t32 7.5q19 0 35.5 -7t31.5 -15.5t29 -15.5t28 -7q16 0 25 10.5t11 34.5l40 -11q0 -15 -5 -30t-14 -27t-23 -19.5t-32 -7.5q-19 0 -35.5 7t-31.5 15.5t-29 15.5t-28 7q-16 0 -25 -10.5t-11 -34.5z" />
    <glyph glyph-name="hungarumlaut" unicode="&#x2dd;" horiz-adv-x="430" 
d="M210 674l-95 -140h-45l65 140h75zM360 674l-95 -140h-45l65 140h75z" />
    <glyph glyph-name="gravecomb" unicode="&#x300;" horiz-adv-x="1" 
d="M-322 674l65 -140h-45l-95 140h75z" />
    <glyph glyph-name="acutecomb" unicode="&#x301;" horiz-adv-x="1" 
d="M-158 674l-95 -140h-45l65 140h75z" />
    <glyph glyph-name="uni0302" unicode="&#x302;" horiz-adv-x="1" 
d="M-364 534h-45l95 140h70l95 -140h-45l-85 94z" />
    <glyph glyph-name="tildecomb" unicode="&#x303;" horiz-adv-x="1" 
d="M-416 568q0 15 5 30t14 27t23 19.5t32 7.5q19 0 35.5 -7t31.5 -15.5t29 -15.5t28 -7q16 0 25 10.5t11 34.5l40 -11q0 -15 -5 -30t-14 -27t-23 -19.5t-32 -7.5q-19 0 -35.5 7t-31.5 15.5t-29 15.5t-28 7q-16 0 -25 -10.5t-11 -34.5z" />
    <glyph glyph-name="uni0304" unicode="&#x304;" horiz-adv-x="1" 
d="M-69 619v-50h-280v50h280z" />
    <glyph glyph-name="uni0306" unicode="&#x306;" horiz-adv-x="1" 
d="M-69 659q0 -26 -10 -48.5t-27 -39.5t-39.5 -27t-48.5 -10t-48.5 10t-39.5 27t-27 39.5t-10 48.5h50q0 -31 22 -53t53 -22t53 22t22 53h50z" />
    <glyph glyph-name="uni0307" unicode="&#x307;" horiz-adv-x="1" 
d="M-163 599q0 21 14.5 36t35.5 15t36 -15t15 -36t-15 -35.5t-36 -14.5t-35.5 14.5t-14.5 35.5z" />
    <glyph glyph-name="uni0308" unicode="&#x308;" horiz-adv-x="1" 
d="M-170 599q0 21 14.5 36t35.5 15t36 -15t15 -36t-15 -35.5t-36 -14.5t-35.5 14.5t-14.5 35.5zM-333 599q0 21 14.5 36t35.5 15t36 -15t15 -36t-15 -35.5t-36 -14.5t-35.5 14.5t-14.5 35.5z" />
    <glyph glyph-name="uni030A" unicode="&#x30a;" horiz-adv-x="1" 
d="M-249 622q0 38 26 64t64 26t64 -26t26 -64t-26 -64t-64 -26t-64 26t-26 64zM-209 622q0 -21 14.5 -35.5t35.5 -14.5t35.5 14.5t14.5 35.5t-14.5 35.5t-35.5 14.5t-35.5 -14.5t-14.5 -35.5z" />
    <glyph glyph-name="uni030B" unicode="&#x30b;" horiz-adv-x="1" 
d="M-219 674l-95 -140h-45l65 140h75zM-69 674l-95 -140h-45l65 140h75z" />
    <glyph glyph-name="uni030C" unicode="&#x30c;" horiz-adv-x="1" 
d="M-209 580l85 94h45l-95 -140h-70l-95 140h45z" />
    <glyph glyph-name="uni0312" unicode="&#x312;" horiz-adv-x="1" 
d="M-325 534l95 140h45l-65 -140h-75z" />
    <glyph glyph-name="uni0313" unicode="&#x313;" horiz-adv-x="1" 
d="M-29 700l-95 -140h-45l65 140h75z" />
    <glyph glyph-name="dotbelowcomb" unicode="&#x323;" horiz-adv-x="1" 
d="M-163 -120q0 21 14.5 36t35.5 15t36 -15t15 -36t-15 -35.5t-36 -14.5t-35.5 14.5t-14.5 35.5z" />
    <glyph glyph-name="uni0326" unicode="&#x326;" horiz-adv-x="1" 
d="M160 -45l-95 -140h-45l65 140h75z" />
    <glyph glyph-name="uni0327" unicode="&#x327;" horiz-adv-x="1" 
d="M125 10h45l-25 -150h-75z" />
    <glyph glyph-name="uni0328" unicode="&#x328;" horiz-adv-x="1" 
d="M203 0q-13 -8 -26.5 -18.5t-25 -24t-18.5 -30t-7 -34.5q0 -30 20 -45t44 -15q13 0 23 1.5t17 3.5l10 -49q-5 -2 -19 -5.5t-31 -3.5q-23 0 -45 7.5t-38.5 21.5t-26.5 34t-10 46q0 42 23.5 72.5t54.5 50.5z" />
    <glyph glyph-name="uni032E" unicode="&#x32e;" horiz-adv-x="1" 
d="M-69 -55q0 -26 -10 -48.5t-27 -39.5t-39.5 -27t-48.5 -10t-48.5 10t-39.5 27t-27 39.5t-10 48.5h50q0 -31 22 -53t53 -22t53 22t22 53h50z" />
    <glyph glyph-name="uni0331" unicode="&#x331;" horiz-adv-x="1" 
d="M-69 -92v-50h-280v50h280z" />
    <glyph glyph-name="uni0335" unicode="&#x335;" horiz-adv-x="1" 
d="M-69 253v-50h-280v50h280z" />
    <glyph glyph-name="anoteleia" unicode="&#x387;" horiz-adv-x="304" 
d="M100 228q0 22 15 37t37 15t37 -15t15 -37t-15 -37t-37 -15t-37 15t-15 37z" />
    <glyph glyph-name="uni0394" unicode="&#x394;" horiz-adv-x="605" 
d="M578 34v-34h-549v34l256 666h37zM94 54h419l-210 540z" />
    <glyph glyph-name="uni03A9" unicode="&#x3a9;" horiz-adv-x="839" 
d="M420 656q-60 0 -113.5 -22.5t-93 -63t-63 -95.5t-23.5 -120q0 -79 25 -138.5t56 -100.5q36 -48 82 -82v-34h-220v54h125q-36 34 -63 80q-23 39 -42.5 94.5t-19.5 126.5q0 73 26.5 137.5t73 113t110.5 76.5t140 28t140 -28t110.5 -76.5t73 -113t26.5 -137.5
q0 -71 -20 -126.5t-43 -94.5q-27 -46 -62 -80h125v-54h-220v34q45 34 81 82q31 41 56.5 100.5t25.5 138.5q0 65 -23.5 120t-63 95.5t-93 63t-113.5 22.5z" />
    <glyph glyph-name="uni03BC" unicode="&#x3bc;" horiz-adv-x="583" 
d="M287 -10q-43 0 -79.5 16.5t-61.5 48.5v-295h-57v696h57v-234q0 -48 7 -74t19 -44q18 -27 47.5 -43.5t67.5 -16.5q47 0 88 26t64 69v317h57v-456h-55v62q-24 -32 -65 -52t-89 -20z" />
    <glyph glyph-name="pi" unicode="&#x3c0;" horiz-adv-x="567" 
d="M19 356q14 23 36.5 45.5t56.5 36.5q20 8 45.5 13t60.5 5h321v-54h-100v-271q0 -14 1.5 -28.5t6.5 -28.5q9 -22 32 -39l-32 -45q-11 8 -25 22t-25 36q-7 14 -11 34.5t-4 57.5v262h-156v-402h-57v397q-63 -5 -102 -70z" />
    <glyph glyph-name="uni1E02" unicode="&#x1e02;" horiz-adv-x="629" 
d="M521 529q0 -40 -17 -74.5t-46 -57.5q54 -25 88.5 -76t34.5 -114q0 -47 -18.5 -86t-50.5 -68q-28 -25 -66 -39t-93 -14h-252v700h229q49 0 81.5 -12.5t55.5 -34.5q25 -23 39.5 -55t14.5 -69zM161 358v-301h189q46 0 75.5 11t49.5 31q21 20 33.5 48t12.5 60t-12.5 60
t-33.5 48q-20 20 -49.5 31.5t-75.5 11.5h-189zM327 415q40 0 64 10t40 27q30 32 30 77t-30 77q-16 17 -40 27t-64 10h-166v-228h166zM236 828q0 21 14.5 36t35.5 15t36 -15t15 -36t-15 -35.5t-36 -14.5t-35.5 14.5t-14.5 35.5z" />
    <glyph glyph-name="uni1E03" unicode="&#x1e03;" horiz-adv-x="592" 
d="M145 144q27 -47 69.5 -73.5t93.5 -26.5q29 0 55 9.5t48 24.5q33 23 52.5 62.5t19.5 87.5q0 45 -17 82.5t-47 62.5q-24 20 -52.5 29.5t-57.5 9.5q-32 0 -58.5 -9.5t-47.5 -23.5t-36 -30t-22 -29v-176zM307 -10q-54 0 -96 21t-68 56v-67h-55v710h57v-315q32 35 74.5 53
t90.5 18q42 0 79 -14t66 -37q39 -33 62 -81.5t23 -105.5q0 -62 -26 -112.5t-71 -82.5q-34 -24 -69 -33.5t-67 -9.5zM275 599q0 21 14.5 36t35.5 15t36 -15t15 -36t-15 -35.5t-36 -14.5t-35.5 14.5t-14.5 35.5z" />
    <glyph glyph-name="uni1E0A" unicode="&#x1e0a;" horiz-adv-x="743" 
d="M631 350q0 71 -29 132t-81 102q-38 29 -88.5 44t-124.5 15h-147v-586h147q74 0 124.5 15t88.5 44q52 41 81 102t29 132zM691 350q0 -88 -37 -162t-102 -122q-43 -32 -100 -49t-141 -17h-210v700h210q84 0 141 -17t100 -49q65 -48 102 -122t37 -162zM271 828q0 21 14.5 36
t35.5 15t36 -15t15 -36t-15 -35.5t-36 -14.5t-35.5 14.5t-14.5 35.5z" />
    <glyph glyph-name="uni1E0B" unicode="&#x1e0b;" horiz-adv-x="592" 
d="M447 320q-8 13 -22.5 29t-35.5 30t-48 23.5t-58 9.5q-29 0 -57.5 -9.5t-52.5 -29.5q-30 -25 -47 -62.5t-17 -82.5q0 -48 19.5 -87.5t52.5 -62.5q22 -15 48 -24.5t55 -9.5q51 0 93.5 26.5t69.5 73.5v176zM285 -10q-32 0 -67 9.5t-69 33.5q-45 32 -71 82.5t-26 112.5
q0 57 23 105.5t62 81.5q29 23 66 37t79 14q48 0 90.5 -18t74.5 -53v315h57v-710h-55v67q-26 -35 -68 -56t-96 -21zM216 599q0 21 14.5 36t35.5 15t36 -15t15 -36t-15 -35.5t-36 -14.5t-35.5 14.5t-14.5 35.5z" />
    <glyph glyph-name="uni1E0C" unicode="&#x1e0c;" horiz-adv-x="743" 
d="M631 350q0 71 -29 132t-81 102q-38 29 -88.5 44t-124.5 15h-147v-586h147q74 0 124.5 15t88.5 44q52 41 81 102t29 132zM691 350q0 -88 -37 -162t-102 -122q-43 -32 -100 -49t-141 -17h-210v700h210q84 0 141 -17t100 -49q65 -48 102 -122t37 -162zM278 -120
q0 21 14.5 36t35.5 15t36 -15t15 -36t-15 -35.5t-36 -14.5t-35.5 14.5t-14.5 35.5z" />
    <glyph glyph-name="uni1E0D" unicode="&#x1e0d;" horiz-adv-x="592" 
d="M447 320q-8 13 -22.5 29t-35.5 30t-48 23.5t-58 9.5q-29 0 -57.5 -9.5t-52.5 -29.5q-30 -25 -47 -62.5t-17 -82.5q0 -48 19.5 -87.5t52.5 -62.5q22 -15 48 -24.5t55 -9.5q51 0 93.5 26.5t69.5 73.5v176zM285 -10q-32 0 -67 9.5t-69 33.5q-45 32 -71 82.5t-26 112.5
q0 57 23 105.5t62 81.5q29 23 66 37t79 14q48 0 90.5 -18t74.5 -53v315h57v-710h-55v67q-26 -35 -68 -56t-96 -21zM249 -120q0 21 14.5 36t35.5 15t36 -15t15 -36t-15 -35.5t-36 -14.5t-35.5 14.5t-14.5 35.5z" />
    <glyph glyph-name="uni1E0E" unicode="&#x1e0e;" horiz-adv-x="743" 
d="M631 350q0 71 -29 132t-81 102q-38 29 -88.5 44t-124.5 15h-147v-586h147q74 0 124.5 15t88.5 44q52 41 81 102t29 132zM691 350q0 -88 -37 -162t-102 -122q-43 -32 -100 -49t-141 -17h-210v700h210q84 0 141 -17t100 -49q65 -48 102 -122t37 -162zM447 -92v-50h-280v50
h280z" />
    <glyph glyph-name="uni1E0F" unicode="&#x1e0f;" horiz-adv-x="592" 
d="M447 320q-8 13 -22.5 29t-35.5 30t-48 23.5t-58 9.5q-29 0 -57.5 -9.5t-52.5 -29.5q-30 -25 -47 -62.5t-17 -82.5q0 -48 19.5 -87.5t52.5 -62.5q22 -15 48 -24.5t55 -9.5q51 0 93.5 26.5t69.5 73.5v176zM285 -10q-32 0 -67 9.5t-69 33.5q-45 32 -71 82.5t-26 112.5
q0 57 23 105.5t62 81.5q29 23 66 37t79 14q48 0 90.5 -18t74.5 -53v315h57v-710h-55v67q-26 -35 -68 -56t-96 -21zM438 -92v-50h-280v50h280z" />
    <glyph glyph-name="uni1E10" unicode="&#x1e10;" horiz-adv-x="743" 
d="M631 350q0 71 -29 132t-81 102q-38 29 -88.5 44t-124.5 15h-147v-586h147q74 0 124.5 15t88.5 44q52 41 81 102t29 132zM691 350q0 -88 -37 -162t-102 -122q-43 -32 -100 -49t-141 -17h-210v700h210q84 0 141 -17t100 -49q65 -48 102 -122t37 -162zM381 -45l-95 -140h-45
l65 140h75z" />
    <glyph glyph-name="uni1E11" unicode="&#x1e11;" horiz-adv-x="592" 
d="M447 320q-8 13 -22.5 29t-35.5 30t-48 23.5t-58 9.5q-29 0 -57.5 -9.5t-52.5 -29.5q-30 -25 -47 -62.5t-17 -82.5q0 -48 19.5 -87.5t52.5 -62.5q22 -15 48 -24.5t55 -9.5q51 0 93.5 26.5t69.5 73.5v176zM285 -10q-32 0 -67 9.5t-69 33.5q-45 32 -71 82.5t-26 112.5
q0 57 23 105.5t62 81.5q29 23 66 37t79 14q48 0 90.5 -18t74.5 -53v315h57v-710h-55v67q-26 -35 -68 -56t-96 -21zM352 -45l-95 -140h-45l65 140h75z" />
    <glyph glyph-name="uni1E1E" unicode="&#x1e1e;" horiz-adv-x="506" 
d="M161 643v-228h250v-57h-250v-358h-60v700h380v-57h-320zM251 828q0 21 14.5 36t35.5 15t36 -15t15 -36t-15 -35.5t-36 -14.5t-35.5 14.5t-14.5 35.5z" />
    <glyph glyph-name="uni1E1F" unicode="&#x1e1f;" horiz-adv-x="349" 
d="M320 649q-23 17 -56 17t-54 -23q-10 -11 -15 -27.5t-5 -47.5v-112h138v-54h-138v-402h-57v402h-110v54h110v112q0 45 11.5 73t31.5 46q36 33 89 33q25 0 47.5 -9t35.5 -21zM200 813q0 21 14.5 36t35.5 15t36 -15t15 -36t-15 -35.5t-36 -14.5t-35.5 14.5t-14.5 35.5z" />
    <glyph glyph-name="uni1E20" unicode="&#x1e20;" horiz-adv-x="743" 
d="M403 710q75 0 141.5 -28t112.5 -79l-39 -39q-38 38 -93.5 63.5t-121.5 25.5q-63 0 -116.5 -23.5t-92 -65t-60.5 -96.5t-22 -118q0 -64 22 -119t61.5 -96t94 -64.5t119.5 -23.5t119 24t94 65v222h-230v57h290v-296q-23 -29 -52.5 -52.5t-64.5 -40.5t-74 -26.5t-79 -9.5
q-78 0 -144 27t-114 75t-75 114t-27 144q0 76 26.5 141.5t73.5 114t111 76.5t140 28zM543 848v-50h-280v50h280z" />
    <glyph glyph-name="uni1E21" unicode="&#x1e21;" horiz-adv-x="592" 
d="M504 2q0 -51 -5.5 -85.5t-19.5 -61.5q-24 -46 -72.5 -75.5t-121.5 -29.5q-62 0 -117 27t-94 82l42 29q31 -39 73.5 -61.5t95.5 -22.5q57 0 92 22.5t52 55.5q11 21 14.5 48t3.5 70v65q-26 -33 -67 -54t-95 -21q-32 0 -67 9.5t-69 33.5q-45 32 -71 82.5t-26 112.5
q0 57 23 105.5t62 81.5q29 23 66 37t79 14q50 0 93 -19t74 -54v63h55v-454zM447 320q-8 13 -22.5 29t-35.5 30t-48 23.5t-58 9.5q-29 0 -57.5 -9.5t-52.5 -29.5q-30 -25 -47 -62.5t-17 -82.5q0 -48 19.5 -87.5t52.5 -62.5q22 -15 48 -24.5t55 -9.5q51 0 93.5 26.5t69.5 73.5
v176zM438 619v-50h-280v50h280z" />
    <glyph glyph-name="uni1E22" unicode="&#x1e22;" horiz-adv-x="772" 
d="M611 358h-450v-358h-60v700h60v-285h450v285h60v-700h-60v358zM336 828q0 21 14.5 36t35.5 15t36 -15t15 -36t-15 -35.5t-36 -14.5t-35.5 14.5t-14.5 35.5z" />
    <glyph glyph-name="uni1E23" unicode="&#x1e23;" horiz-adv-x="585" 
d="M145 395q27 36 70 53.5t89 17.5q50 0 92 -19.5t70 -57.5q19 -25 29 -57.5t10 -88.5v-243h-57v239q0 45 -7 70t-19 42q-20 29 -50.5 45t-68.5 16q-50 0 -91 -25t-67 -70v-317h-57v710h57v-315zM66 813q0 21 14.5 36t35.5 15t36 -15t15 -36t-15 -35.5t-36 -14.5t-35.5 14.5
t-14.5 35.5z" />
    <glyph glyph-name="uni1E24" unicode="&#x1e24;" horiz-adv-x="772" 
d="M611 358h-450v-358h-60v700h60v-285h450v285h60v-700h-60v358zM336 -120q0 21 14.5 36t35.5 15t36 -15t15 -36t-15 -35.5t-36 -14.5t-35.5 14.5t-14.5 35.5z" />
    <glyph glyph-name="uni1E25" unicode="&#x1e25;" horiz-adv-x="585" 
d="M145 395q27 36 70 53.5t89 17.5q50 0 92 -19.5t70 -57.5q19 -25 29 -57.5t10 -88.5v-243h-57v239q0 45 -7 70t-19 42q-20 29 -50.5 45t-68.5 16q-50 0 -91 -25t-67 -70v-317h-57v710h57v-315zM245 -120q0 21 14.5 36t35.5 15t36 -15t15 -36t-15 -35.5t-36 -14.5
t-35.5 14.5t-14.5 35.5z" />
    <glyph glyph-name="uni1E2A" unicode="&#x1e2a;" horiz-adv-x="772" 
d="M611 358h-450v-358h-60v700h60v-285h450v285h60v-700h-60v358zM511 -55q0 -26 -10 -48.5t-27 -39.5t-39.5 -27t-48.5 -10t-48.5 10t-39.5 27t-27 39.5t-10 48.5h50q0 -31 22 -53t53 -22t53 22t22 53h50z" />
    <glyph glyph-name="uni1E2B" unicode="&#x1e2b;" horiz-adv-x="585" 
d="M145 395q27 36 70 53.5t89 17.5q50 0 92 -19.5t70 -57.5q19 -25 29 -57.5t10 -88.5v-243h-57v239q0 45 -7 70t-19 42q-20 29 -50.5 45t-68.5 16q-50 0 -91 -25t-67 -70v-317h-57v710h57v-315zM421 -55q0 -26 -10 -48.5t-27 -39.5t-39.5 -27t-48.5 -10t-48.5 10t-39.5 27
t-27 39.5t-10 48.5h50q0 -31 22 -53t53 -22t53 22t22 53h50z" />
    <glyph glyph-name="uni1E36" unicode="&#x1e36;" horiz-adv-x="518" 
d="M161 57h330v-57h-390v700h60v-643zM243 -120q0 21 14.5 36t35.5 15t36 -15t15 -36t-15 -35.5t-36 -14.5t-35.5 14.5t-14.5 35.5z" />
    <glyph glyph-name="uni1E37" unicode="&#x1e37;" horiz-adv-x="233" 
d="M88 710h57v-710h-57v710zM66 -120q0 21 14.5 36t35.5 15t36 -15t15 -36t-15 -35.5t-36 -14.5t-35.5 14.5t-14.5 35.5z" />
    <glyph glyph-name="uni1E38" unicode="&#x1e38;" horiz-adv-x="518" 
d="M161 57h330v-57h-390v700h60v-643zM243 -120q0 21 14.5 36t35.5 15t36 -15t15 -36t-15 -35.5t-36 -14.5t-35.5 14.5t-14.5 35.5zM276 848v-50h-280v50h280z" />
    <glyph glyph-name="uni1E39" unicode="&#x1e39;" horiz-adv-x="233" 
d="M88 710h57v-710h-57v710zM66 -120q0 21 14.5 36t35.5 15t36 -15t15 -36t-15 -35.5t-36 -14.5t-35.5 14.5t-14.5 35.5zM256 833v-50h-280v50h280z" />
    <glyph glyph-name="uni1E3A" unicode="&#x1e3a;" horiz-adv-x="518" 
d="M161 57h330v-57h-390v700h60v-643zM437 -92v-50h-280v50h280z" />
    <glyph glyph-name="uni1E3B" unicode="&#x1e3b;" horiz-adv-x="233" 
d="M88 710h57v-710h-57v710zM256 -92v-50h-280v50h280z" />
    <glyph glyph-name="uni1E3E" unicode="&#x1e3e;" horiz-adv-x="846" 
d="M428 165h-10l-257 402v-567h-60v700h40l283 -441l281 441h40v-700h-60v568zM550 903l-96 -140h-46l66 140h76z" />
    <glyph glyph-name="uni1E3F" unicode="&#x1e3f;" horiz-adv-x="925" 
d="M143 394q25 32 65.5 52t88.5 20q57 0 102 -26t69 -71q12 17 28.5 34.5t38.5 31.5t50 22.5t62 8.5q57 0 101.5 -26t69.5 -70q13 -23 20 -53t7 -76v-241h-57v234q0 48 -7 74t-19 44q-18 27 -47.5 43.5t-67.5 16.5q-27 0 -51 -9t-44 -23.5t-36 -33.5t-26 -40q2 -14 3.5 -30
t1.5 -35v-241h-57v234q0 48 -7 74t-19 44q-18 27 -47.5 43.5t-67.5 16.5q-47 0 -88 -26t-64 -69v-317h-57v456h55v-62zM585 674l-95 -140h-45l65 140h75z" />
    <glyph glyph-name="uni1E40" unicode="&#x1e40;" horiz-adv-x="846" 
d="M428 165h-10l-257 402v-567h-60v700h40l283 -441l281 441h40v-700h-60v568zM373 828q0 21 14.5 36t35.5 15t36 -15t15 -36t-15 -35.5t-36 -14.5t-35.5 14.5t-14.5 35.5z" />
    <glyph glyph-name="uni1E41" unicode="&#x1e41;" horiz-adv-x="925" 
d="M143 394q25 32 65.5 52t88.5 20q57 0 102 -26t69 -71q12 17 28.5 34.5t38.5 31.5t50 22.5t62 8.5q57 0 101.5 -26t69.5 -70q13 -23 20 -53t7 -76v-241h-57v234q0 48 -7 74t-19 44q-18 27 -47.5 43.5t-67.5 16.5q-27 0 -51 -9t-44 -23.5t-36 -33.5t-26 -40q2 -14 3.5 -30
t1.5 -35v-241h-57v234q0 48 -7 74t-19 44q-18 27 -47.5 43.5t-67.5 16.5q-47 0 -88 -26t-64 -69v-317h-57v456h55v-62zM415 599q0 21 14.5 36t35.5 15t36 -15t15 -36t-15 -35.5t-36 -14.5t-35.5 14.5t-14.5 35.5z" />
    <glyph glyph-name="uni1E42" unicode="&#x1e42;" horiz-adv-x="846" 
d="M428 165h-10l-257 402v-567h-60v700h40l283 -441l281 441h40v-700h-60v568zM372 -120q0 21 14.5 36t35.5 15t36 -15t15 -36t-15 -35.5t-36 -14.5t-35.5 14.5t-14.5 35.5z" />
    <glyph glyph-name="uni1E43" unicode="&#x1e43;" horiz-adv-x="925" 
d="M143 394q25 32 65.5 52t88.5 20q57 0 102 -26t69 -71q12 17 28.5 34.5t38.5 31.5t50 22.5t62 8.5q57 0 101.5 -26t69.5 -70q13 -23 20 -53t7 -76v-241h-57v234q0 48 -7 74t-19 44q-18 27 -47.5 43.5t-67.5 16.5q-27 0 -51 -9t-44 -23.5t-36 -33.5t-26 -40q2 -14 3.5 -30
t1.5 -35v-241h-57v234q0 48 -7 74t-19 44q-18 27 -47.5 43.5t-67.5 16.5q-47 0 -88 -26t-64 -69v-317h-57v456h55v-62zM416 -120q0 21 14.5 36t35.5 15t36 -15t15 -36t-15 -35.5t-36 -14.5t-35.5 14.5t-14.5 35.5z" />
    <glyph glyph-name="uni1E44" unicode="&#x1e44;" horiz-adv-x="772" 
d="M101 700h40l470 -583v583h60v-700h-40l-470 583v-583h-60v700zM336 828q0 21 14.5 36t35.5 15t36 -15t15 -36t-15 -35.5t-36 -14.5t-35.5 14.5t-14.5 35.5z" />
    <glyph glyph-name="uni1E45" unicode="&#x1e45;" horiz-adv-x="585" 
d="M143 392q28 37 70.5 55.5t90.5 18.5q50 0 92 -19.5t70 -57.5q19 -25 29 -57.5t10 -88.5v-243h-57v239q0 45 -7 70t-19 42q-20 29 -50.5 45t-68.5 16q-50 0 -91 -25t-67 -70v-317h-57v456h55v-64zM260 599q0 21 14.5 36t35.5 15t36 -15t15 -36t-15 -35.5t-36 -14.5
t-35.5 14.5t-14.5 35.5z" />
    <glyph glyph-name="uni1E46" unicode="&#x1e46;" horiz-adv-x="772" 
d="M101 700h40l470 -583v583h60v-700h-40l-470 583v-583h-60v700zM335 -120q0 21 14.5 36t35.5 15t36 -15t15 -36t-15 -35.5t-36 -14.5t-35.5 14.5t-14.5 35.5z" />
    <glyph glyph-name="uni1E47" unicode="&#x1e47;" horiz-adv-x="585" 
d="M143 392q28 37 70.5 55.5t90.5 18.5q50 0 92 -19.5t70 -57.5q19 -25 29 -57.5t10 -88.5v-243h-57v239q0 45 -7 70t-19 42q-20 29 -50.5 45t-68.5 16q-50 0 -91 -25t-67 -70v-317h-57v456h55v-64zM245 -120q0 21 14.5 36t35.5 15t36 -15t15 -36t-15 -35.5t-36 -14.5
t-35.5 14.5t-14.5 35.5z" />
    <glyph glyph-name="uni1E48" unicode="&#x1e48;" horiz-adv-x="772" 
d="M101 700h40l470 -583v583h60v-700h-40l-470 583v-583h-60v700zM526 -92v-50h-280v50h280z" />
    <glyph glyph-name="uni1E49" unicode="&#x1e49;" horiz-adv-x="585" 
d="M143 392q28 37 70.5 55.5t90.5 18.5q50 0 92 -19.5t70 -57.5q19 -25 29 -57.5t10 -88.5v-243h-57v239q0 45 -7 70t-19 42q-20 29 -50.5 45t-68.5 16q-50 0 -91 -25t-67 -70v-317h-57v456h55v-64zM434 -92v-50h-280v50h280z" />
    <glyph glyph-name="uni1E56" unicode="&#x1e56;" horiz-adv-x="592" 
d="M161 338v-338h-60v700h259q48 0 81 -11t56 -31q29 -25 46.5 -61t17.5 -78t-17.5 -78t-46.5 -61q-23 -20 -56 -31t-81 -11h-199zM357 395q41 0 66 10t42 27t26.5 39t9.5 48t-9.5 48t-26.5 39t-42 27t-66 10h-196v-248h196zM265 828q0 21 14.5 36t35.5 15t36 -15t15 -36
t-15 -35.5t-36 -14.5t-35.5 14.5t-14.5 35.5z" />
    <glyph glyph-name="uni1E57" unicode="&#x1e57;" horiz-adv-x="592" 
d="M88 -240v696h55v-63q31 35 74 54t93 19q42 0 79 -14t66 -37q39 -33 62 -81.5t23 -105.5q0 -62 -26 -112.5t-71 -82.5q-34 -24 -69 -33.5t-67 -9.5q-54 0 -95 21t-67 54v-305h-57zM145 144q27 -47 69.5 -73.5t93.5 -26.5q29 0 55 9.5t48 24.5q33 23 52.5 62.5t19.5 87.5
q0 45 -17 82.5t-47 62.5q-24 20 -52.5 29.5t-57.5 9.5q-32 0 -58.5 -9.5t-47.5 -23.5t-36 -30t-22 -29v-176zM255 599q0 21 14.5 36t35.5 15t36 -15t15 -36t-15 -35.5t-36 -14.5t-35.5 14.5t-14.5 35.5z" />
    <glyph glyph-name="uni1E5A" unicode="&#x1e5a;" horiz-adv-x="621" 
d="M549 0l-270 358h-118v-358h-60v700h239q48 0 80.5 -12t55.5 -33q26 -23 40.5 -55.5t14.5 -70.5t-14.5 -70.5t-40.5 -55.5q-22 -20 -51.5 -31.5t-73.5 -13.5l270 -358h-72zM337 415q38 0 60 8t37 22q17 16 27 37.5t10 46.5t-10 46.5t-27 37.5q-15 14 -37 22t-60 8h-176
v-228h176zM268 -120q0 21 14.5 36t35.5 15t36 -15t15 -36t-15 -35.5t-36 -14.5t-35.5 14.5t-14.5 35.5z" />
    <glyph glyph-name="uni1E5B" unicode="&#x1e5b;" horiz-adv-x="345" 
d="M318 404q-12 2 -16 2h-10q-51 0 -90 -28t-57 -73v-305h-57v456h57v-65q8 12 21.5 24t32 22.5t41 17t49.5 6.5h9.5t19.5 -2v-55zM66 -120q0 21 14.5 36t35.5 15t36 -15t15 -36t-15 -35.5t-36 -14.5t-35.5 14.5t-14.5 35.5z" />
    <glyph glyph-name="uni1E5C" unicode="&#x1e5c;" horiz-adv-x="621" 
d="M549 0l-270 358h-118v-358h-60v700h239q48 0 80.5 -12t55.5 -33q26 -23 40.5 -55.5t14.5 -70.5t-14.5 -70.5t-40.5 -55.5q-22 -20 -51.5 -31.5t-73.5 -13.5l270 -358h-72zM337 415q38 0 60 8t37 22q17 16 27 37.5t10 46.5t-10 46.5t-27 37.5q-15 14 -37 22t-60 8h-176
v-228h176zM268 -120q0 21 14.5 36t35.5 15t36 -15t15 -36t-15 -35.5t-36 -14.5t-35.5 14.5t-14.5 35.5zM437 848v-50h-280v50h280z" />
    <glyph glyph-name="uni1E5D" unicode="&#x1e5d;" horiz-adv-x="345" 
d="M318 404q-12 2 -16 2h-10q-51 0 -90 -28t-57 -73v-305h-57v456h57v-65q8 12 21.5 24t32 22.5t41 17t49.5 6.5h9.5t19.5 -2v-55zM66 -120q0 21 14.5 36t35.5 15t36 -15t15 -36t-15 -35.5t-36 -14.5t-35.5 14.5t-14.5 35.5zM334 619v-50h-280v50h280z" />
    <glyph glyph-name="uni1E5E" unicode="&#x1e5e;" horiz-adv-x="621" 
d="M549 0l-270 358h-118v-358h-60v700h239q48 0 80.5 -12t55.5 -33q26 -23 40.5 -55.5t14.5 -70.5t-14.5 -70.5t-40.5 -55.5q-22 -20 -51.5 -31.5t-73.5 -13.5l270 -358h-72zM337 415q38 0 60 8t37 22q17 16 27 37.5t10 46.5t-10 46.5t-27 37.5q-15 14 -37 22t-60 8h-176
v-228h176zM472 -92v-50h-280v50h280z" />
    <glyph glyph-name="uni1E5F" unicode="&#x1e5f;" horiz-adv-x="345" 
d="M318 404q-12 2 -16 2h-10q-51 0 -90 -28t-57 -73v-305h-57v456h57v-65q8 12 21.5 24t32 22.5t41 17t49.5 6.5h9.5t19.5 -2v-55zM260 -92v-50h-280v50h280z" />
    <glyph glyph-name="uni1E60" unicode="&#x1e60;" horiz-adv-x="524" 
d="M84 143q15 -19 34 -36.5t42.5 -30.5t51.5 -21t61 -8q26 0 52 9t46.5 26t33 41.5t12.5 54.5q0 40 -17 66t-44.5 44.5t-62 32.5t-69.5 30q-15 7 -30 14.5t-29 16.5q-39 24 -67 57.5t-28 86.5q0 41 15.5 75t42 58t63 37.5t78.5 13.5q34 0 61.5 -7t49.5 -17t39 -22.5
t29 -22.5l-36 -43q-32 26 -64 40.5t-77 14.5q-29 0 -55 -8.5t-45 -25t-30 -39.5t-11 -51q0 -27 11.5 -46.5t30.5 -35t44 -27.5t52 -24q26 -11 52.5 -22.5t50.5 -26.5q22 -14 41 -30.5t33.5 -37t23 -45.5t8.5 -56q0 -42 -16 -76.5t-43.5 -59t-64.5 -38.5t-80 -14
q-73 0 -130 30t-102 87zM226 828q0 21 14.5 36t35.5 15t36 -15t15 -36t-15 -35.5t-36 -14.5t-35.5 14.5t-14.5 35.5z" />
    <glyph glyph-name="uni1E61" unicode="&#x1e61;" horiz-adv-x="427" 
d="M82 95q57 -51 136 -51q17 0 35.5 4.5t34 14.5t25.5 25t10 36q0 22 -12 36t-31.5 24t-44.5 16.5t-50 13.5q-24 7 -46.5 15.5t-40 22t-28 33t-10.5 48.5q0 32 13.5 57t35.5 42t50.5 25.5t58.5 8.5q49 0 84 -14t61 -34l-31 -40q-29 19 -54 26.5t-60 7.5q-18 0 -36 -4.5
t-32.5 -14.5t-23.5 -24.5t-9 -34.5q0 -17 9 -28.5t24.5 -19.5t35.5 -14t42 -12q27 -7 54 -16t49 -24t35.5 -37t13.5 -56q0 -32 -13 -57.5t-35 -43t-51.5 -27t-62.5 -9.5q-49 0 -92 15.5t-81 49.5zM172 599q0 21 14.5 36t35.5 15t36 -15t15 -36t-15 -35.5t-36 -14.5
t-35.5 14.5t-14.5 35.5z" />
    <glyph glyph-name="uni1E62" unicode="&#x1e62;" horiz-adv-x="524" 
d="M84 143q15 -19 34 -36.5t42.5 -30.5t51.5 -21t61 -8q26 0 52 9t46.5 26t33 41.5t12.5 54.5q0 40 -17 66t-44.5 44.5t-62 32.5t-69.5 30q-15 7 -30 14.5t-29 16.5q-39 24 -67 57.5t-28 86.5q0 41 15.5 75t42 58t63 37.5t78.5 13.5q34 0 61.5 -7t49.5 -17t39 -22.5
t29 -22.5l-36 -43q-32 26 -64 40.5t-77 14.5q-29 0 -55 -8.5t-45 -25t-30 -39.5t-11 -51q0 -27 11.5 -46.5t30.5 -35t44 -27.5t52 -24q26 -11 52.5 -22.5t50.5 -26.5q22 -14 41 -30.5t33.5 -37t23 -45.5t8.5 -56q0 -42 -16 -76.5t-43.5 -59t-64.5 -38.5t-80 -14
q-73 0 -130 30t-102 87zM218 -120q0 21 14.5 36t35.5 15t36 -15t15 -36t-15 -35.5t-36 -14.5t-35.5 14.5t-14.5 35.5z" />
    <glyph glyph-name="uni1E63" unicode="&#x1e63;" horiz-adv-x="427" 
d="M82 95q57 -51 136 -51q17 0 35.5 4.5t34 14.5t25.5 25t10 36q0 22 -12 36t-31.5 24t-44.5 16.5t-50 13.5q-24 7 -46.5 15.5t-40 22t-28 33t-10.5 48.5q0 32 13.5 57t35.5 42t50.5 25.5t58.5 8.5q49 0 84 -14t61 -34l-31 -40q-29 19 -54 26.5t-60 7.5q-18 0 -36 -4.5
t-32.5 -14.5t-23.5 -24.5t-9 -34.5q0 -17 9 -28.5t24.5 -19.5t35.5 -14t42 -12q27 -7 54 -16t49 -24t35.5 -37t13.5 -56q0 -32 -13 -57.5t-35 -43t-51.5 -27t-62.5 -9.5q-49 0 -92 15.5t-81 49.5zM162 -120q0 21 14.5 36t35.5 15t36 -15t15 -36t-15 -35.5t-36 -14.5
t-35.5 14.5t-14.5 35.5z" />
    <glyph glyph-name="uni1E6A" unicode="&#x1e6a;" horiz-adv-x="512" 
d="M486 700v-57h-200v-643h-60v643h-200v57h460zM206 828q0 21 14.5 36t35.5 15t36 -15t15 -36t-15 -35.5t-36 -14.5t-35.5 14.5t-14.5 35.5z" />
    <glyph glyph-name="uni1E6B" unicode="&#x1e6b;" horiz-adv-x="373" 
d="M347 23q-20 -15 -43.5 -24t-52.5 -9q-21 0 -41.5 7t-34.5 19q-21 17 -32 45.5t-11 73.5v267h-110v54h110v151h57v-151h138v-54h-138v-271q0 -29 5 -43.5t13 -23.5q18 -20 49 -20q19 0 35.5 7t29.5 15zM111 733q0 21 14.5 36t35.5 15t36 -15t15 -36t-15 -35.5t-36 -14.5
t-35.5 14.5t-14.5 35.5z" />
    <glyph glyph-name="uni1E6C" unicode="&#x1e6c;" horiz-adv-x="512" 
d="M486 700v-57h-200v-643h-60v643h-200v57h460zM206 -120q0 21 14.5 36t35.5 15t36 -15t15 -36t-15 -35.5t-36 -14.5t-35.5 14.5t-14.5 35.5z" />
    <glyph glyph-name="uni1E6D" unicode="&#x1e6d;" horiz-adv-x="373" 
d="M347 23q-20 -15 -43.5 -24t-52.5 -9q-21 0 -41.5 7t-34.5 19q-21 17 -32 45.5t-11 73.5v267h-110v54h110v151h57v-151h138v-54h-138v-271q0 -29 5 -43.5t13 -23.5q18 -20 49 -20q19 0 35.5 7t29.5 15zM194 -120q0 21 14.5 36t35.5 15t36 -15t15 -36t-15 -35.5t-36 -14.5
t-35.5 14.5t-14.5 35.5z" />
    <glyph glyph-name="uni1E6E" unicode="&#x1e6e;" horiz-adv-x="512" 
d="M486 700v-57h-200v-643h-60v643h-200v57h460zM396 -92v-50h-280v50h280z" />
    <glyph glyph-name="uni1E6F" unicode="&#x1e6f;" horiz-adv-x="373" 
d="M347 23q-20 -15 -43.5 -24t-52.5 -9q-21 0 -41.5 7t-34.5 19q-21 17 -32 45.5t-11 73.5v267h-110v54h110v151h57v-151h138v-54h-138v-271q0 -29 5 -43.5t13 -23.5q18 -20 49 -20q19 0 35.5 7t29.5 15zM383 -92v-50h-280v50h280z" />
    <glyph glyph-name="uni1E7C" unicode="&#x1e7c;" horiz-adv-x="648" 
d="M629 700l-285 -700h-40l-285 700h62l244 -601l243 601h61zM187 796q0 15 5 30t14 27t23 19.5t32 7.5q19 0 35.5 -7t31.5 -15.5t29 -15.5t28 -7q16 0 25 10.5t11 34.5l40 -11q0 -15 -5 -30t-14 -27t-23 -19.5t-32 -7.5q-19 0 -35.5 7t-31.5 15.5t-29 15.5t-28 7
q-16 0 -25 -10.5t-11 -34.5z" />
    <glyph glyph-name="uni1E7D" unicode="&#x1e7d;" horiz-adv-x="507" 
d="M235 0l-211 456h61l169 -367l170 367h59l-211 -456h-37zM118 568q0 15 5 30t14 27t23 19.5t32 7.5q19 0 35.5 -7t31.5 -15.5t29 -15.5t28 -7q16 0 25 10.5t11 34.5l40 -11q0 -15 -5 -30t-14 -27t-23 -19.5t-32 -7.5q-19 0 -35.5 7t-31.5 15.5t-29 15.5t-28 7
q-16 0 -25 -10.5t-11 -34.5z" />
    <glyph glyph-name="Wgrave" unicode="&#x1e80;" horiz-adv-x="956" 
d="M498 700l187 -579l188 579h61l-230 -700h-40l-186 575l-186 -575h-40l-230 700h61l188 -579l187 579h40zM433 903l65 -140h-45l-95 140h75z" />
    <glyph glyph-name="wgrave" unicode="&#x1e81;" horiz-adv-x="744" 
d="M229 0h-37l-165 456h58l127 -357l142 357h36l141 -357l127 357h59l-165 -456h-37l-143 361zM330 674l65 -140h-45l-95 140h75z" />
    <glyph glyph-name="Wacute" unicode="&#x1e82;" horiz-adv-x="956" 
d="M498 700l187 -579l188 579h61l-230 -700h-40l-186 575l-186 -575h-40l-230 700h61l188 -579l187 579h40zM600 903l-96 -140h-46l66 140h76z" />
    <glyph glyph-name="wacute" unicode="&#x1e83;" horiz-adv-x="744" 
d="M229 0h-37l-165 456h58l127 -357l142 357h36l141 -357l127 357h59l-165 -456h-37l-143 361zM489 674l-95 -140h-45l65 140h75z" />
    <glyph glyph-name="Wdieresis" unicode="&#x1e84;" horiz-adv-x="956" 
d="M498 700l187 -579l188 579h61l-230 -700h-40l-186 575l-186 -575h-40l-230 700h61l188 -579l187 579h40zM509 828q0 21 14.5 36t35.5 15t36 -15t15 -36t-15 -35.5t-36 -14.5t-35.5 14.5t-14.5 35.5zM346 828q0 21 14.5 36t35.5 15t36 -15t15 -36t-15 -35.5t-36 -14.5
t-35.5 14.5t-14.5 35.5z" />
    <glyph glyph-name="wdieresis" unicode="&#x1e85;" horiz-adv-x="744" 
d="M229 0h-37l-165 456h58l127 -357l142 357h36l141 -357l127 357h59l-165 -456h-37l-143 361zM403 599q0 21 14.5 36t35.5 15t36 -15t15 -36t-15 -35.5t-36 -14.5t-35.5 14.5t-14.5 35.5zM240 599q0 21 14.5 36t35.5 15t36 -15t15 -36t-15 -35.5t-36 -14.5t-35.5 14.5
t-14.5 35.5z" />
    <glyph glyph-name="uni1E8A" unicode="&#x1e8a;" horiz-adv-x="580" 
d="M5 0l252 379l-212 321h68l178 -269l178 269h66l-211 -319l251 -381h-68l-217 330l-219 -330h-66zM240 828q0 21 14.5 36t35.5 15t36 -15t15 -36t-15 -35.5t-36 -14.5t-35.5 14.5t-14.5 35.5z" />
    <glyph glyph-name="uni1E8B" unicode="&#x1e8b;" horiz-adv-x="470" 
d="M234 201l-147 -201h-67l182 244l-157 212h67l124 -167l122 167h67l-157 -211l182 -245h-67zM186 599q0 21 14.5 36t35.5 15t36 -15t15 -36t-15 -35.5t-36 -14.5t-35.5 14.5t-14.5 35.5z" />
    <glyph glyph-name="uni1E92" unicode="&#x1e92;" horiz-adv-x="563" 
d="M434 643h-379v57h460v-37l-407 -606h427v-57h-510v37zM227 -120q0 21 14.5 36t35.5 15t36 -15t15 -36t-15 -35.5t-36 -14.5t-35.5 14.5t-14.5 35.5z" />
    <glyph glyph-name="uni1E93" unicode="&#x1e93;" horiz-adv-x="477" 
d="M340 402h-279v54h365v-34l-305 -368h315v-54h-400v34zM198 -120q0 21 14.5 36t35.5 15t36 -15t15 -36t-15 -35.5t-36 -14.5t-35.5 14.5t-14.5 35.5z" />
    <glyph glyph-name="uni1E97" unicode="&#x1e97;" horiz-adv-x="373" 
d="M347 23q-20 -15 -43.5 -24t-52.5 -9q-21 0 -41.5 7t-34.5 19q-21 17 -32 45.5t-11 73.5v267h-110v54h110v151h57v-151h138v-54h-138v-271q0 -29 5 -43.5t13 -23.5q18 -20 49 -20q19 0 35.5 7t29.5 15zM192 733q0 21 14.5 36t35.5 15t36 -15t15 -36t-15 -35.5t-36 -14.5
t-35.5 14.5t-14.5 35.5zM29 733q0 21 14.5 36t35.5 15t36 -15t15 -36t-15 -35.5t-36 -14.5t-35.5 14.5t-14.5 35.5z" />
    <glyph glyph-name="uni1EA0" unicode="&#x1ea0;" horiz-adv-x="670" 
d="M355 700l302 -700h-61l-91 211h-342l-91 -211h-59l302 700h40zM188 268h292l-146 340zM284 -120q0 21 14.5 36t35.5 15t36 -15t15 -36t-15 -35.5t-36 -14.5t-35.5 14.5t-14.5 35.5z" />
    <glyph glyph-name="uni1EA1" unicode="&#x1ea1;" horiz-adv-x="592" 
d="M449 0v67q-26 -35 -68 -56t-96 -21q-32 0 -67 9.5t-69 33.5q-45 32 -71 82.5t-26 112.5q0 57 23 105.5t62 81.5q29 23 66 37t79 14q50 0 93 -19t74 -54v63h55v-456h-55zM447 320q-8 13 -22.5 29t-35.5 30t-48 23.5t-58 9.5q-29 0 -57.5 -9.5t-52.5 -29.5
q-30 -25 -47 -62.5t-17 -82.5q0 -48 19.5 -87.5t52.5 -62.5q22 -15 48 -24.5t55 -9.5q51 0 93.5 26.5t69.5 73.5v176zM249 -120q0 21 14.5 36t35.5 15t36 -15t15 -36t-15 -35.5t-36 -14.5t-35.5 14.5t-14.5 35.5z" />
    <glyph glyph-name="uni1EB8" unicode="&#x1eb8;" horiz-adv-x="539" 
d="M161 643v-228h250v-57h-250v-301h330v-57h-390v700h380v-57h-320zM253 -120q0 21 14.5 36t35.5 15t36 -15t15 -36t-15 -35.5t-36 -14.5t-35.5 14.5t-14.5 35.5z" />
    <glyph glyph-name="uni1EB9" unicode="&#x1eb9;" horiz-adv-x="531" 
d="M271 412q-30 0 -56 -10.5t-46.5 -28.5t-34.5 -43t-20 -55h310q-5 30 -18 55t-33.5 43.5t-46 28.5t-55.5 10zM468 74q-35 -41 -84 -62.5t-101 -21.5t-94.5 17.5t-72.5 49t-46.5 75t-16.5 96.5q0 49 16 92.5t44.5 75.5t69 51t88.5 19q46 0 84.5 -17t67 -47t44.5 -70.5
t16 -88.5v-8t-1 -12h-372q1 -38 12 -70.5t33 -56.5t55 -38t78 -14q43 0 80 19t64 48zM215 -120q0 21 14.5 36t35.5 15t36 -15t15 -36t-15 -35.5t-36 -14.5t-35.5 14.5t-14.5 35.5z" />
    <glyph glyph-name="uni1EBC" unicode="&#x1ebc;" horiz-adv-x="539" 
d="M161 643v-228h250v-57h-250v-301h330v-57h-390v700h380v-57h-320zM157 796q0 15 5 30t14 27t23 19.5t32 7.5q19 0 35.5 -7t31.5 -15.5t29 -15.5t28 -7q16 0 25 10.5t11 34.5l40 -11q0 -15 -5 -30t-14 -27t-23 -19.5t-32 -7.5q-19 0 -35.5 7t-31.5 15.5t-29 15.5t-28 7
q-16 0 -25 -10.5t-11 -34.5z" />
    <glyph glyph-name="uni1EBD" unicode="&#x1ebd;" horiz-adv-x="531" 
d="M271 412q-30 0 -56 -10.5t-46.5 -28.5t-34.5 -43t-20 -55h310q-5 30 -18 55t-33.5 43.5t-46 28.5t-55.5 10zM468 74q-35 -41 -84 -62.5t-101 -21.5t-94.5 17.5t-72.5 49t-46.5 75t-16.5 96.5q0 49 16 92.5t44.5 75.5t69 51t88.5 19q46 0 84.5 -17t67 -47t44.5 -70.5
t16 -88.5v-8t-1 -12h-372q1 -38 12 -70.5t33 -56.5t55 -38t78 -14q43 0 80 19t64 48zM137 568q0 15 5 30t14 27t23 19.5t32 7.5q19 0 35.5 -7t31.5 -15.5t29 -15.5t28 -7q16 0 25 10.5t11 34.5l40 -11q0 -15 -5 -30t-14 -27t-23 -19.5t-32 -7.5q-19 0 -35.5 7t-31.5 15.5
t-29 15.5t-28 7q-16 0 -25 -10.5t-11 -34.5z" />
    <glyph glyph-name="uni1ECA" unicode="&#x1eca;" horiz-adv-x="262" 
d="M101 700h60v-700h-60v700zM81 -120q0 21 14.5 36t35.5 15t36 -15t15 -36t-15 -35.5t-36 -14.5t-35.5 14.5t-14.5 35.5z" />
    <glyph glyph-name="uni1ECB" unicode="&#x1ecb;" horiz-adv-x="233" 
d="M88 456h57v-456h-57v456zM66 614q0 21 14.5 36t35.5 15t36 -15t15 -36t-15 -35.5t-36 -14.5t-35.5 14.5t-14.5 35.5zM68 -120q0 21 14.5 36t35.5 15t36 -15t15 -36t-15 -35.5t-36 -14.5t-35.5 14.5t-14.5 35.5z" />
    <glyph glyph-name="uni1ECC" unicode="&#x1ecc;" horiz-adv-x="800" 
d="M52 350q0 76 26.5 142t73 114.5t110.5 76t138 27.5t138 -27.5t110.5 -76t73 -114.5t26.5 -142q0 -77 -26.5 -142.5t-73 -114t-110.5 -76t-138 -27.5t-138 27.5t-110.5 76t-73 114t-26.5 142.5zM112 350q0 -62 21 -117.5t59.5 -96.5t91.5 -65t116 -24t116 24t91.5 65
t59.5 96.5t21 117.5t-21 117t-59.5 96.5t-91.5 65.5t-116 24t-116 -24t-91.5 -65.5t-59.5 -96.5t-21 -117zM351 -120q0 21 14.5 36t35.5 15t36 -15t15 -36t-15 -35.5t-36 -14.5t-35.5 14.5t-14.5 35.5z" />
    <glyph glyph-name="uni1ECD" unicode="&#x1ecd;" horiz-adv-x="574" 
d="M465 228q0 38 -13.5 71.5t-37 58.5t-56 39.5t-71.5 14.5t-71.5 -14.5t-56 -39.5t-37 -58.5t-13.5 -71.5t13.5 -71.5t37 -58.5t56 -39.5t71.5 -14.5t71.5 14.5t56 39.5t37 58.5t13.5 71.5zM522 228q0 -49 -17.5 -92.5t-49 -75.5t-74.5 -51t-94 -19t-94 19t-74.5 51
t-49 75.5t-17.5 92.5t17.5 92.5t49 75.5t74.5 51t94 19t94 -19t74.5 -51t49 -75.5t17.5 -92.5zM237 -120q0 21 14.5 36t35.5 15t36 -15t15 -36t-15 -35.5t-36 -14.5t-35.5 14.5t-14.5 35.5z" />
    <glyph glyph-name="uni1EE4" unicode="&#x1ee4;" horiz-adv-x="744" 
d="M372 -10q-76 0 -139 34.5t-100 92.5q-20 31 -30.5 69t-10.5 94v420h60v-423q0 -46 8 -76t23 -54q29 -46 79 -73t110 -27t110 27t79 73q15 24 23 54t8 76v423h60v-420q0 -56 -10.5 -94t-30.5 -69q-37 -58 -100 -92.5t-139 -34.5zM321 -120q0 21 14.5 36t35.5 15t36 -15
t15 -36t-15 -35.5t-36 -14.5t-35.5 14.5t-14.5 35.5z" />
    <glyph glyph-name="uni1EE5" unicode="&#x1ee5;" horiz-adv-x="575" 
d="M432 62q-24 -32 -65 -52t-89 -20q-57 0 -101.5 25t-69.5 69q-13 23 -20 53t-7 76v243h57v-234q0 -48 7 -74t19 -44q18 -27 47.5 -43.5t67.5 -16.5q47 0 88 26t64 69v317h57v-456h-55v62zM237 -120q0 21 14.5 36t35.5 15t36 -15t15 -36t-15 -35.5t-36 -14.5t-35.5 14.5
t-14.5 35.5z" />
    <glyph glyph-name="Ygrave" unicode="&#x1ef2;" horiz-adv-x="600" 
d="M330 329v-329h-60v329l-240 371h68l203 -314l202 314h67zM275 903l65 -140h-45l-95 140h75z" />
    <glyph glyph-name="ygrave" unicode="&#x1ef3;" horiz-adv-x="527" 
d="M120 -240l124 265l-220 431h62l187 -368l171 368h60l-323 -696h-61zM244 674l65 -140h-45l-95 140h75z" />
    <glyph glyph-name="uni1EF8" unicode="&#x1ef8;" horiz-adv-x="600" 
d="M330 329v-329h-60v329l-240 371h68l203 -314l202 314h67zM163 796q0 15 5 30t14 27t23 19.5t32 7.5q19 0 35.5 -7t31.5 -15.5t29 -15.5t28 -7q16 0 25 10.5t11 34.5l40 -11q0 -15 -5 -30t-14 -27t-23 -19.5t-32 -7.5q-19 0 -35.5 7t-31.5 15.5t-29 15.5t-28 7
q-16 0 -25 -10.5t-11 -34.5z" />
    <glyph glyph-name="uni1EF9" unicode="&#x1ef9;" horiz-adv-x="527" 
d="M120 -240l124 265l-220 431h62l187 -368l171 368h60l-323 -696h-61zM133 568q0 15 5 30t14 27t23 19.5t32 7.5q19 0 35.5 -7t31.5 -15.5t29 -15.5t28 -7q16 0 25 10.5t11 34.5l40 -11q0 -15 -5 -30t-14 -27t-23 -19.5t-32 -7.5q-19 0 -35.5 7t-31.5 15.5t-29 15.5t-28 7
q-16 0 -25 -10.5t-11 -34.5z" />
    <glyph glyph-name="uni2000" unicode="&#x2000;" horiz-adv-x="540" 
 />
    <glyph glyph-name="uni2001" unicode="&#x2001;" horiz-adv-x="1080" 
 />
    <glyph glyph-name="uni2002" unicode="&#x2002;" horiz-adv-x="540" 
 />
    <glyph glyph-name="uni2003" unicode="&#x2003;" horiz-adv-x="1080" 
 />
    <glyph glyph-name="uni2004" unicode="&#x2004;" horiz-adv-x="360" 
 />
    <glyph glyph-name="uni2005" unicode="&#x2005;" horiz-adv-x="270" 
 />
    <glyph glyph-name="uni2006" unicode="&#x2006;" horiz-adv-x="180" 
 />
    <glyph glyph-name="uni2007" unicode="&#x2007;" 
 />
    <glyph glyph-name="uni2008" unicode="&#x2008;" horiz-adv-x="290" 
 />
    <glyph glyph-name="uni2009" unicode="&#x2009;" horiz-adv-x="135" 
 />
    <glyph glyph-name="uni200A" unicode="&#x200a;" horiz-adv-x="45" 
 />
    <glyph glyph-name="uni200B" unicode="&#x200b;" horiz-adv-x="0" 
 />
    <glyph glyph-name="figuredash" unicode="&#x2012;" 
d="M500 334v-49h-410v49h410z" />
    <glyph glyph-name="endash" unicode="&#x2013;" horiz-adv-x="554" 
d="M482 274v-49h-410v49h410z" />
    <glyph glyph-name="emdash" unicode="&#x2014;" horiz-adv-x="854" 
d="M782 274v-49h-710v49h710z" />
    <glyph glyph-name="uni2015" unicode="&#x2015;" horiz-adv-x="854" 
d="M782 274v-49h-710v49h710z" />
    <glyph glyph-name="quoteleft" unicode="&#x2018;" horiz-adv-x="242" 
d="M129 460h-75l96 240h50z" />
    <glyph glyph-name="quoteright" unicode="&#x2019;" horiz-adv-x="236" 
d="M128 700h75l-96 -240h-50z" />
    <glyph glyph-name="quotesinglbase" unicode="&#x201a;" horiz-adv-x="291" 
d="M117 100h75l-96 -240h-50z" />
    <glyph glyph-name="quotereversed" unicode="&#x201b;" horiz-adv-x="236" 
d="M179 460h-50l-96 240h75z" />
    <glyph glyph-name="quotedblleft" unicode="&#x201c;" horiz-adv-x="432" 
d="M319 460h-75l96 240h50zM129 460h-75l96 240h50z" />
    <glyph glyph-name="quotedblright" unicode="&#x201d;" horiz-adv-x="426" 
d="M128 700h75l-96 -240h-50zM318 700h75l-96 -240h-50z" />
    <glyph glyph-name="quotedblbase" unicode="&#x201e;" horiz-adv-x="481" 
d="M117 100h75l-96 -240h-50zM307 100h75l-96 -240h-50z" />
    <glyph glyph-name="uni201F" unicode="&#x201f;" horiz-adv-x="426" 
d="M369 460h-50l-96 240h75zM179 460h-50l-96 240h75z" />
    <glyph glyph-name="dagger" unicode="&#x2020;" horiz-adv-x="479" 
d="M211 402h-174v54h174v244h57v-244h174v-54h-174v-642h-57v642z" />
    <glyph glyph-name="daggerdbl" unicode="&#x2021;" horiz-adv-x="479" 
d="M211 216v186h-174v54h174v244h57v-244h174v-54h-174v-186h174v-54h-174v-402h-57v402h-174v54h174z" />
    <glyph glyph-name="bullet" unicode="&#x2022;" horiz-adv-x="618" 
d="M71 228q0 49 19 92.5t51 75.5t75.5 51t92.5 19t92.5 -19t75.5 -51t51 -75.5t19 -92.5t-19 -92.5t-51 -75.5t-75.5 -51t-92.5 -19t-92.5 19t-75.5 51t-51 75.5t-19 92.5z" />
    <glyph glyph-name="ellipsis" unicode="&#x2026;" horiz-adv-x="810" 
d="M93 42q0 22 15 37t37 15t37 -15t15 -37t-15 -37t-37 -15t-37 15t-15 37zM353 42q0 22 15 37t37 15t37 -15t15 -37t-15 -37t-37 -15t-37 15t-15 37zM613 42q0 22 15 37t37 15t37 -15t15 -37t-15 -37t-37 -15t-37 15t-15 37z" />
    <glyph glyph-name="perthousand" unicode="&#x2030;" horiz-adv-x="1105" 
d="M424 170q0 37 13 70t36.5 57.5t55.5 38.5t70 14q49 0 87.5 -23t60.5 -61q23 38 61.5 61t87.5 23q38 0 70 -14t55.5 -38.5t36.5 -57.5t13 -70q0 -38 -13 -70.5t-36.5 -57t-55.5 -38.5t-70 -14q-49 0 -87.5 23t-61.5 61q-22 -38 -60.5 -61t-87.5 -23q-38 0 -70 14
t-55.5 38.5t-36.5 57t-13 70.5zM384 530q0 -38 -13 -70.5t-36.5 -57t-55.5 -38.5t-70 -14t-70 14t-55.5 38.5t-36.5 57t-13 70.5q0 37 13 70t36.5 57.5t55.5 38.5t70 14t70 -14t55.5 -38.5t36.5 -57.5t13 -70zM87 530q0 -27 9.5 -50.5t26 -41t38.5 -28t48 -10.5
q25 0 47.5 10.5t39 28t26 41t9.5 50.5t-9.5 50.5t-26 41t-39 28t-47.5 10.5q-26 0 -48 -10.5t-38.5 -28t-26 -41t-9.5 -50.5zM1018 170q0 27 -9.5 50.5t-26 41t-39 28t-47.5 10.5q-26 0 -48 -10.5t-38.5 -28t-26 -41t-9.5 -50.5t9.5 -50.5t26 -41t38.5 -28t48 -10.5
q25 0 47.5 10.5t39 28t26 41t9.5 50.5zM721 170q0 27 -9.5 50.5t-26 41t-39 28t-47.5 10.5q-26 0 -48 -10.5t-38.5 -28t-26 -41t-9.5 -50.5t9.5 -50.5t26 -41t38.5 -28t48 -10.5q25 0 47.5 10.5t39 28t26 41t9.5 50.5zM634 700l-408 -700h-52l408 700h52z" />
    <glyph glyph-name="minute" unicode="&#x2032;" horiz-adv-x="199" 
d="M71 700h57l-10 -254h-37z" />
    <glyph glyph-name="second" unicode="&#x2033;" horiz-adv-x="392" 
d="M71 700h57l-10 -254h-37zM264 700h57l-10 -254h-37z" />
    <glyph glyph-name="guilsinglleft" unicode="&#x2039;" horiz-adv-x="328" 
d="M274 420l-159 -185l159 -185h-71l-159 185l159 185h71z" />
    <glyph glyph-name="guilsinglright" unicode="&#x203a;" horiz-adv-x="328" 
d="M125 420l159 -185l-159 -185h-71l159 185l-159 185h71z" />
    <glyph glyph-name="fraction" unicode="&#x2044;" horiz-adv-x="170" 
d="M-146 0l408 700h52l-408 -700h-52z" />
    <glyph glyph-name="uni2070" unicode="&#x2070;" horiz-adv-x="340" 
d="M300 520q0 -39 -7.5 -73.5t-23.5 -60.5t-40.5 -41t-58.5 -15t-58.5 15t-40.5 41t-23.5 60.5t-7.5 73.5t7.5 73.5t23.5 60.5t40.5 41t58.5 15t58.5 -15t40.5 -41t23.5 -60.5t7.5 -73.5zM90 520q0 -63 19.5 -104t60.5 -41t60.5 41t19.5 104t-19.5 104t-60.5 41t-60.5 -41
t-19.5 -104z" />
    <glyph glyph-name="uni2074" unicode="&#x2074;" horiz-adv-x="336" 
d="M24 455l195 245h30v-231h60v-44h-60v-85h-49v85h-176v30zM200 469v137l-109 -137h109z" />
    <glyph glyph-name="uni2075" unicode="&#x2075;" horiz-adv-x="295" 
d="M51 522l19 178h171v-45h-129l-9 -82q20 5 35 5q27 0 49.5 -10t39 -26.5t25.5 -39t9 -47.5t-9.5 -47.5t-26 -40t-39.5 -27.5t-51 -10t-58 12.5t-51 40.5l34 27q12 -14 31.5 -24.5t41.5 -10.5q32 0 55 22t23 57q0 34 -22 57.5t-57 23.5q-16 0 -29.5 -5.5t-24.5 -13.5z" />
    <glyph glyph-name="uni2076" unicode="&#x2076;" horiz-adv-x="318" 
d="M84 454q0 -33 21 -56t57 -23q35 0 56 23t21 56q0 32 -21 55t-53 23q-15 0 -29 -3t-29 -12q-8 -13 -15.5 -28.5t-7.5 -34.5zM141 573q2 1 9.5 2t14.5 1q26 0 49 -9t39.5 -25t26 -38.5t9.5 -49.5q0 -26 -9.5 -48.5t-26.5 -39t-40 -26.5t-51 -10q-29 0 -52.5 10t-40 27
t-26 39.5t-9.5 47.5q0 31 14.5 59t32.5 55l89 132h56z" />
    <glyph glyph-name="uni2077" unicode="&#x2077;" horiz-adv-x="276" 
d="M39 340l155 315h-165v45h225v-30l-162 -330h-53z" />
    <glyph glyph-name="uni2078" unicode="&#x2078;" horiz-adv-x="327" 
d="M163 519q-32 0 -54.5 -21t-22.5 -52q0 -29 22 -50t55 -21q35 0 56.5 21t21.5 50q0 31 -21.5 52t-56.5 21zM163 665q-21 0 -36.5 -14.5t-15.5 -37.5q0 -22 15.5 -36.5t36.5 -14.5q23 0 38 14.5t15 36.5q0 23 -15 37.5t-38 14.5zM163 330q-29 0 -52 9t-40 25t-26 37t-9 44
q0 32 17 59.5t43 41.5q-16 11 -25.5 29.5t-9.5 38.5q0 42 29.5 69t72.5 27q44 0 73.5 -27t29.5 -69q0 -20 -9.5 -38.5t-25.5 -29.5q26 -14 43 -41.5t17 -59.5q0 -23 -9.5 -44t-26 -37t-40.5 -25t-52 -9z" />
    <glyph glyph-name="uni2079" unicode="&#x2079;" horiz-adv-x="318" 
d="M234 586q0 33 -21 56t-57 23q-35 0 -56 -23t-21 -56q0 -32 21 -55t53 -23q15 0 29 3t29 12q8 13 15.5 28.5t7.5 34.5zM177 467q-2 -1 -9.5 -2t-14.5 -1q-26 0 -49 9t-39.5 25t-26 38.5t-9.5 49.5q0 25 9.5 48t26.5 39.5t40 26.5t51 10t52 -10t40.5 -27t26 -39.5
t9.5 -47.5q0 -31 -14.5 -59t-32.5 -55l-89 -132h-56z" />
    <glyph glyph-name="uni2080" unicode="&#x2080;" horiz-adv-x="340" 
d="M300 180q0 -39 -7.5 -73.5t-23.5 -60.5t-40.5 -41t-58.5 -15t-58.5 15t-40.5 41t-23.5 60.5t-7.5 73.5t7.5 73.5t23.5 60.5t40.5 41t58.5 15t58.5 -15t40.5 -41t23.5 -60.5t7.5 -73.5zM90 180q0 -63 19.5 -104t60.5 -41t60.5 41t19.5 104t-19.5 104t-60.5 41t-60.5 -41
t-19.5 -104z" />
    <glyph glyph-name="uni2081" unicode="&#x2081;" horiz-adv-x="223" 
d="M27 260v50l95 50h30v-360h-50v300z" />
    <glyph glyph-name="uni2082" unicode="&#x2082;" horiz-adv-x="313" 
d="M33 263q5 22 15 41.5t25 34t35.5 23t46.5 8.5q25 0 46.5 -9t37.5 -24.5t25 -37.5t9 -47q0 -38 -19.5 -69.5t-55.5 -64.5l-78 -72h153v-46h-235v30l129 122q26 25 41 48t15 52t-18.5 50.5t-50.5 21.5t-51 -21.5t-25 -51.5z" />
    <glyph glyph-name="uni2083" unicode="&#x2083;" horiz-adv-x="309" 
d="M63 82q14 -20 33 -33.5t48 -13.5q32 0 55 23t23 57q0 38 -22.5 58t-56.5 21q-11 0 -22 -1.5t-22 -5.5v30l86 98h-138v45h210v-30l-85 -97q19 -2 37 -11t32 -24t22.5 -35.5t8.5 -46.5q0 -25 -9 -47.5t-26 -40t-40.5 -28t-52.5 -10.5q-40 0 -70 19t-47 48z" />
    <glyph glyph-name="uni2084" unicode="&#x2084;" horiz-adv-x="336" 
d="M23 115l195 245h30v-231h60v-44h-60v-85h-49v85h-176v30zM199 129v137l-109 -137h109z" />
    <glyph glyph-name="uni2085" unicode="&#x2085;" horiz-adv-x="295" 
d="M51 182l19 178h171v-45h-129l-9 -82q20 5 35 5q27 0 49.5 -10t39 -26.5t25.5 -39t9 -47.5t-9.5 -47.5t-26 -40t-39.5 -27.5t-51 -10t-58 12.5t-51 40.5l34 27q12 -14 31.5 -24.5t41.5 -10.5q32 0 55 22t23 57q0 34 -22 57.5t-57 23.5q-16 0 -29.5 -5.5t-24.5 -13.5z" />
    <glyph glyph-name="uni2086" unicode="&#x2086;" horiz-adv-x="318" 
d="M84 114q0 -33 21 -56t57 -23q35 0 56 23t21 56q0 32 -21 55t-53 23q-15 0 -29 -3t-29 -12q-8 -13 -15.5 -28.5t-7.5 -34.5zM141 233q2 1 9.5 2t14.5 1q26 0 49 -9t39.5 -25t26 -38.5t9.5 -49.5q0 -26 -9.5 -48.5t-26.5 -39t-40 -26.5t-51 -10q-29 0 -52.5 10t-40 27
t-26 39.5t-9.5 47.5q0 31 14.5 59t32.5 55l89 132h56z" />
    <glyph glyph-name="uni2087" unicode="&#x2087;" horiz-adv-x="276" 
d="M39 0l155 315h-165v45h225v-30l-162 -330h-53z" />
    <glyph glyph-name="uni2088" unicode="&#x2088;" horiz-adv-x="327" 
d="M163 179q-32 0 -54.5 -21t-22.5 -52q0 -29 22 -50t55 -21q35 0 56.5 21t21.5 50q0 31 -21.5 52t-56.5 21zM163 325q-21 0 -36.5 -14.5t-15.5 -37.5q0 -22 15.5 -36.5t36.5 -14.5q23 0 38 14.5t15 36.5q0 23 -15 37.5t-38 14.5zM163 -10q-29 0 -52 9t-40 25t-26 37t-9 44
q0 32 17 59.5t43 41.5q-16 11 -25.5 29.5t-9.5 38.5q0 42 29.5 69t72.5 27q44 0 73.5 -27t29.5 -69q0 -20 -9.5 -38.5t-25.5 -29.5q26 -14 43 -41.5t17 -59.5q0 -23 -9.5 -44t-26 -37t-40.5 -25t-52 -9z" />
    <glyph glyph-name="uni2089" unicode="&#x2089;" horiz-adv-x="318" 
d="M234 246q0 33 -21 56t-57 23q-35 0 -56 -23t-21 -56q0 -32 21 -55t53 -23q15 0 29 3t29 12q8 13 15.5 28.5t7.5 34.5zM177 127q-2 -1 -9.5 -2t-14.5 -1q-26 0 -49 9t-39.5 25t-26 38.5t-9.5 49.5q0 25 9.5 48t26.5 39.5t40 26.5t51 10t52 -10t40.5 -27t26 -39.5
t9.5 -47.5q0 -31 -14.5 -59t-32.5 -55l-89 -132h-56z" />
    <glyph glyph-name="colonmonetary" unicode="&#x20a1;" horiz-adv-x="660" 
d="M190 -70l23 131q-75 42 -119 117t-44 172q0 63 20 118t56 98.5t85.5 72t108.5 37.5l17 94h51l-16 -90q39 0 75 -9l17 99h51l-20 -114q65 -26 110 -74l-39 -40q-33 33 -81 56l-92 -521q60 4 108.5 30t83.5 66l42 -35q-42 -51 -106 -84t-138 -34l-15 -90h-51l16 93
q-20 2 -38 6.5t-35 10.5l-19 -110h-51zM110 350q0 -72 30 -131.5t84 -95.5l86 492q-45 -11 -81.5 -35.5t-63 -59.5t-41 -78.5t-14.5 -91.5zM270 97q35 -14 73 -18l94 536q-34 8 -65 8h-10z" />
    <glyph glyph-name="uni20A6" unicode="&#x20a6;" horiz-adv-x="776" 
d="M613 455h120v-54h-120v-101h120v-54h-120v-246h-40l-353 567v-567h-57v246h-120v54h120v101h-120v54h120v245h40l353 -567v567h57v-245z" />
    <glyph glyph-name="Euro" unicode="&#x20ac;" horiz-adv-x="656" 
d="M120 455q13 60 41.5 107.5t68 80t87.5 50t102 17.5q36 0 67.5 -8.5t56.5 -20.5t43.5 -26t27.5 -26l-36 -39q-10 9 -25.5 20t-36 20.5t-45.5 16t-52 6.5q-50 0 -88.5 -16t-68 -43.5t-49 -63.5t-30.5 -75h291l-20 -54h-282q-3 -26 -3 -51t3 -50h246l-20 -54h-215
q11 -39 30.5 -75t49 -63.5t69.5 -44t91 -16.5q27 0 52 6.5t45.5 16t36.5 20.5t26 20l36 -39q-9 -12 -27.5 -26t-44 -26t-57 -20.5t-67.5 -8.5q-55 0 -104 17.5t-89 50.5t-68.5 80.5t-41.5 107.5h-81v54h72q-1 12 -1.5 24.5t-0.5 25.5t0.5 25.5t1.5 25.5h-72v54h81z" />
    <glyph glyph-name="uni20B2" unicode="&#x20b2;" horiz-adv-x="673" 
d="M398 679q60 -5 112.5 -30.5t90.5 -66.5l-39 -40q-35 35 -85 58t-109 23q-57 0 -105 -21.5t-83 -58.5t-54.5 -86.5t-19.5 -106.5t20 -107t55 -87t84 -58t108 -21q62 0 111.5 23t76.5 54v204h-200v57h260v-277q-38 -50 -96.5 -81t-126.5 -36v-91h-57v91q-65 6 -119.5 33
t-93.5 70.5t-60.5 101t-21.5 124.5q0 66 22 123.5t61.5 101.5t93.5 71.5t118 32.5v91h57v-91z" />
    <glyph glyph-name="uni20B4" unicode="&#x20b4;" horiz-adv-x="642" 
d="M190 245q-18 -27 -18 -67q0 -30 12.5 -54.5t33 -41.5t46.5 -26t52 -9q34 0 62.5 8t51.5 21.5t41.5 31.5t34.5 37l42 -37q-90 -118 -232 -118q-43 0 -80 14t-64.5 38.5t-43.5 59t-16 76.5q0 37 12 67h-70v51h530v-51h-394zM432 456q12 15 19.5 34.5t7.5 42.5
q0 55 -38.5 87.5t-97.5 32.5q-41 0 -76.5 -14.5t-68.5 -41.5l-37 43q37 32 83.5 51t99.5 19q41 0 76.5 -13t62 -36.5t41.5 -56t15 -71.5q0 -23 -5.5 -40t-14.5 -37h85v-52h-530v52h378z" />
    <glyph glyph-name="uni20B5" unicode="&#x20b5;" horiz-adv-x="658" 
d="M402 678q60 -6 112.5 -32t90.5 -64l-39 -40q-35 35 -85 58t-109 23q-57 0 -105 -21.5t-83 -58.5t-54.5 -86.5t-19.5 -106.5t20 -107t55 -87t84 -58t108 -21q66 0 117.5 26.5t88.5 68.5l42 -35q-38 -48 -96.5 -79.5t-126.5 -36.5v-91h-57v91q-65 6 -119.5 33t-93.5 70.5
t-60.5 101t-21.5 124.5q0 66 22 123.5t61.5 101.5t93.5 71.5t118 32.5v91h57v-92z" />
    <glyph glyph-name="uni20B8" unicode="&#x20b8;" horiz-adv-x="534" 
d="M237 491h-200v52h460v-52h-200v-491h-60v491zM37 700h460v-51h-460v51z" />
    <glyph glyph-name="uni20B9" unicode="&#x20b9;" horiz-adv-x="569" 
d="M525 700l-20 -54h-132q42 -42 51 -101h101l-20 -54h-81q-5 -35 -21 -64.5t-42 -50.5q-17 -15 -39 -25t-51 -15l254 -336h-72l-251 333h-132v54h146q42 0 68.5 9.5t43.5 28.5q27 26 35 66h-293v54h293q-9 37 -35 63q-17 19 -43.5 28.5t-68.5 9.5h-146v54h455z" />
    <glyph glyph-name="uni20BA" unicode="&#x20ba;" horiz-adv-x="576" 
d="M542 350q0 -74 -27 -137.5t-74.5 -111t-111.5 -74.5t-137 -27h-30v325l-110 -40v60l110 40v58l-110 -40v60l110 40v197h60v-176l180 66v-60l-180 -66v-58l180 66v-60l-180 -66v-288q55 6 103 30.5t82.5 63t54.5 89.5t20 109h60z" />
    <glyph glyph-name="uni20BC" unicode="&#x20bc;" horiz-adv-x="658" 
d="M299 700h60v-122q54 -6 100 -32.5t78 -66.5q27 -34 42 -78t15 -106v-295h-60v298q0 52 -12.5 88t-34.5 62q-24 29 -57 48t-71 25v-521h-60v521q-39 -6 -71.5 -25t-56.5 -48q-22 -26 -34.5 -62t-12.5 -88v-298h-60v295q0 62 15 106t42 78q32 40 78 66.5t100 32.5v122z" />
    <glyph glyph-name="uni20BD" unicode="&#x20bd;" horiz-adv-x="647" 
d="M213 178v-178h-60v178h-100v52h100v108h-100v57h100v305h259q48 0 81 -11t56 -31q29 -25 46.5 -61t17.5 -78t-17.5 -78t-46.5 -61q-23 -20 -56 -31t-81 -11h-199v-108h240v-52h-240zM409 395q41 0 66 10t42 27t26.5 39t9.5 48t-9.5 48t-26.5 39t-42 27t-66 10h-196v-248
h196z" />
    <glyph glyph-name="uni20BF" unicode="&#x20bf;" horiz-adv-x="580" 
d="M329 669q35 -2 59.5 -13.5t44.5 -28.5q23 -21 36 -50.5t13 -62.5q0 -37 -16 -68.5t-42 -52.5q50 -23 81.5 -69.5t31.5 -104.5q0 -42 -17 -78.5t-46 -62.5q-26 -23 -60.5 -35.5t-84.5 -12.5v-100h-57v100h-113v-100h-57v840h57v-100h113v100h57v-101zM162 87h159
q43 0 69.5 9.5t44.5 26.5q20 19 31 44.5t11 55.5t-11 55t-31 44q-18 17 -44.5 26.5t-69.5 9.5h-159v-271zM303 415q39 0 60.5 9t35.5 25q11 13 17 29.5t6 35.5t-6 35.5t-17 29.5q-14 16 -35.5 25t-60.5 9h-141v-198h141z" />
    <glyph glyph-name="uni2113" unicode="&#x2113;" horiz-adv-x="388" 
d="M352 15q-14 -11 -37.5 -18t-45.5 -7q-57 0 -87.5 20.5t-47.5 55.5q-16 33 -22.5 78t-8.5 96q-26 -17 -51 -30v65q12 8 24.5 16t25.5 17v37q0 77 1.5 137.5t7.5 105.5q3 23 12.5 45t25 39t37.5 27.5t50 10.5q29 0 50 -10.5t34.5 -28t20 -41t6.5 -49.5q0 -78 -40 -144.5
t-105 -123.5q0 -78 2.5 -126t11.5 -79q8 -29 27 -41.5t42 -12.5q11 0 22.5 2t25.5 9zM207 575q-3 -29 -4 -73t-1 -107q35 38 57.5 83t22.5 99q0 7 -1.5 18t-5.5 21t-11 17t-18 7t-18.5 -6.5t-11.5 -16.5t-6 -21.5t-3 -20.5z" />
    <glyph glyph-name="uni2116" unicode="&#x2116;" horiz-adv-x="1119" 
d="M764 325h294v-55h-294v55zM101 700h40l470 -583v583h60v-700h-40l-470 583v-583h-60v700zM746 547q0 34 12.5 64t35 52t52.5 34.5t65 12.5t65 -12.5t52.5 -34.5t35 -52t12.5 -64t-12.5 -64t-35 -52t-52.5 -34.5t-65 -12.5t-65 12.5t-52.5 34.5t-35 52t-12.5 64zM801 547
q0 -23 8.5 -43t23.5 -35t35 -23.5t43 -8.5t43 8.5t35 23.5t23.5 35t8.5 43t-8.5 43t-23.5 35t-35 23.5t-43 8.5t-43 -8.5t-35 -23.5t-23.5 -35t-8.5 -43z" />
    <glyph glyph-name="uni2117" unicode="&#x2117;" horiz-adv-x="850" 
d="M425 -25q-78 0 -146 29.5t-119 80.5t-80.5 119t-29.5 146t29.5 146t80.5 119t119 80.5t146 29.5t146 -29.5t119 -80.5t80.5 -119t29.5 -146t-29.5 -146t-80.5 -119t-119 -80.5t-146 -29.5zM97 350q0 -68 26 -127.5t70.5 -104t104 -70.5t127.5 -26t127.5 26t104 70.5
t70.5 104t26 127.5t-26 127.5t-70.5 104t-104 70.5t-127.5 26t-127.5 -26t-104 -70.5t-70.5 -104t-26 -127.5zM368 343v-185h-47v383h152q26 0 44 -6t31 -17q16 -14 25.5 -33.5t9.5 -42.5t-9.5 -42.5t-25.5 -33.5q-13 -11 -31 -17t-44 -6h-105zM472 387q18 0 29 4t19 12
q16 16 16 39t-16 39q-8 8 -19 12t-29 4h-104v-110h104z" />
    <glyph glyph-name="trademark" unicode="&#x2122;" horiz-adv-x="816" 
d="M299 700v-44h-109v-339h-47v339h-109v44h265zM541 375h-8l-143 216v-274h-47v383h27l167 -252l167 252h27v-383h-47v274z" />
    <glyph glyph-name="Omega" unicode="&#x2126;" horiz-adv-x="822" 
d="M411 656q-60 0 -113.5 -22.5t-93 -63t-63 -95.5t-23.5 -120q0 -79 25 -138.5t56 -100.5q36 -48 82 -82v-34h-220v54h125q-36 34 -63 80q-23 39 -42.5 94.5t-19.5 126.5q0 73 26.5 137.5t73 113t110.5 76.5t140 28t140 -28t110.5 -76.5t73 -113t26.5 -137.5
q0 -71 -20 -126.5t-43 -94.5q-27 -46 -62 -80h125v-54h-220v34q45 34 81 82q31 41 56.5 100.5t25.5 138.5q0 65 -23.5 120t-63 95.5t-93 63t-113.5 22.5z" />
    <glyph glyph-name="estimated" unicode="&#x212e;" horiz-adv-x="808" 
d="M182 320v-176q42 -48 101.5 -76t128.5 -28q78 0 140.5 31t105.5 83l38 -32q-50 -60 -123 -96t-161 -36q-74 0 -139.5 28.5t-114.5 77.5t-77.5 114.5t-28.5 139.5t28.5 139.5t77.5 114.5t114.5 77.5t139.5 28.5t139.5 -28.5t114.5 -77.5t77.5 -114.5t28.5 -139.5v-15
t-1 -15h-589zM412 660q-69 0 -128.5 -27.5t-101.5 -75.5v-187h460v189q-43 47 -102 74t-128 27z" />
    <glyph glyph-name="uni2150" unicode="&#x2150;" horiz-adv-x="671" 
d="M47 600v50l95 50h30v-360h-50v300zM62 0l408 700h52l-408 -700h-52zM422 0l155 315h-165v45h225v-30l-162 -330h-53z" />
    <glyph glyph-name="uni2151" unicode="&#x2151;" horiz-adv-x="661" 
d="M46 600v50l95 50h30v-360h-50v300zM61 0l408 700h52l-408 -700h-52zM576 246q0 33 -21 56t-57 23q-35 0 -56 -23t-21 -56q0 -32 21 -55t53 -23q15 0 29 3t29 12q8 13 15.5 28.5t7.5 34.5zM519 127q-2 -1 -9.5 -2t-14.5 -1q-26 0 -49 9t-39.5 25t-26 38.5t-9.5 49.5
q0 25 9.5 48t26.5 39.5t40 26.5t51 10t52 -10t40.5 -27t26 -39.5t9.5 -47.5q0 -31 -14.5 -59t-32.5 -55l-89 -132h-56z" />
    <glyph glyph-name="uni2152" unicode="&#x2152;" horiz-adv-x="890" 
d="M44 600v50l95 50h30v-360h-50v300zM59 0l408 700h52l-408 -700h-52zM384 260v50l95 50h30v-360h-50v300zM854 180q0 -39 -7.5 -73.5t-23.5 -60.5t-40.5 -41t-58.5 -15t-58.5 15t-40.5 41t-23.5 60.5t-7.5 73.5t7.5 73.5t23.5 60.5t40.5 41t58.5 15t58.5 -15t40.5 -41
t23.5 -60.5t7.5 -73.5zM644 180q0 -63 19.5 -104t60.5 -41t60.5 41t19.5 104t-19.5 104t-60.5 41t-60.5 -41t-19.5 -104z" />
    <glyph glyph-name="onethird" unicode="&#x2153;" horiz-adv-x="662" 
d="M42 600v50l95 50h30v-360h-50v300zM57 0l408 700h52l-408 -700h-52zM413 82q14 -20 33 -33.5t48 -13.5q32 0 55 23t23 57q0 38 -22.5 58t-56.5 21q-11 0 -22 -1.5t-22 -5.5v30l86 98h-138v45h210v-30l-85 -97q19 -2 37 -11t32 -24t22.5 -35.5t8.5 -46.5q0 -25 -9 -47.5
t-26 -40t-40.5 -28t-52.5 -10.5q-40 0 -70 19t-47 48z" />
    <glyph glyph-name="twothirds" unicode="&#x2154;" horiz-adv-x="765" 
d="M40 603q5 22 15 41.5t25 34t35.5 23t46.5 8.5q25 0 46.5 -9t37.5 -24.5t25 -37.5t9 -47q0 -38 -19.5 -69.5t-55.5 -64.5l-78 -72h153v-46h-235v30l129 122q26 25 41 48t15 52t-18.5 50.5t-50.5 21.5t-51 -21.5t-25 -51.5zM160 0l408 700h52l-408 -700h-52zM516 82
q14 -20 33 -33.5t48 -13.5q32 0 55 23t23 57q0 38 -22.5 58t-56.5 21q-11 0 -22 -1.5t-22 -5.5v30l86 98h-138v45h210v-30l-85 -97q19 -2 37 -11t32 -24t22.5 -35.5t8.5 -46.5q0 -25 -9 -47.5t-26 -40t-40.5 -28t-52.5 -10.5q-40 0 -70 19t-47 48z" />
    <glyph glyph-name="uni2155" unicode="&#x2155;" horiz-adv-x="643" 
d="M42 600v50l95 50h30v-360h-50v300zM57 0l408 700h52l-408 -700h-52zM392 182l19 178h171v-45h-129l-9 -82q20 5 35 5q27 0 49.5 -10t39 -26.5t25.5 -39t9 -47.5t-9.5 -47.5t-26 -40t-39.5 -27.5t-51 -10t-58 12.5t-51 40.5l34 27q12 -14 31.5 -24.5t41.5 -10.5
q32 0 55 22t23 57q0 34 -22 57.5t-57 23.5q-16 0 -29.5 -5.5t-24.5 -13.5z" />
    <glyph glyph-name="uni2156" unicode="&#x2156;" horiz-adv-x="746" 
d="M40 603q5 22 15 41.5t25 34t35.5 23t46.5 8.5q25 0 46.5 -9t37.5 -24.5t25 -37.5t9 -47q0 -38 -19.5 -69.5t-55.5 -64.5l-78 -72h153v-46h-235v30l129 122q26 25 41 48t15 52t-18.5 50.5t-50.5 21.5t-51 -21.5t-25 -51.5zM160 0l408 700h52l-408 -700h-52zM495 182
l19 178h171v-45h-129l-9 -82q20 5 35 5q27 0 49.5 -10t39 -26.5t25.5 -39t9 -47.5t-9.5 -47.5t-26 -40t-39.5 -27.5t-51 -10t-58 12.5t-51 40.5l34 27q12 -14 31.5 -24.5t41.5 -10.5q32 0 55 22t23 57q0 34 -22 57.5t-57 23.5q-16 0 -29.5 -5.5t-24.5 -13.5z" />
    <glyph glyph-name="uni2157" unicode="&#x2157;" horiz-adv-x="718" 
d="M71 422q14 -20 33 -33.5t48 -13.5q32 0 55 23t23 57q0 38 -22.5 58t-56.5 21q-11 0 -22 -1.5t-22 -5.5v30l86 98h-138v45h210v-30l-85 -97q19 -2 37 -11t32 -24t22.5 -35.5t8.5 -46.5q0 -25 -9 -47.5t-26 -40t-40.5 -28t-52.5 -10.5q-40 0 -70 19t-47 48zM130 0l408 700
h52l-408 -700h-52zM465 182l19 178h171v-45h-129l-9 -82q20 5 35 5q27 0 49.5 -10t39 -26.5t25.5 -39t9 -47.5t-9.5 -47.5t-26 -40t-39.5 -27.5t-51 -10t-58 12.5t-51 40.5l34 27q12 -14 31.5 -24.5t41.5 -10.5q32 0 55 22t23 57q0 34 -22 57.5t-57 23.5q-16 0 -29.5 -5.5
t-24.5 -13.5z" />
    <glyph glyph-name="uni2158" unicode="&#x2158;" horiz-adv-x="755" 
d="M31 455l195 245h30v-231h60v-44h-60v-85h-49v85h-176v30zM207 469v137l-109 -137h109zM161 0l408 700h52l-408 -700h-52zM496 182l19 178h171v-45h-129l-9 -82q20 5 35 5q27 0 49.5 -10t39 -26.5t25.5 -39t9 -47.5t-9.5 -47.5t-26 -40t-39.5 -27.5t-51 -10t-58 12.5
t-51 40.5l34 27q12 -14 31.5 -24.5t41.5 -10.5q32 0 55 22t23 57q0 34 -22 57.5t-57 23.5q-16 0 -29.5 -5.5t-24.5 -13.5z" />
    <glyph glyph-name="uni2159" unicode="&#x2159;" horiz-adv-x="620" 
d="M44 600v50l95 50h30v-360h-50v300zM59 0l408 700h52l-408 -700h-52zM379 114q0 -33 21 -56t57 -23q35 0 56 23t21 56q0 32 -21 55t-53 23q-15 0 -29 -3t-29 -12q-8 -13 -15.5 -28.5t-7.5 -34.5zM436 233q2 1 9.5 2t14.5 1q26 0 49 -9t39.5 -25t26 -38.5t9.5 -49.5
q0 -26 -9.5 -48.5t-26.5 -39t-40 -26.5t-51 -10q-29 0 -52.5 10t-40 27t-26 39.5t-9.5 47.5q0 31 14.5 59t32.5 55l89 132h56z" />
    <glyph glyph-name="uni215A" unicode="&#x215a;" horiz-adv-x="682" 
d="M61 522l19 178h171v-45h-129l-9 -82q20 5 35 5q27 0 49.5 -10t39 -26.5t25.5 -39t9 -47.5t-9.5 -47.5t-26 -40t-39.5 -27.5t-51 -10t-58 12.5t-51 40.5l34 27q12 -14 31.5 -24.5t41.5 -10.5q32 0 55 22t23 57q0 34 -22 57.5t-57 23.5q-16 0 -29.5 -5.5t-24.5 -13.5z
M121 0l408 700h52l-408 -700h-52zM441 114q0 -33 21 -56t57 -23q35 0 56 23t21 56q0 32 -21 55t-53 23q-15 0 -29 -3t-29 -12q-8 -13 -15.5 -28.5t-7.5 -34.5zM498 233q2 1 9.5 2t14.5 1q26 0 49 -9t39.5 -25t26 -38.5t9.5 -49.5q0 -26 -9.5 -48.5t-26.5 -39t-40 -26.5
t-51 -10q-29 0 -52.5 10t-40 27t-26 39.5t-9.5 47.5q0 31 14.5 59t32.5 55l89 132h56z" />
    <glyph glyph-name="oneeighth" unicode="&#x215b;" horiz-adv-x="649" 
d="M43 600v50l95 50h30v-360h-50v300zM58 0l408 700h52l-408 -700h-52zM485 179q-32 0 -54.5 -21t-22.5 -52q0 -29 22 -50t55 -21q35 0 56.5 21t21.5 50q0 31 -21.5 52t-56.5 21zM485 325q-21 0 -36.5 -14.5t-15.5 -37.5q0 -22 15.5 -36.5t36.5 -14.5q23 0 38 14.5t15 36.5
q0 23 -15 37.5t-38 14.5zM485 -10q-29 0 -52 9t-40 25t-26 37t-9 44q0 32 17 59.5t43 41.5q-16 11 -25.5 29.5t-9.5 38.5q0 42 29.5 69t72.5 27q44 0 73.5 -27t29.5 -69q0 -20 -9.5 -38.5t-25.5 -29.5q26 -14 43 -41.5t17 -59.5q0 -23 -9.5 -44t-26 -37t-40.5 -25t-52 -9z
" />
    <glyph glyph-name="threeeighths" unicode="&#x215c;" horiz-adv-x="720" 
d="M71 422q14 -20 33 -33.5t48 -13.5q32 0 55 23t23 57q0 38 -22.5 58t-56.5 21q-11 0 -22 -1.5t-22 -5.5v30l86 98h-138v45h210v-30l-85 -97q19 -2 37 -11t32 -24t22.5 -35.5t8.5 -46.5q0 -25 -9 -47.5t-26 -40t-40.5 -28t-52.5 -10.5q-40 0 -70 19t-47 48zM128 0l408 700
h52l-408 -700h-52zM555 179q-32 0 -54.5 -21t-22.5 -52q0 -29 22 -50t55 -21q35 0 56.5 21t21.5 50q0 31 -21.5 52t-56.5 21zM555 325q-21 0 -36.5 -14.5t-15.5 -37.5q0 -22 15.5 -36.5t36.5 -14.5q23 0 38 14.5t15 36.5q0 23 -15 37.5t-38 14.5zM555 -10q-29 0 -52 9
t-40 25t-26 37t-9 44q0 32 17 59.5t43 41.5q-16 11 -25.5 29.5t-9.5 38.5q0 42 29.5 69t72.5 27q44 0 73.5 -27t29.5 -69q0 -20 -9.5 -38.5t-25.5 -29.5q26 -14 43 -41.5t17 -59.5q0 -23 -9.5 -44t-26 -37t-40.5 -25t-52 -9z" />
    <glyph glyph-name="fiveeighths" unicode="&#x215d;" horiz-adv-x="712" 
d="M61 522l19 178h171v-45h-129l-9 -82q20 5 35 5q27 0 49.5 -10t39 -26.5t25.5 -39t9 -47.5t-9.5 -47.5t-26 -40t-39.5 -27.5t-51 -10t-58 12.5t-51 40.5l34 27q12 -14 31.5 -24.5t41.5 -10.5q32 0 55 22t23 57q0 34 -22 57.5t-57 23.5q-16 0 -29.5 -5.5t-24.5 -13.5z
M121 0l408 700h52l-408 -700h-52zM548 179q-32 0 -54.5 -21t-22.5 -52q0 -29 22 -50t55 -21q35 0 56.5 21t21.5 50q0 31 -21.5 52t-56.5 21zM548 325q-21 0 -36.5 -14.5t-15.5 -37.5q0 -22 15.5 -36.5t36.5 -14.5q23 0 38 14.5t15 36.5q0 23 -15 37.5t-38 14.5zM548 -10
q-29 0 -52 9t-40 25t-26 37t-9 44q0 32 17 59.5t43 41.5q-16 11 -25.5 29.5t-9.5 38.5q0 42 29.5 69t72.5 27q44 0 73.5 -27t29.5 -69q0 -20 -9.5 -38.5t-25.5 -29.5q26 -14 43 -41.5t17 -59.5q0 -23 -9.5 -44t-26 -37t-40.5 -25t-52 -9z" />
    <glyph glyph-name="seveneighths" unicode="&#x215e;" horiz-adv-x="651" 
d="M60 340l155 315h-165v45h225v-30l-162 -330h-53zM60 0l408 700h52l-408 -700h-52zM487 179q-32 0 -54.5 -21t-22.5 -52q0 -29 22 -50t55 -21q35 0 56.5 21t21.5 50q0 31 -21.5 52t-56.5 21zM487 325q-21 0 -36.5 -14.5t-15.5 -37.5q0 -22 15.5 -36.5t36.5 -14.5
q23 0 38 14.5t15 36.5q0 23 -15 37.5t-38 14.5zM487 -10q-29 0 -52 9t-40 25t-26 37t-9 44q0 32 17 59.5t43 41.5q-16 11 -25.5 29.5t-9.5 38.5q0 42 29.5 69t72.5 27q44 0 73.5 -27t29.5 -69q0 -20 -9.5 -38.5t-25.5 -29.5q26 -14 43 -41.5t17 -59.5q0 -23 -9.5 -44
t-26 -37t-40.5 -25t-52 -9z" />
    <glyph glyph-name="uni215F" unicode="&#x215f;" horiz-adv-x="409" 
d="M54 600v50l95 50h30v-360h-50v300zM69 0l408 700h52l-408 -700h-52z" />
    <glyph glyph-name="uni2160" unicode="&#x2160;" horiz-adv-x="262" 
d="M101 700h60v-700h-60v700z" />
    <glyph glyph-name="uni2164" unicode="&#x2164;" horiz-adv-x="648" 
d="M629 700l-285 -700h-40l-285 700h62l244 -601l243 601h61z" />
    <glyph glyph-name="uni2169" unicode="&#x2169;" horiz-adv-x="580" 
d="M5 0l252 379l-212 321h68l178 -269l178 269h66l-211 -319l251 -381h-68l-217 330l-219 -330h-66z" />
    <glyph glyph-name="uni216C" unicode="&#x216c;" horiz-adv-x="518" 
d="M161 57h330v-57h-390v700h60v-643z" />
    <glyph glyph-name="uni216D" unicode="&#x216d;" horiz-adv-x="705" 
d="M682 119q-23 -29 -53 -52.5t-64.5 -40.5t-73.5 -26.5t-79 -9.5q-78 0 -144 27t-114 75t-75 114t-27 144q0 76 26.5 141.5t73.5 114t111 76.5t140 28q75 0 141.5 -28t112.5 -79l-39 -39q-38 38 -93.5 63.5t-121.5 25.5q-63 0 -116.5 -23.5t-92 -65t-60.5 -96.5t-22 -118
q0 -64 22 -119t61.5 -96t94 -64.5t119.5 -23.5q72 0 131 29.5t100 77.5z" />
    <glyph glyph-name="uni216E" unicode="&#x216e;" horiz-adv-x="743" 
d="M631 350q0 71 -29 132t-81 102q-38 29 -88.5 44t-124.5 15h-147v-586h147q74 0 124.5 15t88.5 44q52 41 81 102t29 132zM691 350q0 -88 -37 -162t-102 -122q-43 -32 -100 -49t-141 -17h-210v700h210q84 0 141 -17t100 -49q65 -48 102 -122t37 -162z" />
    <glyph glyph-name="uni216F" unicode="&#x216f;" horiz-adv-x="846" 
d="M428 165h-10l-257 402v-567h-60v700h40l283 -441l281 441h40v-700h-60v568z" />
    <glyph glyph-name="uni2174" unicode="&#x2174;" horiz-adv-x="507" 
d="M235 0l-211 456h61l169 -367l170 367h59l-211 -456h-37z" />
    <glyph glyph-name="uni2179" unicode="&#x2179;" horiz-adv-x="470" 
d="M234 201l-147 -201h-67l182 244l-157 212h67l124 -167l122 167h67l-157 -211l182 -245h-67z" />
    <glyph glyph-name="uni217C" unicode="&#x217c;" horiz-adv-x="233" 
d="M88 710h57v-710h-57v710z" />
    <glyph glyph-name="uni217D" unicode="&#x217d;" horiz-adv-x="520" 
d="M291 44q48 0 86.5 20t69.5 55l39 -34q-35 -45 -85 -70t-110 -25q-53 0 -97 19t-76 51t-49.5 75.5t-17.5 92.5t18 92.5t49.5 75.5t75.5 51t96 19q63 0 107.5 -24.5t73.5 -55.5l-37 -36q-25 23 -58.5 42.5t-85.5 19.5q-39 0 -72.5 -14.5t-58 -39.5t-38 -58.5t-13.5 -71.5
t13.5 -71.5t38 -58.5t58 -39.5t73.5 -14.5z" />
    <glyph glyph-name="uni217E" unicode="&#x217e;" horiz-adv-x="592" 
d="M447 320q-8 13 -22.5 29t-35.5 30t-48 23.5t-58 9.5q-29 0 -57.5 -9.5t-52.5 -29.5q-30 -25 -47 -62.5t-17 -82.5q0 -48 19.5 -87.5t52.5 -62.5q22 -15 48 -24.5t55 -9.5q51 0 93.5 26.5t69.5 73.5v176zM285 -10q-32 0 -67 9.5t-69 33.5q-45 32 -71 82.5t-26 112.5
q0 57 23 105.5t62 81.5q29 23 66 37t79 14q48 0 90.5 -18t74.5 -53v315h57v-710h-55v67q-26 -35 -68 -56t-96 -21z" />
    <glyph glyph-name="uni217F" unicode="&#x217f;" horiz-adv-x="925" 
d="M143 394q25 32 65.5 52t88.5 20q57 0 102 -26t69 -71q12 17 28.5 34.5t38.5 31.5t50 22.5t62 8.5q57 0 101.5 -26t69.5 -70q13 -23 20 -53t7 -76v-241h-57v234q0 48 -7 74t-19 44q-18 27 -47.5 43.5t-67.5 16.5q-27 0 -51 -9t-44 -23.5t-36 -33.5t-26 -40q2 -14 3.5 -30
t1.5 -35v-241h-57v234q0 48 -7 74t-19 44q-18 27 -47.5 43.5t-67.5 16.5q-47 0 -88 -26t-64 -69v-317h-57v456h55v-62z" />
    <glyph glyph-name="uni2189" unicode="&#x2189;" horiz-adv-x="734" 
d="M299 520q0 -39 -7.5 -73.5t-23.5 -60.5t-40.5 -41t-58.5 -15t-58.5 15t-40.5 41t-23.5 60.5t-7.5 73.5t7.5 73.5t23.5 60.5t40.5 41t58.5 15t58.5 -15t40.5 -41t23.5 -60.5t7.5 -73.5zM89 520q0 -63 19.5 -104t60.5 -41t60.5 41t19.5 104t-19.5 104t-60.5 41t-60.5 -41
t-19.5 -104zM128 0l408 700h52l-408 -700h-52zM484 82q14 -20 33 -33.5t48 -13.5q32 0 55 23t23 57q0 38 -22.5 58t-56.5 21q-11 0 -22 -1.5t-22 -5.5v30l86 98h-138v45h210v-30l-85 -97q19 -2 37 -11t32 -24t22.5 -35.5t8.5 -46.5q0 -25 -9 -47.5t-26 -40t-40.5 -28
t-52.5 -10.5q-40 0 -70 19t-47 48z" />
    <glyph glyph-name="arrowleft" unicode="&#x2190;" horiz-adv-x="972" 
d="M914 253v-50h-765l173 -173l-35 -35l-233 233l233 233l35 -35l-173 -173h765z" />
    <glyph glyph-name="arrowup" unicode="&#x2191;" horiz-adv-x="556" 
d="M252 684l-172 -172l-35 35l233 233l233 -233l-35 -35l-172 172v-764h-52v764z" />
    <glyph glyph-name="arrowright" unicode="&#x2192;" horiz-adv-x="972" 
d="M823 253l-173 173l35 35l233 -233l-233 -233l-35 35l173 173h-765v50h765z" />
    <glyph glyph-name="arrowdown" unicode="&#x2193;" horiz-adv-x="556" 
d="M252 780h52v-764l172 172l35 -35l-233 -233l-233 233l35 35l172 -172v764z" />
    <glyph glyph-name="uni2196" unicode="&#x2196;" horiz-adv-x="834" 
d="M780 31l-36 -36l-619 619v-244h-49v330h329v-50h-244z" />
    <glyph glyph-name="uni2197" unicode="&#x2197;" horiz-adv-x="834" 
d="M673 650h-244v50h329v-330h-49v244l-619 -619l-36 36z" />
    <glyph glyph-name="uni2198" unicode="&#x2198;" horiz-adv-x="834" 
d="M54 669l36 36l619 -619v244h49v-330h-329v50h244z" />
    <glyph glyph-name="uni2199" unicode="&#x2199;" horiz-adv-x="834" 
d="M161 50h244v-50h-329v330h49v-244l619 619l36 -36z" />
    <glyph glyph-name="uni21B0" unicode="&#x21b0;" horiz-adv-x="766" 
d="M628 406h-473l173 -173l-35 -35l-233 233l233 233l35 -35l-173 -173h525v-456h-52v406z" />
    <glyph glyph-name="uni21B1" unicode="&#x21b1;" horiz-adv-x="766" 
d="M138 0h-52v456h525l-173 173l35 35l233 -233l-233 -233l-35 35l173 173h-473v-406z" />
    <glyph glyph-name="uni21B2" unicode="&#x21b2;" horiz-adv-x="788" 
d="M633 456h52v-456h-525l173 -173l-35 -35l-233 233l233 233l35 -35l-173 -173h473v406z" />
    <glyph glyph-name="uni21B3" unicode="&#x21b3;" horiz-adv-x="788" 
d="M155 50h473l-173 173l35 35l233 -233l-233 -233l-35 35l173 173h-525v456h52v-406z" />
    <glyph glyph-name="partialdiff" unicode="&#x2202;" horiz-adv-x="574" 
d="M189 710h66l205 -308q26 -39 44 -82t18 -93q0 -48 -17.5 -91.5t-48.5 -75.5t-74.5 -51t-94.5 -19t-94 18.5t-74.5 50.5t-49 75.5t-17.5 93.5q0 49 17.5 92.5t49 75.5t75.5 51t97 19q17 0 35.5 -3t34.5 -11zM396 389q-17 9 -42 16t-57 7q-43 0 -77.5 -14.5t-59 -39.5
t-38 -58.5t-13.5 -71.5t13.5 -71.5t37 -58.5t56 -39.5t71.5 -14.5t71.5 14.5t56 39.5t37 58.5t13.5 71.5q0 47 -20 90.5t-49 70.5z" />
    <glyph glyph-name="Delta" unicode="&#x2206;" horiz-adv-x="609" 
d="M579 34v-34h-549v34l256 666h37zM95 54h419l-210 540z" />
    <glyph glyph-name="product" unicode="&#x220f;" horiz-adv-x="582" 
d="M389 646h-196v-646h-57v646h-100v54h510v-54h-100v-646h-57v646z" />
    <glyph glyph-name="summation" unicode="&#x2211;" horiz-adv-x="612" 
d="M478 646h-335l269 -267v-34l-283 -291h359v136h57v-190h-510v34l317 327l-307 305v34h490v-190h-57v136z" />
    <glyph glyph-name="minus" unicode="&#x2212;" horiz-adv-x="540" 
d="M60 229v54h420v-54h-420z" />
    <glyph glyph-name="uni2215" unicode="&#x2215;" horiz-adv-x="438" 
d="M-12 0l408 700h52l-408 -700h-52z" />
    <glyph glyph-name="uni2219" unicode="&#x2219;" horiz-adv-x="330" 
d="M113 228q0 22 15 37t37 15t37 -15t15 -37t-15 -37t-37 -15t-37 15t-15 37z" />
    <glyph glyph-name="radical" unicode="&#x221a;" horiz-adv-x="580" 
d="M575 700l-244 -700h-37l-160 402h-117v54h153l140 -351l208 595h57z" />
    <glyph glyph-name="infinity" unicode="&#x221e;" horiz-adv-x="802" 
d="M746 277q0 -39 -13.5 -73.5t-37 -59.5t-56 -39.5t-70.5 -14.5q-33 0 -58 10t-45.5 27t-36 39.5t-28.5 47.5q-14 -25 -29.5 -47.5t-35.5 -39.5t-45 -27t-58 -10q-38 0 -70.5 14.5t-56 39.5t-37 59.5t-13.5 73.5t13.5 73.5t37 59.5t56 39.5t70.5 14.5q33 0 58 -10t45 -27.5
t35.5 -40t29.5 -47.5q13 25 28.5 47.5t36 40t45.5 27.5t58 10q38 0 70.5 -14.5t56 -39.5t37 -59.5t13.5 -73.5zM233 144q26 0 46 11t36 29.5t29 42.5t26 50q-13 26 -26 50t-29 42.5t-36 29.5t-46 11q-51 0 -85.5 -36t-34.5 -97q0 -30 9.5 -55t25.5 -42t38 -26.5t47 -9.5z
M689 277q0 30 -9.5 55t-25.5 42t-38 26.5t-47 9.5q-26 0 -46 -11t-36 -29.5t-29.5 -42.5t-25.5 -50q12 -26 25.5 -50t29.5 -42.5t36 -29.5t46 -11q25 0 47 9.5t38 26.5t25.5 42t9.5 55z" />
    <glyph glyph-name="logicaland" unicode="&#x2227;" horiz-adv-x="562" 
d="M263 700h36l262 -700h-59l-221 595l-221 -595h-59z" />
    <glyph glyph-name="integral" unicode="&#x222b;" horiz-adv-x="492" 
d="M225 -81q-7 -43 -16 -69.5t-21 -44.5q-19 -28 -46.5 -41.5t-62.5 -13.5q-25 0 -53 11.5t-50 36.5l34 35q11 -11 27 -20t41 -9q20 0 39 9t30 29q8 13 13 30.5t10 51.5l97 617q7 43 16 69.5t21 44.5q19 28 46.5 41.5t62.5 13.5q25 0 53 -11.5t50 -36.5l-34 -35
q-11 11 -27 20t-41 9q-20 0 -39 -9t-30 -29q-8 -13 -13 -30.5t-10 -51.5z" />
    <glyph glyph-name="approxequal" unicode="&#x2248;" horiz-adv-x="540" 
d="M52 132q14 50 44.5 79t77.5 29q31 0 57 -14t49 -30.5t44.5 -30t43.5 -13.5q32 0 49 23t28 54l47 -23q-14 -50 -44.5 -79t-77.5 -29q-31 0 -57 13.5t-49 30t-44.5 30.5t-43.5 14q-32 0 -49 -23t-28 -54zM52 306q14 50 44.5 79t77.5 29q31 0 57 -14t49 -30.5t44.5 -30
t43.5 -13.5q32 0 49 23t28 54l47 -23q-14 -50 -44.5 -79t-77.5 -29q-31 0 -57 13.5t-49 30t-44.5 30.5t-43.5 14q-32 0 -49 -23t-28 -54z" />
    <glyph glyph-name="notequal" unicode="&#x2260;" horiz-adv-x="540" 
d="M367 371h113v-54h-144l-70 -122h214v-54h-245l-60 -105h-63l60 105h-112v54h143l70 122h-213v54h244l61 105h63z" />
    <glyph glyph-name="equivalence" unicode="&#x2261;" horiz-adv-x="564" 
d="M72 73v54h420v-54h-420zM72 385v54h420v-54h-420zM72 229v54h420v-54h-420z" />
    <glyph glyph-name="lessequal" unicode="&#x2264;" horiz-adv-x="540" 
d="M58 26v54h420v-54h-420zM478 91l-420 171v34l420 171v-58l-319 -130l319 -130v-58z" />
    <glyph glyph-name="greaterequal" unicode="&#x2265;" horiz-adv-x="540" 
d="M62 26v54h420v-54h-420zM62 149l319 130l-319 130v58l420 -171v-34l-420 -171v58z" />
    <glyph glyph-name="uni22EE" unicode="&#x22ee;" horiz-adv-x="264" 
d="M80 42q0 22 15 37t37 15t37 -15t15 -37t-15 -37t-37 -15t-37 15t-15 37zM80 350q0 22 15 37t37 15t37 -15t15 -37t-15 -37t-37 -15t-37 15t-15 37zM80 658q0 22 15 37t37 15t37 -15t15 -37t-15 -37t-37 -15t-37 15t-15 37z" />
    <glyph glyph-name="uni2300" unicode="&#x2300;" horiz-adv-x="834" 
d="M107 350q0 -58 19.5 -109t54.5 -92l437 438q-41 35 -92.5 54t-108.5 19q-64 0 -120.5 -24.5t-98.5 -66.5t-66.5 -98.5t-24.5 -120.5zM727 350q0 58 -19.5 109t-54.5 92l-437 -438q41 -35 92 -54t109 -19q64 0 120.5 24.5t98.5 66.5t66.5 98.5t24.5 120.5zM777 350
q0 -74 -28.5 -139.5t-77.5 -114.5t-114.5 -77.5t-139.5 -28.5q-68 0 -128 23t-108 65l-78 -78l-36 35l79 79q-42 48 -65.5 108t-23.5 128q0 74 28.5 139.5t77.5 114.5t114.5 77.5t139.5 28.5q68 0 128 -23t108 -65l78 78l36 -35l-79 -79q42 -48 65.5 -108t23.5 -128z" />
    <glyph glyph-name="ltshade" unicode="&#x2591;" horiz-adv-x="700" 
d="M650 0v50h-50v50h-50v50h-50v50h-50v50h-50v50h-50v50h-50v50h-50v50h-50v50h-50v50h-50v50h-50v50h-50v50h50v-50h50v-50h50v-50h50v-50h50v-50h50v-50h50v-50h50v-50h50v-50h50v-50h50v-50h50v-50h50v-50h50v-50h-50zM650 100v50h-50v50h-50v50h-50v50h-50v50h-50v50
h-50v50h-50v50h-50v50h-50v50h-50v50h-50v50h50v-50h50v-50h50v-50h50v-50h50v-50h50v-50h50v-50h50v-50h50v-50h50v-50h50v-50h50v-50h-50zM550 0v50h-50v50h-50v50h-50v50h-50v50h-50v50h-50v50h-50v50h-50v50h-50v50h-50v50h-50v50h50v-50h50v-50h50v-50h50v-50h50v-50
h50v-50h50v-50h50v-50h50v-50h50v-50h50v-50h50v-50h-50zM650 200v50h-50v50h-50v50h-50v50h-50v50h-50v50h-50v50h-50v50h-50v50h-50v50h50v-50h50v-50h50v-50h50v-50h50v-50h50v-50h50v-50h50v-50h50v-50h50v-50h-50zM450 0v50h-50v50h-50v50h-50v50h-50v50h-50v50h-50v50
h-50v50h-50v50h-50v50h50v-50h50v-50h50v-50h50v-50h50v-50h50v-50h50v-50h50v-50h50v-50h50v-50h-50zM350 0v50h-50v50h-50v50h-50v50h-50v50h-50v50h-50v50h-50v50h50v-50h50v-50h50v-50h50v-50h50v-50h50v-50h50v-50h50v-50h-50zM650 300v50h-50v50h-50v50h-50v50h-50v50
h-50v50h-50v50h-50v50h50v-50h50v-50h50v-50h50v-50h50v-50h50v-50h50v-50h50v-50h-50zM650 400v50h-50v50h-50v50h-50v50h-50v50h-50v50h50v-50h50v-50h50v-50h50v-50h50v-50h50v-50h-50zM250 0v50h-50v50h-50v50h-50v50h-50v50h-50v50h50v-50h50v-50h50v-50h50v-50h50v-50
h50v-50h-50zM650 500v50h-50v50h-50v50h-50v50h50v-50h50v-50h50v-50h50v-50h-50zM150 0v50h-50v50h-50v50h-50v50h50v-50h50v-50h50v-50h50v-50h-50zM50 0v50h-50v50h50v-50h50v-50h-50zM650 600v50h-50v50h50v-50h50v-50h-50z" />
    <glyph glyph-name="filledbox" unicode="&#x25a0;" horiz-adv-x="800" 
d="M50 0v700h700v-700h-700z" />
    <glyph glyph-name="H22073" unicode="&#x25a1;" horiz-adv-x="800" 
d="M50 0v700h700v-700h-700zM700 650h-600v-600h600v600z" />
    <glyph glyph-name="uni25AE" unicode="&#x25ae;" horiz-adv-x="556" 
d="M50 0v700h456v-700h-456z" />
    <glyph glyph-name="uni25AF" unicode="&#x25af;" horiz-adv-x="556" 
d="M51 0v700h456v-700h-456zM457 650h-356v-600h356v600z" />
    <glyph glyph-name="triagup" unicode="&#x25b2;" horiz-adv-x="576" 
d="M288 466l238 -466h-476z" />
    <glyph glyph-name="triagrt" unicode="&#x25ba;" horiz-adv-x="576" 
d="M536 228l-466 -238v476z" />
    <glyph glyph-name="triagdn" unicode="&#x25bc;" horiz-adv-x="576" 
d="M50 466h476l-238 -466z" />
    <glyph glyph-name="triaglf" unicode="&#x25c4;" horiz-adv-x="576" 
d="M40 228l466 238v-476z" />
    <glyph glyph-name="lozenge" unicode="&#x25ca;" horiz-adv-x="521" 
d="M242 0l-212 333v34l212 333h37l212 -333v-34l-212 -333h-37zM260 71l178 279l-178 278l-177 -278z" />
    <glyph glyph-name="circle" unicode="&#x25cb;" horiz-adv-x="820" 
d="M410 -10q-74 0 -139.5 28.5t-114.5 77.5t-77.5 114.5t-28.5 139.5t28.5 139.5t77.5 114.5t114.5 77.5t139.5 28.5t139.5 -28.5t114.5 -77.5t77.5 -114.5t28.5 -139.5t-28.5 -139.5t-77.5 -114.5t-114.5 -77.5t-139.5 -28.5zM100 350q0 -64 24.5 -120.5t66.5 -98.5
t98.5 -66.5t120.5 -24.5t120.5 24.5t98.5 66.5t66.5 98.5t24.5 120.5t-24.5 120.5t-66.5 98.5t-98.5 66.5t-120.5 24.5t-120.5 -24.5t-98.5 -66.5t-66.5 -98.5t-24.5 -120.5z" />
    <glyph glyph-name="H18533" unicode="&#x25cf;" horiz-adv-x="820" 
d="M410 -10q-74 0 -139.5 28.5t-114.5 77.5t-77.5 114.5t-28.5 139.5t28.5 139.5t77.5 114.5t114.5 77.5t139.5 28.5t139.5 -28.5t114.5 -77.5t77.5 -114.5t28.5 -139.5t-28.5 -139.5t-77.5 -114.5t-114.5 -77.5t-139.5 -28.5z" />
    <glyph glyph-name="uni25FB" unicode="&#x25fb;" horiz-adv-x="556" 
d="M50 0v456h456v-456h-456zM456 406h-356v-356h356v356z" />
    <glyph glyph-name="uni25FC" unicode="&#x25fc;" horiz-adv-x="556" 
d="M50 0v456h456v-456h-456z" />
    <glyph glyph-name="uni262E" unicode="&#x262e;" horiz-adv-x="820" 
d="M410 -10q-74 0 -139.5 28.5t-114.5 77.5t-77.5 114.5t-28.5 139.5t28.5 139.5t77.5 114.5t114.5 77.5t139.5 28.5t139.5 -28.5t114.5 -77.5t77.5 -114.5t28.5 -139.5t-28.5 -139.5t-77.5 -114.5t-114.5 -77.5t-139.5 -28.5zM100 350q0 -56 18.5 -105.5t50.5 -90.5
l216 216v289q-60 -5 -112 -31t-90.5 -67.5t-60.5 -95.5t-22 -115zM202 120q37 -34 83.5 -54.5t99.5 -24.5v262zM720 350q0 61 -22 115t-60.5 95.5t-90.5 67.5t-112 31v-289l216 -216q32 41 50.5 90.5t18.5 105.5zM435 303v-262q53 4 99.5 24.5t83.5 54.5z" />
    <glyph glyph-name="uni263A" unicode="&#x263a;" horiz-adv-x="830" 
d="M637 311q-9 4 -9 12q0 5 3 11t11 6q5 0 10 -1.5t9 -3.5l36 -14q11 -4 11 -15q0 -8 -4.5 -12.5t-9.5 -4.5q-4 0 -8.5 1.5t-9.5 3.5q-13 -41 -37.5 -75.5t-58.5 -60t-76 -40t-89 -14.5t-89 14.5t-76 40t-58.5 60t-37.5 75.5q-5 -2 -9.5 -3.5t-8.5 -1.5q-5 0 -9.5 4.5
t-4.5 12.5q0 11 11 15l36 14q4 2 9 3.5t10 1.5q8 0 11 -6t3 -11q0 -8 -9 -12l-10 -4q11 -38 33 -69.5t52.5 -54t67.5 -35.5t79 -13t79 13t67.5 35.5t52.5 54t33 69.5zM515 358q-19 0 -29.5 31.5t-10.5 78.5q0 46 10.5 78.5t29.5 32.5t29.5 -32.5t10.5 -78.5
q0 -47 -10.5 -78.5t-29.5 -31.5zM315 358q-19 0 -29.5 31.5t-10.5 78.5q0 46 10.5 78.5t29.5 32.5t29.5 -32.5t10.5 -78.5q0 -47 -10.5 -78.5t-29.5 -31.5zM415 -15q-75 0 -141.5 29t-116 78.5t-78.5 116t-29 141.5t29 141.5t78.5 116t116 78.5t141.5 29t141.5 -29
t116 -78.5t78.5 -116t29 -141.5t-29 -141.5t-78.5 -116t-116 -78.5t-141.5 -29zM415 20q68 0 127.5 26t104 71t70.5 105t26 128t-26 128t-70.5 105t-104 71t-127.5 26t-127.5 -26t-104 -71t-70.5 -105t-26 -128t26 -128t70.5 -105t104 -71t127.5 -26z" />
    <glyph glyph-name="invsmileface" unicode="&#x263b;" horiz-adv-x="820" 
d="M656 345q-4 2 -9 3.5t-10 1.5q-8 0 -11 -6t-3 -11q0 -8 9 -12l10 -4q-11 -38 -33 -69.5t-52.5 -54t-67.5 -35.5t-79 -13t-79 13t-67.5 35.5t-52.5 54t-33 69.5l10 4q9 4 9 12q0 5 -3 11t-11 6q-5 0 -10 -1.5t-9 -3.5l-36 -14q-11 -4 -11 -15q0 -8 4.5 -12.5t9.5 -4.5
q4 0 8.5 1.5t9.5 3.5q13 -41 37.5 -75.5t58.5 -60t76 -40t89 -14.5t89 14.5t76 40t58.5 60t37.5 75.5q5 -2 9.5 -3.5t8.5 -1.5q5 0 9.5 4.5t4.5 12.5q0 11 -11 15zM510 358q19 0 29.5 31.5t10.5 78.5q0 46 -10.5 78.5t-29.5 32.5t-29.5 -32.5t-10.5 -78.5q0 -47 10.5 -78.5
t29.5 -31.5zM310 358q19 0 29.5 31.5t10.5 78.5q0 46 -10.5 78.5t-29.5 32.5t-29.5 -32.5t-10.5 -78.5q0 -47 10.5 -78.5t29.5 -31.5zM410 -10q-74 0 -139.5 28.5t-114.5 77.5t-77.5 114.5t-28.5 139.5t28.5 139.5t77.5 114.5t114.5 77.5t139.5 28.5t139.5 -28.5
t114.5 -77.5t77.5 -114.5t28.5 -139.5t-28.5 -139.5t-77.5 -114.5t-114.5 -77.5t-139.5 -28.5z" />
    <glyph glyph-name="uni270E" unicode="&#x270e;" horiz-adv-x="795" 
d="M399 98l-349 350v134l118 118h137l350 -350l90 -350zM506 187q24 0 41 17t17 41q0 5 -2 13l-281 283l-69 -69l285 -285h9zM187 448h-88l316 -317q23 0 35.5 11.5t12.5 29.5zM305 651v-86l279 -278q16 0 27 11t11 28q0 6 -1 8zM269 666h-87l-96 -96v-88h88l95 95v89z
M638 275q-8 -8 -17 -14.5t-20 -8.5v-7q0 -40 -27.5 -67.5t-67.5 -27.5h-9q-6 -21 -24 -38l165 -46q18 0 30.5 12.5t12.5 31.5zM157 537q-19 0 -19 20q0 18 16 34.5t36 16.5q8 0 13.5 -4.5t5.5 -13.5t-4.5 -18.5t-12 -17t-16.5 -12.5t-19 -5z" />
    </font>
</defs>
</svg>
